<svg width="221" height="20" viewBox="0 0 221 20" fill="none" xmlns="http://www.w3.org/2000/svg">
<path d="M1.12766 16C0.90099 16 0.714323 15.9267 0.567656 15.78C0.42099 15.6333 0.347656 15.4467 0.347656 15.22V1.16C0.347656 0.933332 0.42099 0.746666 0.567656 0.599999C0.714323 0.453333 0.90099 0.38 1.12766 0.38H5.12766C6.11432 0.38 6.98766 0.6 7.74766 1.04C8.50766 1.46667 9.10099 2.06 9.52766 2.82C9.95432 3.58 10.1677 4.46 10.1677 5.46C10.1677 6.43333 9.95432 7.3 9.52766 8.06C9.10099 8.80667 8.50766 9.4 7.74766 9.84C6.98766 10.2667 6.11432 10.48 5.12766 10.48H1.90766V15.22C1.90766 15.4467 1.83432 15.6333 1.68766 15.78C1.54099 15.9267 1.35432 16 1.12766 16ZM1.90766 8.98H5.12766C5.80766 8.98 6.41432 8.83333 6.94766 8.54C7.48099 8.23333 7.89432 7.81333 8.18766 7.28C8.49432 6.74667 8.64766 6.14 8.64766 5.46C8.64766 4.75333 8.49432 4.13333 8.18766 3.6C7.89432 3.06667 7.48099 2.64667 6.94766 2.34C6.41432 2.03333 5.80766 1.88 5.12766 1.88H1.90766V8.98ZM13.3738 16C13.1471 16 12.9604 15.9267 12.8138 15.78C12.6671 15.6333 12.5938 15.4467 12.5938 15.22V1.16C12.5938 0.933332 12.6671 0.746666 12.8138 0.599999C12.9604 0.453333 13.1471 0.38 13.3738 0.38H22.7538C22.9671 0.38 23.1471 0.453333 23.2938 0.599999C23.4538 0.733332 23.5338 0.913332 23.5338 1.14C23.5338 1.34 23.4538 1.51333 23.2938 1.66C23.1471 1.80667 22.9671 1.88 22.7538 1.88H14.1538V7.4H20.4138C20.6404 7.4 20.8271 7.47333 20.9738 7.62C21.1204 7.76667 21.1938 7.94667 21.1938 8.16C21.1938 8.37333 21.1204 8.55333 20.9738 8.7C20.8271 8.84667 20.6404 8.92 20.4138 8.92H14.1538V14.5H22.7538C22.9671 14.5 23.1471 14.5733 23.2938 14.72C23.4538 14.8667 23.5338 15.04 23.5338 15.24C23.5338 15.4667 23.4538 15.6533 23.2938 15.8C23.1471 15.9333 22.9671 16 22.7538 16H13.3738ZM27.3214 16C27.0681 16 26.8547 15.9333 26.6814 15.8C26.5214 15.6533 26.4414 15.46 26.4414 15.22V1.16C26.4414 0.933332 26.5147 0.746666 26.6614 0.599999C26.8081 0.453333 26.9947 0.38 27.2214 0.38H32.0814C32.8814 0.38 33.6014 0.553333 34.2414 0.899999C34.8947 1.23333 35.4081 1.69333 35.7814 2.28C36.1681 2.86667 36.3614 3.54667 36.3614 4.32C36.3614 5.04 36.1681 5.68 35.7814 6.24C35.3947 6.8 34.8881 7.22667 34.2614 7.52C35.1547 7.76 35.8747 8.21333 36.4214 8.88C36.9681 9.53333 37.2414 10.3667 37.2414 11.38C37.2414 12.2867 37.0347 13.0867 36.6214 13.78C36.2081 14.4733 35.6347 15.02 34.9014 15.42C34.1814 15.8067 33.3547 16 32.4214 16H27.3214ZM28.0014 6.9H32.0814C32.8814 6.9 33.5414 6.67333 34.0614 6.22C34.5814 5.76667 34.8414 5.13333 34.8414 4.32C34.8414 3.52 34.5814 2.91333 34.0614 2.5C33.5414 2.08667 32.8814 1.88 32.0814 1.88H28.0014V6.9ZM28.0014 14.5H32.4214C33.3814 14.5 34.1681 14.22 34.7814 13.66C35.3947 13.1 35.7014 12.34 35.7014 11.38C35.7014 10.4733 35.3947 9.75333 34.7814 9.22C34.1681 8.67333 33.3814 8.4 32.4214 8.4H28.0014V14.5ZM47.177 16.2C46.017 16.2 44.9504 16 43.977 15.6C43.0037 15.2 42.157 14.64 41.437 13.92C40.7304 13.2 40.177 12.3533 39.777 11.38C39.3904 10.4067 39.197 9.34 39.197 8.18C39.197 7.03333 39.3904 5.97333 39.777 5C40.177 4.02667 40.7304 3.18 41.437 2.46C42.157 1.74 43.0037 1.18 43.977 0.779999C44.9504 0.38 46.017 0.18 47.177 0.18C48.3237 0.18 49.3837 0.38 50.357 0.779999C51.3304 1.18 52.177 1.74 52.897 2.46C53.617 3.18 54.1704 4.02667 54.557 5C54.957 5.97333 55.157 7.03333 55.157 8.18C55.157 9.34 54.957 10.4067 54.557 11.38C54.1704 12.3533 53.617 13.2 52.897 13.92C52.177 14.64 51.3304 15.2 50.357 15.6C49.3837 16 48.3237 16.2 47.177 16.2ZM47.177 14.72C48.097 14.72 48.9504 14.56 49.737 14.24C50.5237 13.9067 51.2037 13.4467 51.777 12.86C52.3637 12.26 52.817 11.5667 53.137 10.78C53.457 9.98 53.617 9.11333 53.617 8.18C53.617 7.26 53.457 6.40667 53.137 5.62C52.817 4.82 52.3637 4.12667 51.777 3.54C51.2037 2.94 50.5237 2.48 49.737 2.16C48.9504 1.82667 48.097 1.66 47.177 1.66C46.2437 1.66 45.3837 1.82667 44.597 2.16C43.8104 2.48 43.1237 2.94 42.537 3.54C41.9637 4.12667 41.517 4.82 41.197 5.62C40.877 6.40667 40.717 7.26 40.717 8.18C40.717 9.11333 40.877 9.98 41.197 10.78C41.517 11.5667 41.9637 12.26 42.537 12.86C43.1237 13.4467 43.8104 13.9067 44.597 14.24C45.3837 14.56 46.2437 14.72 47.177 14.72ZM57.1444 16C56.8377 16 56.611 15.8733 56.4644 15.62C56.331 15.3667 56.3244 15.12 56.4444 14.88L62.3244 0.92C62.471 0.56 62.7177 0.38 63.0644 0.38C63.4244 0.38 63.6777 0.56 63.8244 0.92L69.7244 14.9C69.8444 15.1533 69.831 15.4 69.6844 15.64C69.5377 15.88 69.3177 16 69.0244 16C68.6777 16 68.4377 15.84 68.3044 15.52L63.1044 2.96L57.8644 15.52C57.7977 15.68 57.6977 15.8 57.5644 15.88C57.4444 15.96 57.3044 16 57.1444 16ZM72.8855 16C72.6588 16 72.4721 15.9267 72.3255 15.78C72.1788 15.6333 72.1055 15.4467 72.1055 15.22V1.16C72.1055 0.933332 72.1788 0.746666 72.3255 0.599999C72.4721 0.453333 72.6588 0.38 72.8855 0.38C73.1121 0.38 73.2988 0.453333 73.4455 0.599999C73.5921 0.746666 73.6655 0.933332 73.6655 1.16V7.4H76.9055C77.0121 6 77.4055 4.76 78.0855 3.68C78.7788 2.58667 79.6788 1.73333 80.7855 1.12C81.9055 0.493333 83.1655 0.18 84.5655 0.18C85.6855 0.18 86.7188 0.38 87.6655 0.779999C88.6121 1.18 89.4321 1.74 90.1255 2.46C90.8321 3.18 91.3788 4.02667 91.7655 5C92.1521 5.97333 92.3455 7.03333 92.3455 8.18C92.3455 9.34 92.1521 10.4067 91.7655 11.38C91.3788 12.3533 90.8321 13.2 90.1255 13.92C89.4321 14.64 88.6121 15.2 87.6655 15.6C86.7188 16 85.6855 16.2 84.5655 16.2C83.4988 16.2 82.5121 16.02 81.6055 15.66C80.7121 15.2867 79.9188 14.7733 79.2255 14.12C78.5455 13.4533 77.9988 12.6733 77.5855 11.78C77.1855 10.8733 76.9521 9.88 76.8855 8.8H73.6655V15.22C73.6655 15.4467 73.5921 15.6333 73.4455 15.78C73.2988 15.9267 73.1121 16 72.8855 16ZM84.5655 14.72C85.4588 14.72 86.2855 14.56 87.0455 14.24C87.8055 13.9067 88.4655 13.4467 89.0255 12.86C89.5988 12.26 90.0388 11.5667 90.3455 10.78C90.6655 9.98 90.8255 9.11333 90.8255 8.18C90.8255 7.26 90.6655 6.40667 90.3455 5.62C90.0388 4.82 89.5988 4.12667 89.0255 3.54C88.4655 2.94 87.8055 2.48 87.0455 2.16C86.2855 1.82667 85.4588 1.66 84.5655 1.66C83.6855 1.66 82.8655 1.82667 82.1055 2.16C81.3588 2.48 80.7055 2.94 80.1455 3.54C79.5988 4.12667 79.1655 4.82 78.8455 5.62C78.5388 6.40667 78.3855 7.26 78.3855 8.18C78.3855 9.11333 78.5388 9.98 78.8455 10.78C79.1655 11.5667 79.5988 12.26 80.1455 12.86C80.7055 13.4467 81.3588 13.9067 82.1055 14.24C82.8655 14.56 83.6855 14.72 84.5655 14.72ZM109.023 19.42C108.783 19.42 108.589 19.3467 108.443 19.2C108.309 19.0667 108.243 18.88 108.243 18.64V16H96.3425C96.1158 16 95.9292 15.9267 95.7825 15.78C95.6358 15.6333 95.5625 15.4467 95.5625 15.22V1.16C95.5625 0.933332 95.6358 0.746666 95.7825 0.599999C95.9292 0.453333 96.1158 0.38 96.3425 0.38C96.5692 0.38 96.7558 0.453333 96.9025 0.599999C97.0492 0.746666 97.1225 0.933332 97.1225 1.16V14.54H106.203V1.16C106.203 0.933332 106.276 0.746666 106.423 0.599999C106.569 0.453333 106.756 0.38 106.983 0.38C107.209 0.38 107.396 0.453333 107.543 0.599999C107.689 0.746666 107.763 0.933332 107.763 1.16V14.54H109.023C109.263 14.54 109.449 14.6133 109.583 14.76C109.729 14.8933 109.803 15.08 109.803 15.32V18.64C109.803 18.88 109.729 19.0667 109.583 19.2C109.449 19.3467 109.263 19.42 109.023 19.42ZM113.296 16C113.083 16 112.896 15.9267 112.736 15.78C112.576 15.6333 112.496 15.4467 112.496 15.22V1.16C112.496 0.933332 112.576 0.746666 112.736 0.599999C112.896 0.453333 113.083 0.38 113.296 0.38C113.523 0.38 113.703 0.453333 113.836 0.599999C113.983 0.746666 114.056 0.933332 114.056 1.16V13.44L124.036 0.66C124.183 0.473333 124.383 0.38 124.636 0.38C124.863 0.38 125.049 0.453333 125.196 0.599999C125.343 0.746666 125.416 0.933332 125.416 1.16V15.22C125.416 15.4467 125.343 15.6333 125.196 15.78C125.049 15.9267 124.863 16 124.636 16C124.409 16 124.223 15.9267 124.076 15.78C123.929 15.6333 123.856 15.4467 123.856 15.22V2.96L113.876 15.74C113.743 15.9133 113.549 16 113.296 16ZM129.73 16C129.37 16 129.123 15.88 128.99 15.64C128.87 15.4 128.91 15.12 129.11 14.8L132.49 9.52C131.81 9.36 131.203 9.08 130.67 8.68C130.137 8.26667 129.71 7.76667 129.39 7.18C129.083 6.58 128.93 5.92 128.93 5.2C128.93 4.25333 129.143 3.42 129.57 2.7C130.01 1.98 130.61 1.41333 131.37 0.999999C132.13 0.586666 133.003 0.38 133.99 0.38H138.57C138.797 0.38 138.983 0.453333 139.13 0.599999C139.277 0.746666 139.35 0.933332 139.35 1.16V15.22C139.35 15.4467 139.277 15.6333 139.13 15.78C138.983 15.9267 138.797 16 138.57 16C138.343 16 138.157 15.9267 138.01 15.78C137.863 15.6333 137.79 15.4467 137.79 15.22V9.88H134.07L130.41 15.6C130.33 15.7333 130.237 15.8333 130.13 15.9C130.023 15.9667 129.89 16 129.73 16ZM133.99 8.42H137.79V1.88H133.99C132.963 1.88 132.117 2.18 131.45 2.78C130.797 3.38 130.47 4.18667 130.47 5.2C130.47 6.17333 130.797 6.95333 131.45 7.54C132.117 8.12667 132.963 8.42 133.99 8.42ZM153.755 16C153.542 16 153.355 15.9267 153.195 15.78C153.048 15.62 152.975 15.4333 152.975 15.22V1.8H148.235C148.022 1.8 147.848 1.73333 147.715 1.6C147.582 1.46667 147.515 1.3 147.515 1.1C147.515 0.886666 147.582 0.713333 147.715 0.579999C147.848 0.446666 148.022 0.38 148.235 0.38H159.295C159.508 0.38 159.682 0.446666 159.815 0.579999C159.948 0.713333 160.015 0.886666 160.015 1.1C160.015 1.3 159.948 1.46667 159.815 1.6C159.682 1.73333 159.508 1.8 159.295 1.8H154.535V15.22C154.535 15.4333 154.462 15.62 154.315 15.78C154.168 15.9267 153.982 16 153.755 16ZM159.859 16C159.552 16 159.332 15.8733 159.199 15.62C159.065 15.3667 159.052 15.12 159.159 14.88L165.039 0.92C165.185 0.56 165.439 0.38 165.799 0.38C166.145 0.38 166.392 0.56 166.539 0.92L172.439 14.9C172.559 15.1533 172.539 15.4 172.379 15.64C172.232 15.88 172.019 16 171.739 16C171.379 16 171.132 15.84 170.999 15.52L169.679 12.28H161.919L160.579 15.52C160.512 15.68 160.412 15.8 160.279 15.88C160.159 15.96 160.019 16 159.859 16ZM162.479 10.94H169.119L165.799 2.92L162.479 10.94ZM175.561 16C175.335 16 175.148 15.9267 175.001 15.78C174.855 15.6333 174.781 15.4467 174.781 15.22V1.16C174.781 0.933332 174.855 0.746666 175.001 0.599999C175.148 0.453333 175.335 0.38 175.561 0.38C175.788 0.38 175.975 0.453333 176.121 0.599999C176.268 0.746666 176.341 0.933332 176.341 1.16V7.4H186.101V1.16C186.101 0.933332 186.175 0.746666 186.321 0.599999C186.468 0.453333 186.655 0.38 186.881 0.38C187.108 0.38 187.295 0.453333 187.441 0.599999C187.588 0.746666 187.661 0.933332 187.661 1.16V15.22C187.661 15.4467 187.588 15.6333 187.441 15.78C187.295 15.9267 187.108 16 186.881 16C186.655 16 186.468 15.9267 186.321 15.78C186.175 15.6333 186.101 15.4467 186.101 15.22V8.8H176.341V15.22C176.341 15.4467 176.268 15.6333 176.121 15.78C175.975 15.9267 175.788 16 175.561 16ZM205.116 19.42C204.876 19.42 204.683 19.3467 204.536 19.2C204.403 19.0667 204.336 18.88 204.336 18.64V16H192.436C192.21 16 192.023 15.9267 191.876 15.78C191.73 15.6333 191.656 15.4467 191.656 15.22V1.16C191.656 0.933332 191.73 0.746666 191.876 0.599999C192.023 0.453333 192.21 0.38 192.436 0.38C192.663 0.38 192.85 0.453333 192.996 0.599999C193.143 0.746666 193.216 0.933332 193.216 1.16V14.54H202.296V1.16C202.296 0.933332 202.37 0.746666 202.516 0.599999C202.663 0.453333 202.85 0.38 203.076 0.38C203.303 0.38 203.49 0.453333 203.636 0.599999C203.783 0.746666 203.856 0.933332 203.856 1.16V14.54H205.116C205.356 14.54 205.543 14.6133 205.676 14.76C205.823 14.8933 205.896 15.08 205.896 15.32V18.64C205.896 18.88 205.823 19.0667 205.676 19.2C205.543 19.3467 205.356 19.42 205.116 19.42ZM207.73 16C207.423 16 207.203 15.8733 207.07 15.62C206.937 15.3667 206.923 15.12 207.03 14.88L212.91 0.92C213.057 0.56 213.31 0.38 213.67 0.38C214.017 0.38 214.263 0.56 214.41 0.92L220.31 14.9C220.43 15.1533 220.41 15.4 220.25 15.64C220.103 15.88 219.89 16 219.61 16C219.25 16 219.003 15.84 218.87 15.52L217.55 12.28H209.79L208.45 15.52C208.383 15.68 208.283 15.8 208.15 15.88C208.03 15.96 207.89 16 207.73 16ZM210.35 10.94H216.99L213.67 2.92L210.35 10.94Z" fill="#FF0302" style="mix-blend-mode:screen"/>
</svg>
