<svg width="5123" height="5432" viewBox="0 0 5123 5432" fill="none" xmlns="http://www.w3.org/2000/svg">
<path fill-rule="evenodd" clip-rule="evenodd" d="M4632.28 3865.32H4795.11C4804.37 3865.32 4813.1 3871.13 4813.1 3883.56V4386.82L4797.79 4400.58H4746.99L4735.35 4388.95V4166.84H4729.3L4557.71 4399.86H4491.12C4485.97 4399.86 4482.64 4395.87 4481.66 4389.43C4481.34 4387.34 4481.5 4383.77 4482.09 4381.74C4483.07 4378.39 4484.54 4376.42 4485.93 4374.52L4634.23 4171.3C4636.03 4168.94 4637.63 4163.36 4634.23 4163.39C4556.31 4163.93 4501.84 4119.49 4488.52 4042.63C4485.81 4027.01 4484.61 4010.04 4488.52 3992.48C4505.24 3917.31 4555.41 3865.32 4632.28 3865.32V3865.32ZM4637.32 3947.25H4736.38V4087.85H4634.44C4599.18 4087.85 4575.94 4070.21 4566.82 4035.02C4564.5 4026.04 4564.21 4015.5 4566.82 4003.78C4574.52 3969.29 4598.27 3947.25 4637.32 3947.25Z" fill="#1F1A17"/>
<path fill-rule="evenodd" clip-rule="evenodd" d="M4044.62 3865.43H4089.63C4099.16 3865.43 4105.36 3871.94 4105.36 3883.11V4231.18L4396.96 3868.69C4397.97 3867.44 4400.2 3865.37 4403.33 3865.37H4417.82C4422.97 3865.37 4427.49 3867.49 4427.49 3877.8L4427.54 4389.39C4427.54 4397.87 4421.09 4402.18 4413.77 4402.18H4362.91C4356.56 4402.18 4351.05 4397.92 4351.05 4389.34V4041.26L4062.24 4396.12C4057.83 4401.55 4057.02 4402.19 4053.19 4402.19H4042.61C4036.68 4402.19 4028.22 4396.75 4028.22 4386.05V3883.15C4028.22 3872 4033.34 3865.43 4044.62 3865.43V3865.43Z" fill="#1F1A17"/>
<path fill-rule="evenodd" clip-rule="evenodd" d="M2840.54 4387.14V3881.88C2840.54 3873.6 2844.63 3865.38 2855.14 3865.38H2900.53C2910.1 3865.38 2916.34 3870.83 2916.34 3881.39V4092.19H2973.58C2992.63 3957.97 3101.73 3855.08 3233.46 3855.08C3378.62 3855.08 3496.3 3980.01 3496.3 4134.12C3496.3 4288.23 3378.62 4413.16 3233.46 4413.16C3099.11 4413.16 2988.31 4306.12 2972.56 4167.99H2916.04V4387.12C2916.04 4394.24 2909.79 4402.08 2902.87 4402.08H2854.17C2846.26 4402.08 2840.54 4394.2 2840.54 4387.14V4387.14ZM3233.65 3933.93C3336.3 3933.93 3419.52 4023.68 3419.52 4134.37C3419.52 4245.07 3336.3 4334.82 3233.65 4334.82C3130.99 4334.82 3047.77 4245.07 3047.77 4134.37C3047.77 4023.68 3130.99 3933.93 3233.65 3933.93Z" fill="#1F1A17"/>
<path fill-rule="evenodd" clip-rule="evenodd" d="M2049.18 3938.17C2150.39 3938.17 2232.44 4026.33 2232.44 4135.08C2232.44 4243.83 2150.39 4331.99 2049.18 4331.99C1947.97 4331.99 1865.93 4243.83 1865.93 4135.08C1865.93 4026.33 1947.97 3938.17 2049.18 3938.17Z" fill="#C82C39"/>
<path fill-rule="evenodd" clip-rule="evenodd" d="M1506.46 4161.47H1555.45C1615.01 4161.47 1649.27 4183.76 1660.03 4226.42C1662.53 4236.35 1662.38 4246.22 1660.03 4255.36C1647.92 4302.28 1614.46 4317.51 1564.5 4317.51H1506.28L1506.46 4161.47Z" fill="#C82C39"/>
<path fill-rule="evenodd" clip-rule="evenodd" d="M1506.95 4073.49V3950.66H1553.95C1584.73 3950.66 1617.34 3965.24 1622.01 3998.51C1622.73 4003.63 1622.84 4008.26 1622.01 4012.66C1615.81 4051.93 1591.64 4073.82 1547.62 4073.65L1506.95 4073.49V4073.49Z" fill="#C82C39"/>
<path fill-rule="evenodd" clip-rule="evenodd" d="M763.891 3951.69H863.822C897.941 3951.69 923.996 3968.89 928.594 4005.19C929.589 4013.05 928.977 4020.66 928.443 4028.57C925.873 4066.52 897.563 4084.45 856.046 4084.46L763.866 4084.48V3951.69H763.891V3951.69Z" fill="#C82C39"/>
<path fill-rule="evenodd" clip-rule="evenodd" d="M1929.12 393.661L2067.7 459.571L2052.92 490.656L2036.09 482.654C2044.38 498.246 2044.12 515.281 2035.34 533.759C2027.55 550.128 2016.3 560.434 2001.58 564.68C1986.86 568.926 1969.92 566.497 1950.79 557.397L1869.62 518.791L1884.87 486.719L1965.05 524.852C1976.14 530.124 1985.72 531.486 1993.81 528.941C2001.9 526.395 2008.08 520.633 2012.35 511.659C2016.93 502.024 2017.6 492.874 2014.36 484.208C2011.11 475.545 2003.61 468.42 1991.87 462.835L1913.87 425.738L1929.12 393.661V393.661Z" fill="#1F1A17"/>
<path fill-rule="evenodd" clip-rule="evenodd" d="M1858.55 542.066L1997.13 607.974L1982.35 639.06L1965.53 631.058C1973.81 646.649 1973.55 663.685 1964.77 682.162C1956.98 698.531 1945.73 708.838 1931.01 713.084C1916.29 717.329 1899.36 714.901 1880.22 705.8L1799.05 667.195L1814.3 635.122L1894.48 673.255C1905.57 678.528 1915.15 679.89 1923.24 677.344C1931.33 674.799 1937.51 669.037 1941.78 660.063C1946.36 650.428 1947.03 641.277 1943.79 632.614C1940.54 623.951 1933.05 616.824 1921.3 611.238L1843.3 574.141L1858.55 542.066Z" fill="#1F1A17"/>
<path fill-rule="evenodd" clip-rule="evenodd" d="M1748.71 767.439C1757.05 749.887 1767.44 735.968 1779.85 725.687C1792.26 715.408 1805.56 709.31 1819.74 707.393C1833.92 705.482 1847.88 707.789 1861.6 714.316C1875.33 720.844 1885.92 730.213 1893.39 742.419C1900.85 754.63 1904.52 768.794 1904.38 784.91C1904.24 801.031 1899.99 817.867 1891.65 835.42C1883.24 853.109 1872.84 867.06 1860.46 877.274C1848.07 887.489 1834.79 893.552 1820.61 895.466C1806.43 897.383 1792.48 895.076 1778.75 888.548C1765.02 882.02 1754.43 872.651 1746.96 860.44C1739.5 848.235 1735.82 834.102 1735.93 818.051C1736.04 802 1740.3 785.129 1748.71 767.439ZM1793.63 857.263C1805.24 862.787 1816.62 863.871 1827.77 860.515C1838.91 857.154 1848.68 849.378 1857.07 837.182L1769.36 795.472C1765.2 809.677 1765.3 822.143 1769.66 832.88C1774.02 843.611 1782.01 851.74 1793.63 857.263ZM1871.19 807.484C1875.35 793.28 1875.22 780.798 1870.79 770.032C1866.36 759.268 1858.34 751.122 1846.73 745.598C1835.11 740.075 1823.76 739.008 1812.69 742.397C1801.61 745.787 1791.87 753.578 1783.48 765.774L1860.03 802.177L1871.19 807.484V807.484Z" fill="#1F1A17"/>
<path fill-rule="evenodd" clip-rule="evenodd" d="M1670.13 932.182C1676.21 919.38 1684.03 909.416 1693.56 902.299C1703.09 895.182 1714 891.304 1726.28 890.671C1738.56 890.034 1751.62 893.015 1765.48 899.607L1841.31 935.667L1826.05 967.74L1792.79 951.922L1762.67 1015.28L1795.93 1031.1L1780.86 1062.78L1705.04 1026.71C1691.18 1020.12 1680.62 1011.87 1673.37 1001.94C1666.11 992.014 1662.23 981.109 1661.74 969.221C1661.24 957.331 1664.04 944.987 1670.13 932.182V932.182ZM1767.06 939.682L1747.26 930.268C1735.78 924.806 1725.75 923.516 1717.18 926.397C1708.6 929.283 1702 935.607 1697.35 945.374C1692.64 955.276 1691.89 964.426 1695.1 972.828C1698.31 981.233 1705.65 988.163 1717.13 993.625L1736.93 1003.04L1767.06 939.682Z" fill="#1F1A17"/>
<path fill-rule="evenodd" clip-rule="evenodd" d="M1606.95 1067.59C1616.17 1048.19 1628.13 1035.31 1642.81 1028.93C1657.49 1022.56 1673.41 1023.46 1690.57 1031.62C1706.8 1039.34 1717.2 1050.31 1721.76 1064.54C1726.32 1078.77 1724.4 1094.72 1715.99 1112.41C1713.23 1118.22 1709.95 1123.58 1706.16 1128.5C1702.37 1133.41 1697.58 1138.37 1691.79 1143.39L1733.17 1163.07L1718.11 1194.75L1636.15 1155.77C1617.53 1146.92 1605.68 1134.92 1600.58 1119.79C1595.47 1104.66 1597.59 1087.26 1606.95 1067.59V1067.59ZM1689.2 1106.47C1693.66 1097.1 1694.72 1088.74 1692.38 1081.4C1690.05 1074.06 1684.53 1068.32 1675.82 1064.18C1666.97 1059.97 1658.9 1059.25 1651.6 1062C1644.3 1064.77 1638.51 1070.63 1634.25 1079.61C1629.79 1088.98 1629.03 1097.56 1631.96 1105.34C1634.9 1113.13 1641.24 1119.35 1651.01 1123.99L1666.45 1131.34C1671.11 1128.7 1675.43 1125.21 1679.43 1120.88C1683.44 1116.56 1686.69 1111.75 1689.2 1106.47V1106.47Z" fill="#1F1A17"/>
<path fill-rule="evenodd" clip-rule="evenodd" d="M1601.65 1149.69L1570.3 1215.62L1682.84 1268.9L1667.69 1300.78L1529.1 1234.87L1575.61 1137.06L1601.65 1149.69Z" fill="#1F1A17"/>
<path fill-rule="evenodd" clip-rule="evenodd" d="M1626.23 1394.08C1619.39 1408.47 1610.12 1419.96 1598.42 1428.56C1586.73 1437.16 1573.88 1442.14 1559.89 1443.49C1545.89 1444.85 1532.1 1442.29 1518.5 1435.83C1504.91 1429.36 1494.22 1420.27 1486.44 1408.56C1478.66 1396.85 1474.41 1383.74 1473.7 1369.24C1472.99 1354.75 1476.05 1340.3 1482.89 1325.91C1489.73 1311.53 1498.99 1300.07 1510.65 1291.53C1522.31 1283 1535.16 1278.02 1549.19 1276.6C1563.22 1275.18 1577.03 1277.7 1590.62 1284.17C1604.22 1290.63 1614.89 1299.76 1622.64 1311.53C1630.39 1323.31 1634.64 1336.42 1635.38 1350.85C1636.12 1365.29 1633.07 1379.7 1626.23 1394.08V1394.08ZM1598.91 1381.09C1602.8 1372.9 1604.44 1364.62 1603.81 1356.23C1603.19 1347.84 1600.41 1340.17 1595.46 1333.2C1590.52 1326.24 1583.76 1320.72 1575.18 1316.64C1566.6 1312.56 1558.05 1310.8 1549.53 1311.36C1541.01 1311.92 1533.3 1314.61 1526.4 1319.42C1519.5 1324.22 1514.11 1330.72 1510.22 1338.91C1506.32 1347.09 1504.69 1355.38 1505.31 1363.76C1505.94 1372.15 1508.72 1379.83 1513.66 1386.79C1518.6 1393.76 1525.36 1399.28 1533.94 1403.36C1542.52 1407.44 1551.07 1409.2 1559.59 1408.64C1568.11 1408.08 1575.82 1405.39 1582.72 1400.58C1589.62 1395.77 1595.02 1389.27 1598.91 1381.09Z" fill="#1F1A17"/>
<path fill-rule="evenodd" clip-rule="evenodd" d="M1576.62 1461.66C1577.97 1470.39 1577.53 1480.34 1575.3 1491.5C1573.07 1502.65 1569.28 1513.84 1563.95 1525.06C1557.29 1539.05 1549.9 1550.1 1541.75 1558.2C1533.61 1566.31 1525.21 1571.38 1516.56 1573.41C1507.9 1575.44 1499.55 1574.55 1491.5 1570.72C1484.11 1567.2 1478.55 1562.05 1474.82 1555.26C1471.09 1548.47 1469.53 1540.85 1470.15 1532.4C1464.67 1536.44 1458.72 1538.74 1452.29 1539.33C1445.86 1539.91 1439.55 1538.73 1433.35 1535.78C1425.82 1532.2 1420.06 1526.63 1416.05 1519.06C1412.04 1511.49 1410.42 1502.14 1411.18 1491.01C1411.94 1479.88 1415.56 1467.52 1422.02 1453.92C1426.29 1444.95 1431.35 1436.59 1437.22 1428.86C1443.08 1421.13 1449.03 1414.82 1455.08 1409.93L1475.39 1430.51C1463.94 1439.95 1454.99 1451.47 1448.52 1465.07C1443.63 1475.36 1441.49 1483.86 1442.11 1490.55C1442.73 1497.23 1445.68 1501.83 1450.96 1504.34C1455.85 1506.67 1460.41 1506.69 1464.65 1504.42C1468.88 1502.14 1472.69 1497.44 1476.09 1490.32L1494.07 1452.5L1519.41 1464.55L1500.48 1504.35C1496.66 1512.4 1495.09 1519.26 1495.79 1524.93C1496.5 1530.61 1499.48 1534.7 1504.76 1537.22C1510.3 1539.85 1515.96 1539.1 1521.73 1534.97C1527.5 1530.83 1533.15 1522.96 1538.67 1511.34C1542.56 1503.16 1545.36 1494.46 1547.08 1485.24C1548.79 1476.02 1549.02 1467.63 1547.76 1460.07L1576.62 1461.66V1461.66Z" fill="#1F1A17"/>
<path fill-rule="evenodd" clip-rule="evenodd" d="M1358.75 1589.53C1367.98 1570.13 1379.93 1557.24 1394.61 1550.87C1409.29 1544.5 1425.22 1545.4 1442.37 1553.55C1458.61 1561.28 1469.01 1572.25 1473.56 1586.48C1478.13 1600.71 1476.21 1616.66 1467.8 1634.35C1465.03 1640.16 1461.76 1645.52 1457.96 1650.43C1454.17 1655.34 1449.38 1660.31 1443.6 1665.33L1484.98 1685L1469.91 1716.68L1387.95 1677.7C1369.34 1668.85 1357.48 1656.86 1352.38 1641.73C1347.27 1626.6 1349.4 1609.2 1358.75 1589.53V1589.53ZM1441 1628.41C1445.46 1619.03 1446.52 1610.68 1444.19 1603.34C1441.85 1596 1436.33 1590.25 1427.62 1586.11C1418.77 1581.91 1410.7 1581.18 1403.4 1583.94C1396.11 1586.7 1390.32 1592.57 1386.05 1601.54C1381.6 1610.91 1380.84 1619.49 1383.77 1627.28C1386.7 1635.07 1393.05 1641.29 1402.81 1645.93L1418.26 1653.27C1422.91 1650.63 1427.24 1647.15 1431.24 1642.82C1435.24 1638.49 1438.49 1633.69 1441 1628.41V1628.41Z" fill="#1F1A17"/>
<path fill-rule="evenodd" clip-rule="evenodd" d="M1429.87 1807.02C1423.03 1821.4 1413.76 1832.9 1402.06 1841.49C1390.37 1850.1 1377.52 1855.07 1363.53 1856.43C1349.53 1857.78 1335.73 1855.23 1322.14 1848.76C1308.55 1842.3 1297.86 1833.21 1290.08 1821.5C1282.29 1809.78 1278.05 1796.68 1277.34 1782.18C1276.63 1767.68 1279.69 1753.23 1286.53 1738.85C1293.37 1724.46 1302.63 1713 1314.29 1704.47C1325.95 1695.93 1338.8 1690.96 1352.83 1689.54C1366.86 1688.11 1380.67 1690.63 1394.26 1697.1C1407.86 1703.57 1418.53 1712.69 1426.28 1724.47C1434.03 1736.25 1438.28 1749.35 1439.02 1763.78C1439.76 1778.22 1436.71 1792.63 1429.87 1807.02V1807.02ZM1402.55 1794.02C1406.44 1785.84 1408.07 1777.55 1407.45 1769.17C1406.83 1760.78 1404.04 1753.1 1399.1 1746.14C1394.16 1739.17 1387.4 1733.65 1378.82 1729.57C1370.24 1725.49 1361.69 1723.73 1353.17 1724.29C1344.65 1724.85 1336.94 1727.54 1330.04 1732.35C1323.14 1737.16 1317.75 1743.66 1313.86 1751.84C1309.96 1760.03 1308.33 1768.31 1308.95 1776.7C1309.57 1785.09 1312.36 1792.76 1317.3 1799.73C1322.24 1806.69 1329 1812.21 1337.58 1816.29C1346.16 1820.37 1354.71 1822.13 1363.23 1821.57C1371.75 1821.01 1379.46 1818.32 1386.36 1813.51C1393.26 1808.7 1398.66 1802.21 1402.55 1794.02Z" fill="#1F1A17"/>
<path fill-rule="evenodd" clip-rule="evenodd" d="M1207.7 1910.75L1263.32 1902L1235 1853.33L1252.89 1815.72L1297.28 1893.39L1393.26 1877.86L1375.28 1915.68L1314 1926.11L1344.78 1979.83L1327.17 2016.85L1279.83 1933.65L1190.09 1947.78L1207.7 1910.75Z" fill="#1F1A17"/>
<path fill-rule="evenodd" clip-rule="evenodd" d="M1122.99 2065.92C1110.94 2091.26 1094.75 2099.26 1074.44 2089.92L1084.89 2067.95C1094.65 2072.26 1102.07 2069.08 1107.15 2058.39C1109.66 2053.11 1110.36 2048.5 1109.23 2044.57C1108.11 2040.63 1105.2 2037.47 1100.51 2035.08L1110.97 2013.1C1120.8 2017.94 1126.79 2024.75 1128.92 2033.54C1131.06 2042.32 1129.08 2053.12 1122.99 2065.92Z" fill="#1F1A17"/>
<path fill-rule="evenodd" clip-rule="evenodd" d="M1161.18 2008.58L1299.77 2074.49L1284.98 2105.57L1268.16 2097.57C1276.44 2113.16 1276.18 2130.2 1267.4 2148.68C1259.61 2165.04 1248.36 2175.35 1233.64 2179.6C1218.92 2183.84 1201.99 2181.42 1182.85 2172.31L1101.68 2133.71L1116.93 2101.64L1197.11 2139.77C1208.2 2145.04 1217.79 2146.4 1225.87 2143.86C1233.96 2141.31 1240.14 2135.55 1244.41 2126.57C1248.99 2116.94 1249.66 2107.79 1246.42 2099.13C1243.17 2090.46 1235.68 2083.34 1223.93 2077.75L1145.93 2040.65L1161.18 2008.58V2008.58Z" fill="#1F1A17"/>
<path fill-rule="evenodd" clip-rule="evenodd" d="M1199.75 2290.94C1192.91 2305.33 1183.64 2316.82 1171.94 2325.42C1160.25 2334.02 1147.4 2339 1133.4 2340.35C1119.41 2341.71 1105.61 2339.15 1092.02 2332.69C1078.43 2326.22 1067.74 2317.13 1059.96 2305.42C1052.17 2293.71 1047.93 2280.6 1047.22 2266.1C1046.51 2251.6 1049.57 2237.16 1056.41 2222.77C1063.25 2208.39 1072.51 2196.93 1084.17 2188.39C1095.83 2179.86 1108.68 2174.88 1122.71 2173.46C1136.74 2172.04 1150.54 2174.56 1164.14 2181.03C1177.73 2187.49 1188.41 2196.61 1196.16 2208.39C1203.91 2220.17 1208.16 2233.28 1208.9 2247.71C1209.64 2262.14 1206.59 2276.55 1199.75 2290.94V2290.94ZM1172.43 2277.95C1176.32 2269.77 1177.95 2261.48 1177.33 2253.09C1176.71 2244.7 1173.92 2237.02 1168.98 2230.06C1164.04 2223.1 1157.28 2217.58 1148.7 2213.5C1140.12 2209.42 1131.57 2207.66 1123.05 2208.22C1114.53 2208.78 1106.82 2211.46 1099.92 2216.27C1093.02 2221.08 1087.63 2227.58 1083.74 2235.77C1079.84 2243.95 1078.21 2252.23 1078.83 2260.62C1079.45 2269.01 1082.24 2276.69 1087.18 2283.65C1092.12 2290.61 1098.88 2296.14 1107.46 2300.22C1116.04 2304.3 1124.59 2306.06 1133.11 2305.49C1141.63 2304.94 1149.34 2302.25 1156.24 2297.44C1163.14 2292.63 1168.54 2286.13 1172.43 2277.95Z" fill="#1F1A17"/>
<path fill-rule="evenodd" clip-rule="evenodd" d="M1014.86 2316.27L1153.45 2382.18L1138.2 2414.26L1081.37 2387.23L1051.44 2450.19L1108.25 2477.22L1093 2509.29L954.419 2443.38L969.671 2411.31L1024.31 2437.3L1054.25 2374.34L999.612 2348.35L1014.86 2316.27Z" fill="#1F1A17"/>
<path fill-rule="evenodd" clip-rule="evenodd" d="M941.938 2469.63L1080.52 2535.53L1065.27 2567.61L1008.45 2540.58L978.512 2603.55L1035.33 2630.57L1020.08 2662.64L881.495 2596.73L896.747 2564.66L951.391 2590.65L981.331 2527.69L926.688 2501.7L941.938 2469.63Z" fill="#1F1A17"/>
<path fill-rule="evenodd" clip-rule="evenodd" d="M1002.88 2668.19C1004.23 2676.92 1003.79 2686.87 1001.56 2698.03C999.325 2709.18 995.539 2720.37 990.205 2731.59C983.551 2745.58 976.153 2756.63 968.013 2764.73C959.869 2772.84 951.473 2777.91 942.817 2779.94C934.162 2781.98 925.81 2781.08 917.759 2777.25C910.366 2773.74 904.808 2768.58 901.08 2761.79C897.346 2755 895.793 2747.38 896.409 2738.94C890.933 2742.97 884.98 2745.28 878.554 2745.86C872.124 2746.44 865.807 2745.26 859.606 2742.31C852.084 2738.73 846.317 2733.16 842.312 2725.59C838.303 2718.02 836.682 2708.67 837.443 2697.54C838.204 2686.41 841.818 2674.05 848.281 2660.46C852.551 2651.48 857.615 2643.12 863.473 2635.39C869.337 2627.66 875.293 2621.35 881.341 2616.46L901.654 2637.04C890.202 2646.49 881.246 2658 874.781 2671.6C869.886 2681.9 867.749 2690.39 868.373 2697.08C868.994 2703.77 871.945 2708.37 877.224 2710.88C882.109 2713.2 886.668 2713.22 890.903 2710.95C895.141 2708.68 898.954 2703.98 902.345 2696.85L920.327 2659.03L945.668 2671.08L926.745 2710.88C922.914 2718.93 921.351 2725.79 922.052 2731.47C922.753 2737.14 925.743 2741.24 931.023 2743.75C936.563 2746.38 942.223 2745.63 947.99 2741.5C953.759 2737.37 959.407 2729.49 964.93 2717.87C968.82 2709.69 971.624 2700.99 973.337 2691.77C975.052 2682.55 975.278 2674.16 974.018 2666.6L1002.88 2668.19Z" fill="#1F1A17"/>
<path fill-rule="evenodd" clip-rule="evenodd" d="M934.583 2842.44L851.537 2803.18L900.444 2876.45L893.665 2890.71L807.55 2899.76L888.92 2938.46L874.61 2968.55L736.026 2902.65L748.641 2876.12L859.43 2865.2L797.6 2773.16L810.215 2746.63L948.895 2812.34L934.583 2842.44Z" fill="#1F1A17"/>
<path fill-rule="evenodd" clip-rule="evenodd" d="M857.406 2974.1C858.756 2982.84 858.319 2992.78 856.086 3003.94C853.854 3015.1 850.071 3026.29 844.737 3037.51C838.082 3051.5 830.685 3062.54 822.542 3070.65C814.401 3078.75 806.002 3083.82 797.347 3085.86C788.694 3087.89 780.339 3086.99 772.291 3083.16C764.898 3079.65 759.338 3074.49 755.609 3067.7C751.878 3060.91 750.322 3053.3 750.938 3044.85C745.462 3048.88 739.511 3051.19 733.083 3051.77C726.655 3052.36 720.337 3051.18 714.135 3048.22C706.613 3044.65 700.846 3039.07 696.842 3031.5C692.835 3023.93 691.214 3014.58 691.972 3003.45C692.733 2992.32 696.347 2979.96 702.812 2966.37C707.08 2957.39 712.146 2949.04 718.005 2941.31C723.866 2933.57 729.822 2927.26 735.872 2922.37L756.183 2942.96C744.734 2952.4 735.775 2963.92 729.313 2977.51C724.416 2987.81 722.278 2996.3 722.902 3002.99C723.523 3009.68 726.474 3014.28 731.754 3016.79C736.638 3019.11 741.199 3019.14 745.435 3016.86C749.673 3014.59 753.486 3009.89 756.874 3002.76L774.858 2964.95L800.2 2977L781.274 3016.79C777.446 3024.84 775.882 3031.71 776.583 3037.38C777.284 3043.05 780.272 3047.15 785.552 3049.66C791.095 3052.3 796.752 3051.55 802.519 3047.41C808.289 3043.28 813.936 3035.4 819.459 3023.79C823.352 3015.6 826.154 3006.9 827.869 2997.68C829.581 2988.46 829.808 2980.07 828.547 2972.51L857.406 2974.1V2974.1Z" fill="#1F1A17"/>
<path fill-rule="evenodd" clip-rule="evenodd" d="M639.54 3101.98C648.767 3082.57 660.719 3069.68 675.402 3063.32C690.082 3056.94 706.003 3057.84 723.16 3066C739.394 3073.72 749.794 3084.69 754.356 3098.92C758.919 3113.15 756.995 3129.11 748.584 3146.79C745.822 3152.6 742.543 3157.96 738.753 3162.87C734.96 3167.79 730.172 3172.75 724.385 3177.77L765.765 3197.45L750.702 3229.13L668.738 3190.15C650.127 3181.3 638.27 3169.31 633.167 3154.17C628.064 3139.04 630.189 3121.64 639.54 3101.98V3101.98ZM721.795 3140.85C726.25 3131.48 727.311 3123.12 724.977 3115.78C722.643 3108.44 717.12 3102.7 708.41 3098.56C699.563 3094.35 691.494 3093.63 684.194 3096.39C676.893 3099.14 671.109 3105.01 666.841 3113.99C662.384 3123.36 661.624 3131.94 664.554 3139.73C667.487 3147.51 673.838 3153.73 683.602 3158.37L699.046 3165.72C703.699 3163.08 708.027 3159.59 712.029 3155.27C716.031 3150.93 719.285 3146.13 721.795 3140.85V3140.85Z" fill="#1F1A17"/>
<path fill-rule="evenodd" clip-rule="evenodd" d="M659.367 3234.87C665.892 3227.61 673.061 3223.09 680.868 3221.3C688.678 3219.51 696.742 3220.59 705.057 3224.55C717.331 3230.39 724.689 3239.59 727.125 3252.16C729.563 3264.73 726.672 3279.66 718.45 3296.95L685.969 3365.26L547.383 3299.35L578.074 3234.8C585.732 3218.7 594.798 3207.64 605.268 3201.61C615.74 3195.59 626.717 3195.3 638.198 3200.76C645.064 3204.03 650.286 3208.61 653.868 3214.53C657.45 3220.44 659.282 3227.22 659.367 3234.87V3234.87ZM694.127 3286.84C701.283 3271.79 698.922 3261.44 687.043 3255.79C675.559 3250.33 666.24 3255.13 659.083 3270.17L642.325 3305.42L677.368 3322.08L694.127 3286.84V3286.84ZM619.953 3294.78L634.169 3264.88C637.497 3257.88 638.589 3251.93 637.445 3247.02C636.302 3242.1 632.958 3238.33 627.418 3235.69C622.004 3233.12 616.985 3232.96 612.357 3235.2C607.726 3237.45 603.779 3242.01 600.512 3248.87L586.297 3278.77L619.953 3294.78V3294.78Z" fill="#1F1A17"/>
<path fill-rule="evenodd" clip-rule="evenodd" d="M644.512 3458.56C637.671 3472.95 628.402 3484.44 616.707 3493.04C605.012 3501.64 592.166 3506.62 578.171 3507.97C564.174 3509.32 550.378 3506.77 536.784 3500.31C523.189 3493.84 512.503 3484.75 504.721 3473.04C496.938 3461.33 492.692 3448.22 491.981 3433.72C491.27 3419.22 494.335 3404.78 501.176 3390.39C508.017 3376 517.271 3364.54 528.934 3356.01C540.597 3347.48 553.443 3342.5 567.47 3341.08C581.499 3339.66 595.31 3342.18 608.904 3348.65C622.499 3355.11 633.17 3364.23 640.92 3376.01C648.671 3387.79 652.919 3400.89 653.662 3415.33C654.403 3429.76 651.353 3444.17 644.512 3458.56V3458.56ZM617.194 3445.57C621.084 3437.38 622.717 3429.1 622.094 3420.71C621.47 3412.32 618.688 3404.64 613.746 3397.68C608.802 3390.72 602.044 3385.19 593.463 3381.12C584.882 3377.03 576.334 3375.28 567.815 3375.84C559.294 3376.4 551.584 3379.08 544.683 3383.89C537.783 3388.7 532.389 3395.2 528.499 3403.38C524.606 3411.57 522.971 3419.85 523.595 3428.24C524.218 3436.63 527 3444.31 531.944 3451.27C536.886 3458.23 543.644 3463.76 552.225 3467.84C560.806 3471.92 569.354 3473.67 577.875 3473.11C586.394 3472.55 594.104 3469.87 601.005 3465.06C607.905 3460.25 613.302 3453.75 617.194 3445.57V3445.57Z" fill="#1F1A17"/>
<path fill-rule="evenodd" clip-rule="evenodd" d="M581.285 3591.52C574.569 3605.64 565.426 3616.95 553.863 3625.45C542.294 3633.95 529.515 3638.88 515.518 3640.23C501.524 3641.59 487.663 3639 473.935 3632.47C460.209 3625.94 449.456 3616.83 441.673 3605.11C433.89 3593.4 429.647 3580.37 428.938 3566.04C428.23 3551.71 431.265 3537.41 438.044 3523.15C443.756 3511.14 451.031 3501.29 459.866 3493.6C468.705 3485.9 478.65 3480.64 489.709 3477.81L498.924 3507.44C483.642 3511.66 472.709 3520.7 466.12 3534.56C462.038 3543.14 460.278 3551.69 460.838 3560.21C461.399 3568.73 464.151 3576.47 469.095 3583.44C474.034 3590.4 480.795 3595.92 489.376 3600C497.954 3604.09 506.505 3605.84 515.026 3605.28C523.545 3604.72 531.285 3601.97 538.248 3597.03C545.213 3592.09 550.733 3585.32 554.812 3576.74C561.405 3562.89 561.449 3548.67 554.949 3534.08L583.749 3522.53C588.66 3532.96 590.908 3544.06 590.485 3555.84C590.065 3567.62 586.997 3579.51 581.285 3591.52V3591.52Z" fill="#1F1A17"/>
<path fill-rule="evenodd" clip-rule="evenodd" d="M374.034 3663.89L512.62 3729.79L497.556 3761.47L460.733 3743.96L446.798 3773.26L471.948 3815.32L455.846 3849.18L427.82 3800.41C419.535 3807.96 410.342 3812.41 400.236 3813.75C390.129 3815.1 379.664 3813.19 368.841 3808.05C358.15 3802.96 350.104 3796.14 344.707 3787.59C339.308 3779.03 336.663 3769.27 336.773 3758.32C336.885 3747.37 339.828 3735.82 345.602 3723.68L374.034 3663.89V3663.89ZM372.112 3735.31C367.782 3744.42 366.581 3752.39 368.513 3759.22C370.444 3766.04 375.57 3771.43 383.885 3775.39C391.936 3779.21 399.236 3779.86 405.791 3777.31C412.343 3774.76 417.752 3768.99 422.02 3760.02L435.391 3731.91L385.105 3707.99L372.112 3735.31Z" fill="#1F1A17"/>
<path fill-rule="evenodd" clip-rule="evenodd" d="M309.396 3799.81L447.982 3865.72L433.199 3896.81L416.373 3888.8C424.656 3904.4 424.402 3921.43 415.615 3939.91C407.832 3956.28 396.582 3966.59 381.857 3970.83C367.134 3975.08 350.204 3972.65 331.066 3963.55L249.893 3924.94L265.145 3892.87L345.327 3931C356.415 3936.27 366 3937.64 374.089 3935.09C382.177 3932.55 388.359 3926.79 392.627 3917.81C397.208 3908.17 397.877 3899.02 394.633 3890.36C391.392 3881.7 383.892 3874.57 372.147 3868.99L294.143 3831.89L309.396 3799.81V3799.81Z" fill="#1F1A17"/>
<path fill-rule="evenodd" clip-rule="evenodd" d="M356.928 3989.82L411.767 4015.9L397.646 4045.6L368.939 4031.94L320.736 4133.31L349.441 4146.97L335.317 4176.67L280.571 4150.39L288.481 4133.75L236.612 4109.09C223.281 4102.75 213.151 4094.69 206.226 4084.92C199.299 4075.16 195.672 4064.33 195.336 4052.43C195.006 4040.54 197.852 4028.26 203.875 4015.59C209.903 4002.92 217.633 3992.96 227.066 3985.71C236.5 3978.46 247.191 3974.45 259.137 3973.65C271.086 3972.86 283.723 3975.64 297.057 3981.98L348.924 4006.65L356.928 3989.82V3989.82ZM333.579 4038.92L278.938 4012.93C268.116 4007.79 258.628 4006.63 250.482 4009.47C242.331 4012.31 235.906 4018.68 231.198 4028.59C226.552 4038.35 225.667 4047.36 228.545 4055.6C231.419 4063.85 238.27 4070.55 249.092 4075.69L303.733 4101.68L333.579 4038.92Z" fill="#1F1A17"/>
<path fill-rule="evenodd" clip-rule="evenodd" d="M162.984 4107.71L258.212 4153C279.065 4162.91 292.306 4176.33 297.936 4193.25C303.566 4210.17 301.516 4228.86 291.787 4249.32C286.201 4261.07 279.47 4271.06 271.59 4279.28C263.713 4287.52 255.172 4293.65 245.967 4297.69L228.14 4273.92C244.27 4266.21 256.315 4253.98 264.287 4237.21C269.81 4225.6 270.969 4215.59 267.765 4207.18C264.558 4198.78 256.818 4191.66 244.543 4185.82L236.032 4181.78C242.987 4196.41 242.448 4212.18 234.414 4229.07C226.067 4246.63 214.667 4257.76 200.215 4262.45C185.761 4267.15 169.164 4265.05 150.424 4256.13L103.104 4233.63L118.356 4201.56L163.695 4223.12C174.518 4228.26 183.924 4229.58 191.916 4227.07C199.907 4224.56 206.131 4218.62 210.588 4209.25C215.296 4199.35 216.124 4190.11 213.079 4181.54C210.034 4172.97 202.636 4165.89 190.891 4160.31L147.732 4139.78L162.984 4107.71V4107.71Z" fill="#1F1A17"/>
<path fill-rule="evenodd" clip-rule="evenodd" d="M133.007 4270.8C120.494 4279.42 110.014 4290.06 101.57 4302.71L214.615 4356.47L199.366 4388.54L86.3177 4334.78C81.8335 4349.32 80.1681 4364.23 81.3165 4379.5L52.1864 4379C51.0305 4366.8 51.6345 4354.46 54.0034 4341.99C56.3723 4329.52 60.3495 4317.41 65.9373 4305.67C71.5849 4293.79 78.5151 4282.96 86.7204 4273.19C94.9282 4263.42 104.098 4255.2 114.23 4248.52L133.007 4270.8V4270.8Z" fill="#1F1A17"/>
<path fill-rule="evenodd" clip-rule="evenodd" d="M152.447 4493.33C145.731 4507.46 136.589 4518.77 125.025 4527.26C113.457 4535.76 100.678 4540.69 86.6805 4542.05C72.6859 4543.4 58.8255 4540.81 45.0969 4534.29C31.3708 4527.76 20.6176 4518.64 12.8349 4506.93C5.05209 4495.21 0.808977 4482.19 0.100549 4467.85C-0.60788 4453.52 2.42718 4439.22 9.20572 4424.97C14.9179 4412.95 22.1936 4403.1 31.0278 4395.41C39.867 4387.72 49.8124 4382.45 60.8713 4379.62L70.0858 4409.25C54.8037 4413.48 43.8715 4422.52 37.2819 4436.38C33.2003 4444.96 31.4404 4453.51 31.9997 4462.03C32.5615 4470.55 35.3132 4478.29 40.2573 4485.25C45.1964 4492.22 51.9575 4497.74 60.5382 4501.82C69.1164 4505.9 77.6673 4507.66 86.1883 4507.1C94.7068 4506.53 102.447 4503.78 109.41 4498.84C116.375 4493.9 121.896 4487.14 125.975 4478.56C132.567 4464.7 132.611 4450.48 126.111 4435.9L154.911 4424.34C159.823 4434.77 162.07 4445.88 161.647 4457.65C161.227 4469.43 158.16 4481.32 152.447 4493.33V4493.33Z" fill="#1F1A17"/>
<path fill-rule="evenodd" clip-rule="evenodd" d="M2759.92 608.633C2762.08 607.203 2763.79 605.54 2763.92 602.197C2672.55 601.22 2538.99 660.962 2499.41 735.759C2490.78 741.651 2503.52 821.542 2483.38 1032.15C2475.97 1147.58 2479.74 1265.26 2475.29 1283.69C2468.92 1324.47 2445.7 1368.37 2440.14 1388.93C2416.19 1453.34 2423.89 1500.49 2412.68 1562.43C2399.8 1609.58 2396.37 1595.25 2385.96 1635.81L2259.15 1634.99C2233.79 1631.02 2215.39 1593.67 2168.51 1596.14C2166.59 1591.83 2140.01 1643.83 2125.76 1667.67C2112.26 1666.88 2103.19 1662.81 2088.97 1662.53C2083.22 1682.06 2091.9 1697.55 2094.52 1710.01C2098.36 1728.23 2098.01 1738.22 2089.18 1751.94C2078.96 1767.82 2074.14 1786.74 2075.61 1809.9C1970.87 1808.05 1930.71 1823.13 1899.27 1860.46C1934.85 1843.75 1959.75 1843.06 1971.21 1862.52C1920.38 1968.85 1889.52 1956.79 1882.01 2075.87C1903.8 2003.13 1933.38 1961.56 1971.62 1954.6C1963.49 2073.01 1966.33 2146.56 1982.31 2166.3C1981.12 2092.63 1994.01 2043.73 2024.23 2024.89C2032.28 2019.88 2047.32 2023.83 2046.43 2034.55C2045.12 2050.39 2052.75 2056.89 2061.23 2057.78H2117.54C1946.09 2284.34 1924.26 2325.56 1879.96 2399.79C1859.27 2438.98 1831.18 2458.44 1806.79 2487.76C1789.24 2508.11 1778.03 2532.91 1771.44 2560.93C1763.1 2607.29 1735.52 2631.44 1703 2683.54C1700.01 2688.33 1701.35 2700.96 1708.14 2696.18C1749.63 2659.23 1764.84 2631.71 1784.18 2635.75C1785.35 2676.38 1783.63 2684.94 1788.29 2721.25C1793.29 2736.05 1799.59 2736.92 1803.36 2730.55L1815.01 2656.71C1827.23 2651.64 1843.61 2682.29 1871.33 2712.21C1875.91 2717.62 1878.39 2715.44 1877.49 2701.11C1865.34 2669.38 1846.15 2650.42 1824.47 2620.54C1822.7 2606.16 1822.54 2593.4 1825.7 2583.95C1849.45 2567.7 1842.44 2564.82 1860.02 2556.21C1857.02 2586.99 1856.1 2609.3 1860.02 2638.21C1861.59 2649.83 1878.42 2633.32 1887.36 2608.21C1890.1 2576.21 1884.62 2547.71 1888.18 2514.07C1910.92 2437.61 1962.03 2417.47 2002.04 2369.79C2080 2291.54 2119.74 2211.25 2198.94 2148.62C2211.35 2184.62 2208.1 2218 2191.54 2247.7C2158.86 2306.28 2138.79 2342.7 2144.26 2370.2C2149.88 2335.15 2199.49 2267.95 2234.7 2260.44C2241.51 2263.22 2240.32 2266.12 2243.74 2280.17C2251.66 2312.65 2267.61 2336.87 2288.55 2353.75C2318 2378.97 2348.08 2396.37 2376.92 2429.39C2353.01 2392.26 2322.61 2368.45 2299.64 2334.02C2279.67 2304.07 2270.56 2289.52 2281.15 2250.98C2359.79 2306.94 2394.95 2361.26 2488.73 2356.63C2376.72 2332.31 2310.94 2256.54 2314.44 2184.8C2335.4 2222.91 2371.72 2230.28 2420.08 2213.57C2336.75 2208.95 2308.71 2156.95 2329.24 2052.02C2357.38 2145.26 2426.87 2177.23 2514.21 2182.75C2432.3 2153.25 2375.03 2111.77 2380.21 1952.54C2381.06 1938.73 2388.4 1932.22 2402.41 1932.4L2517.51 1933.91C2637.73 1935.48 2688.25 1997.65 2670.62 2086.86C2648.32 2199.62 2632.8 2283.69 2674.32 2316.35C2698.26 2341.92 2722.96 2366.22 2745.23 2392.81C2753.35 2402.68 2753.38 2416.27 2749.55 2434.12C2730.36 2523.59 2734.09 2607.5 2744.62 2701.33C2742.04 2773.84 2725.4 2835.07 2708.45 2890.42C2695.67 2932.13 2686.9 2949.24 2682.55 2988.26C2676.75 3040.27 2703.11 3152.14 2705.98 3288.35C2708.49 3405.31 2665.13 3390.42 2655.83 3423.59C2643.76 3466.67 2670.67 3497.24 2703.11 3525.54C2728.41 3547.62 2736.01 3569.83 2750.79 3622.14C2759.87 3654.3 2776 3672.5 2798.47 3672.3L2888.08 3671.48C2889.46 3645.04 2875.94 3633.64 2843.28 3627.9C2830.6 3625.68 2821.66 3614.24 2814.35 3593.03C2828.11 3514.55 2828.38 3436.24 2817.28 3358.74C2816.94 3330.85 2818.07 3301.2 2820.52 3269.31C2826.66 3189.59 2843.89 3111.82 2845.45 3028.23C2846.69 2961.62 2849.58 2929.45 2881.62 2863.79C2916.71 2801.41 2933.4 2746.4 2930.13 2699.36C2985.87 2662.82 3041.77 2626.75 3086.17 2579.95C3114.77 2549.81 3129.94 2511.69 3150.45 2483.96C3281.36 2376.04 3440.47 2185.46 3467.79 2106.6C3498.33 2050.06 3459.29 1989.27 3405.42 1977.95C3356.93 1970.93 3243.94 1979.25 3050.98 2026.85C3026.71 2032.83 3002.75 2035.57 2978.64 2033.42C2840.6 1765.63 2747.82 1610.59 2636.64 1626.46C2608.82 1608.35 2585.82 1582.09 2566.77 1549.18C2567.32 1425.31 2567.86 1301.44 2568.41 1177.57C2591.35 1060.27 2574.32 952.151 2561.63 833.493C2562.18 811.295 2560.47 789.509 2561.01 767.31C2585.54 762.816 2608.28 755.36 2631.71 744.288L2697.56 761.033C2720.1 766.761 2726.99 743.103 2708.24 734.116L2662.54 712.226V701.539C2751.26 703.799 2777.48 690.577 2778.87 690.44C2801.38 684.434 2787.57 673.079 2774.86 672.559L2709.4 669.887L2774.35 647.278C2786.5 641.001 2786.58 636.293 2773.53 633.3H2707.55C2704.13 633.3 2701.95 630.14 2707.91 628.112L2744.29 615.75C2749.74 613.898 2754.97 611.904 2759.92 608.633V608.633Z" fill="#1F1A17"/>
<path fill-rule="evenodd" clip-rule="evenodd" d="M2994.07 498.623L3084.09 529.043L3169.59 491.226L3171.23 583.307L3239.06 650.723L3152.74 676.208L3110.81 756.78L3051.62 680.32L2955.43 664.289L3010.1 595.227L2994.07 498.623Z" fill="#1F1A17"/>
<path fill-rule="evenodd" clip-rule="evenodd" d="M3638.59 4117.96C3741.49 4210.6 3724.78 4204.97 3825.21 4299.66L3827.65 4299.49V4207.3L3825.21 4206.76C3762.54 4196.98 3708.53 4144.87 3638.59 4117.96ZM3903.73 4294.05L3905.78 4293.91C3920.47 4264.69 3922.47 4240.64 3903.73 4225.02V4294.05Z" fill="#C82C39"/>
<path fill-rule="evenodd" clip-rule="evenodd" d="M3551.45 1801.32L3580.22 1745.41L3639.42 1727.33L3594.61 1682.11L3592.56 1619.62L3536.65 1645.52L3473.35 1624.97L3484.86 1686.22L3448.28 1736.78L3509.94 1748.29L3551.45 1801.32Z" fill="#1F1A17"/>
<path fill-rule="evenodd" clip-rule="evenodd" d="M3133.83 1524.25L3141.43 1557.96L3120.67 1583.86L3156.43 1589L3175.55 1617.36L3189.52 1587.76L3219.94 1580.36L3195.48 1555.91L3196.72 1519.94L3168.15 1538.02L3133.83 1524.25Z" fill="#1F1A17"/>
<path fill-rule="evenodd" clip-rule="evenodd" d="M3353.87 5239.76L3575.22 4745.16C3577.56 4739.93 3580.87 4734.21 3585.93 4734.17L3600.29 4734.07C3607.3 4734.02 3609.84 4738.62 3612.01 4743.51L3832.13 5242.25C3837.54 5254.5 3832.07 5265.78 3820.32 5265.78H3768.01C3764.75 5265.78 3760.76 5264.15 3758.24 5258.49L3687.75 5100.02H3499.4L3429.99 5255.6C3427.31 5261.61 3424.09 5264.23 3418.99 5264.23H3362.68C3349.06 5264.23 3350.29 5247.76 3353.87 5239.76V5239.76ZM3537.5 5014.5L3589.7 4896.11C3591.7 4891.59 3596.12 4891.51 3598.13 4896.11L3649.62 5014.09C3652.35 5020.33 3650.83 5023.13 3645.72 5023.13H3540.08C3534.72 5023.13 3534.98 5020.21 3537.5 5014.5Z" fill="#1F1A17"/>
<path fill-rule="evenodd" clip-rule="evenodd" d="M2926.26 5253.83V4745.89C2926.26 4739.85 2931.09 4734.28 2938.28 4734.28H2989C2994.85 4734.28 3000.71 4739.86 3000.71 4745.69V5183.16C3000.71 5188.03 3003.1 5189.6 3007.15 5189.6H3187.05C3189.74 5189.6 3190.83 5187.95 3190.83 5185.37V4746.72C3190.83 4737.99 3196.74 4733.81 3205.52 4733.81H3253.98C3261.1 4733.81 3267.1 4738.38 3267.1 4744.87V5185C3267.1 5188.04 3268.66 5189.6 3271.69 5189.6H3337.43C3343.3 5189.6 3347 5193.02 3347 5199.17V5328.98C3347 5335.27 3342.9 5339.98 3336 5339.98H3289.61C3282.5 5339.98 3276.14 5333.19 3276.14 5325.33V5267.68C3276.14 5264.14 3274.16 5262.96 3271.42 5262.96H2938.27C2930.88 5262.96 2926.26 5260.95 2926.26 5253.83Z" fill="#1F1A17"/>
<path fill-rule="evenodd" clip-rule="evenodd" d="M2475.36 4747.29C2475.36 4737.86 2481.69 4733.21 2489.54 4733.21H2537.84C2546.05 4733.21 2550.99 4739.15 2550.99 4747.09V4938.9C2550.99 4941.54 2552.15 4943.02 2555.11 4943.02C2624.21 4943.02 2693.31 4942.9 2762.41 4943.02C2764.86 4943.02 2766.34 4941.91 2766.34 4939.09V4746.25C2766.34 4738.33 2771.02 4734.13 2778.46 4734.13H2827.99C2834.44 4734.13 2838.73 4740.24 2838.73 4746.41V5253.11C2838.73 5260.52 2834.64 5264.09 2827.74 5264.09H2776.21C2768.57 5264.09 2765.07 5260.9 2765.07 5252.95V5027.48C2765.07 5023.7 2763.3 5022.55 2760.14 5022.55H2554.83C2551.78 5022.55 2550.76 5023.31 2550.76 5026.21V5253.39C2550.76 5259.23 2545.54 5264.14 2539.34 5264.14H2489.12C2481.97 5264.14 2475.63 5258.53 2475.63 5250.49L2475.36 4747.29V4747.29Z" fill="#1F1A17"/>
<path fill-rule="evenodd" clip-rule="evenodd" d="M1950.44 5239.46L2171.79 4744.85C2174.13 4739.62 2177.44 4733.9 2182.5 4733.87L2196.87 4733.76C2203.87 4733.71 2206.42 4738.31 2208.58 4743.21L2428.7 5241.94C2434.11 5254.19 2428.64 5265.48 2416.89 5265.48H2364.58C2361.32 5265.48 2357.33 5263.84 2354.81 5258.18L2284.32 5099.71H2096.85L2026.56 5255.3C2023.85 5261.29 2020.67 5263.93 2015.56 5263.93H1959.25C1945.63 5263.93 1946.86 5247.45 1950.44 5239.46V5239.46ZM2134.07 5014.19L2186.27 4895.8C2188.27 4891.28 2192.69 4891.21 2194.7 4895.8L2246.19 5013.78C2248.92 5020.02 2247.4 5022.82 2242.29 5022.82H2136.65C2131.29 5022.82 2131.55 5019.9 2134.07 5014.19Z" fill="#1F1A17"/>
<path fill-rule="evenodd" clip-rule="evenodd" d="M3032.46 4313.88L3028.49 4317.13C3007.79 4339.93 2995.16 4353.69 2981.63 4357.41C2962.34 4361.45 2954.04 4351.46 2954.5 4330.28C2972.2 4298.5 2986.07 4275.67 2997.82 4257.8C3007.25 4278 3018.91 4296.81 3032.46 4313.88V4313.88Z" fill="#C82C39"/>
<path fill-rule="evenodd" clip-rule="evenodd" d="M3349.41 4384.58L3349.93 4387.01C3320.83 4435.82 3288.04 4445.62 3251.28 4413.32L3250.46 4412.56C3285.8 4410.16 3319.24 4400.37 3349.41 4384.58Z" fill="#C82C39"/>
<path fill-rule="evenodd" clip-rule="evenodd" d="M2817.7 3320.11L2820.52 3269.31C2836.46 3263.7 2849.25 3267.25 2859.16 3279.18C2874.31 3258.7 2889.83 3242.24 2908.48 3235.6C2941.52 3223.85 2961.57 3238.08 2960.07 3264.78C2957.63 3308.18 2932.02 3331.82 2905.19 3363.86C2922.32 3429.9 2960 3492.66 2977.54 3559.53L2932.37 3506.88C2915.56 3479.97 2895.99 3446.49 2858.34 3420.59L2825.18 3458.61L2825.12 3459.31C2824.73 3425.67 2822.06 3392.13 2817.28 3358.74C2817.13 3346.23 2817.27 3333.37 2817.7 3320.11V3320.11Z" fill="#C82C39"/>
<path fill-rule="evenodd" clip-rule="evenodd" d="M698.676 3865.35H791.776H842.561C935.87 3869.43 1000.77 3908.68 1011.42 3998.46C1012.96 4011.52 1012.29 4024.91 1010.49 4037.93C999.223 4119.36 937.053 4169.99 853.379 4169.99H764.793V4384.16C764.793 4393.54 757.055 4402.25 748.345 4402.25H699.946C692.434 4402.25 681.927 4393.17 681.927 4383.3C681.927 4216.51 681.927 4049.71 681.927 3882.92C681.507 3874.01 688.656 3865.35 698.676 3865.35V3865.35ZM371.839 4340.23L436.786 4362.84L496.388 4334.48L499.677 4401.07L547.36 4450.4L484.469 4470.55L454.052 4526.87L411.3 4473.42L345.12 4458.21L382.115 4406.01L371.839 4340.23V4340.23ZM239.172 4442.66L88.582 4760.35C106.099 4822.48 131.704 4817.5 165.945 4787.37C189.102 4766.99 205.895 4723.23 202.788 4670.37C205.823 4669.95 214.508 4668.39 215.294 4671.41C216.581 4676.35 214.155 4692.07 214.404 4702.36C215.301 4739.41 219.967 4755.59 228.302 4774.17C234.563 4788.12 241.814 4802.39 246.82 4809.86C254.958 4822.01 263.435 4822.03 273.919 4822.8C312.96 4825.67 429.388 4675.61 492.197 4588.8C525.394 4542.91 594.425 4554.17 567.184 4616.76C529.468 4703.43 424.598 4789.92 396.569 4847.44C361.031 4920.38 421.742 4907.88 463.669 4872.4C494.387 4846.41 511.124 4826.64 530.187 4819C578.849 4799.49 610.169 4852.58 567.181 4882.65C461.844 4956.34 446.552 5021.28 532.608 5039.98C560.127 5045.96 598.385 5043.15 646.893 5039.67C648.228 5023.78 646.337 4981.74 661.437 4974.61C667.212 4971.79 677.736 4967.92 688.437 4983.44C724.609 5045.64 724.758 5116.83 746.367 5187.66C773.086 5186.29 801.858 5188.61 830.222 5198.34C843.744 5190.07 849.31 5163.6 847.485 5120.24L856.529 5121.89C859.792 5202.53 874.92 5247.06 903.394 5250.96C936.708 5254.43 998.848 5167.59 1108.92 5038.03C1128.68 5014.77 1175.82 5023.94 1164.82 5067.62C1158.08 5108.79 1078.38 5172.68 1009.44 5275.63C992.681 5310.16 1014.65 5323.59 1055.07 5304.81C1097.58 5285.07 1117.07 5250.68 1132.76 5245.21C1162.25 5234.91 1179.23 5246.65 1168.93 5283.03C1159.56 5316.12 1110.87 5333.28 1092.48 5364.42C1076.54 5391.41 1078.51 5414.53 1108.98 5429.87L1302.73 5429.5L1435.5 5373.69C1445.92 5370.43 1456.33 5370.1 1466.74 5374.51C1476.25 5379.09 1483.27 5385.68 1487.3 5394.65C1491.37 5415.96 1490.07 5427.59 1483.19 5429.16L1802.87 5428.56L2167.59 4599.26L2169 4599.26L2356.15 4599.84C2314.99 4671.3 2274.97 4747.98 2243.68 4822.73L2279.86 4904.7C2298.98 4888.4 2320.54 4866.25 2325.32 4836.82C2338.51 4755.6 2347.11 4676.67 2365.61 4602.51L2912.71 4602.1C2967.49 4673.72 3005.04 4713.18 3010.95 4716.38C3024.83 4723.89 3037.86 4726.18 3049.59 4720.9C3055.96 4718.03 3055.78 4704.47 3052.88 4686.37C3059.98 4689.58 3068.82 4691.37 3077.54 4686.16C3104.3 4670.17 3119.24 4641.45 3123.58 4603.33C3724.34 4608.06 4334 4598.98 4941.33 4579.59C4945.21 4575.39 4949.02 4571.79 4952.84 4568.19L4964.32 4556.8C4538.78 4541.44 4107.37 4536.2 3674.32 4533.73L3641.97 4534.05C3641.81 4533.88 3641.65 4533.72 3641.5 4533.55C3472.12 4532.64 3302.5 4532.12 3132.91 4531.57C3136.47 4490.64 3143.32 4468.63 3148.52 4437.16L3097.55 4531.71L2984.92 4531.3L2907.49 4400.93C2906.03 4401.66 2904.47 4402.08 2902.87 4402.08H2854.17C2846.26 4402.08 2840.54 4394.2 2840.54 4387.14V4288.2L2839.41 4286.29C2824.32 4244.23 2791.38 4206.52 2800.56 4155.57C2804.44 4134.08 2823.82 4128.96 2836.94 4130.9L2840.54 4125.76V3881.88C2840.54 3873.6 2844.63 3865.38 2855.14 3865.38H2900.53C2910.1 3865.38 2916.34 3870.83 2916.34 3881.39V4018.24C2950.69 4016.08 2973.34 4020 2978.34 4033.07C2983.72 4051.38 2978.17 4071.14 2962.77 4092.19H2973.58C2992.63 3957.97 3101.73 3855.08 3233.46 3855.08C3364.75 3855.08 3473.55 3957.27 3493.14 4090.82C3503.98 4080.41 3528.62 4078.99 3561.34 4085.26V4055.99C3538.62 4021.55 3538.93 3991.32 3559.12 3979.53L3561.34 3979.27V3880.53C3561.34 3878.16 3561.91 3875.81 3562.92 3873.69L3562.7 3873.58C3550.13 3832.67 3678.44 3806.78 3694.65 3789.72C3654.82 3794.82 3612.26 3795.17 3568.04 3792.6C3541.52 3785.15 3529.21 3767.56 3525.71 3743.68C3527.27 3709.5 3595.53 3677.06 3610.79 3640.91C3623.9 3609.82 3606.57 3593.54 3577.9 3603.91C3542.13 3616.86 3539.23 3641.42 3497.34 3669.68C3462.96 3692.88 3425.71 3666.72 3457.06 3627.75L3545.02 3518.41C3572.95 3492.64 3593.27 3463.06 3605.86 3429.62C3610.42 3396.55 3597.32 3385.4 3570.09 3391.8C3550.29 3402.03 3526.05 3425.55 3495.28 3468.67C3420.2 3569.91 3371.28 3618.86 3351 3610.49C3320.09 3601.1 3306.15 3551.11 3300.44 3481.42C3301.78 3551.63 3270.18 3595.53 3221.93 3596.52C3203.4 3592.21 3181.08 3486.84 3159.03 3398.8C3149.14 3350.2 3134.95 3329.55 3116.28 3337.96C3098.94 3342.24 3097.46 3371.48 3103.13 3411.95C3116.33 3491 3154.88 3589.94 3117.92 3627.77C3072.43 3636.35 3042.53 3617.15 3009.82 3594.88C3025.12 3627.5 3042.48 3638.87 3035.71 3674.63L2925.14 3672.58C2915.26 3657.86 2902.42 3645.36 2888.14 3633.94C2923.86 3601.22 2956.69 3574.43 2966.89 3547.12L2932.37 3506.88C2922.96 3499.97 2869.81 3538.54 2814.35 3593.03C2821.66 3614.24 2830.6 3625.68 2843.28 3627.9C2875.95 3633.64 2889.46 3645.04 2888.08 3671.48L2798.47 3672.3C2776 3672.5 2759.87 3654.3 2750.79 3622.14C2736.01 3569.83 2728.41 3547.62 2703.11 3525.54C2691.87 3515.73 2681.29 3505.65 2672.77 3494.87L2670.88 3497.05C2609.79 3550.69 2574.96 3493.02 2559.9 3351.53C2557.51 3407.16 2546.66 3447.73 2524.55 3468.28C2485.64 3443.76 2457.67 3447.02 2439.05 3474.03C2410.78 3412.6 2388.94 3226.12 2353.55 3173.94C2331.81 3153.71 2309.82 3155.3 2304.22 3187.92C2284.86 3300.87 2356.79 3395.66 2342.86 3506.92C2338.72 3560.93 2258.35 3552.12 2184.6 3495.81C2232.64 3572.74 2232.95 3650.5 2154.19 3641.75C2142.13 3639.22 2124.66 3631.29 2103.29 3619.46L2464.63 2788.43L2355.91 2739.92L1939.8 3668.45H1818.53L2338.91 2465.02L2231.22 2415.7L1671.35 3670.7L1536.94 3671.11L2186.95 2158.49C2115.53 2219.56 2075.97 2295.59 2002.04 2369.79C1962.03 2417.47 1910.92 2437.61 1888.18 2514.07C1884.62 2547.71 1890.1 2576.21 1887.36 2608.21C1878.42 2633.32 1861.59 2649.83 1860.02 2638.21C1856.1 2609.3 1857.02 2586.99 1860.02 2556.21C1842.44 2564.82 1849.45 2567.7 1825.7 2583.95C1822.54 2593.4 1822.7 2606.16 1824.47 2620.54C1846.15 2650.42 1865.34 2669.38 1877.49 2701.11C1878.39 2715.44 1875.91 2717.62 1871.33 2712.21C1843.61 2682.29 1827.23 2651.64 1815.01 2656.71L1803.36 2730.55C1799.59 2736.92 1793.29 2736.05 1788.29 2721.25C1783.63 2684.94 1785.35 2676.38 1784.18 2635.75C1764.84 2631.71 1749.63 2659.24 1708.14 2696.18C1701.35 2700.96 1700.01 2688.33 1703 2683.54C1735.52 2631.44 1763.1 2607.29 1771.44 2560.93C1778.03 2532.91 1789.24 2508.11 1806.79 2487.76C1831.18 2458.44 1859.27 2438.98 1879.96 2399.79C1924.26 2325.56 1946.09 2284.34 2117.54 2057.78H2061.23C2052.75 2056.89 2045.12 2050.39 2046.43 2034.55C2047.32 2023.83 2032.28 2019.88 2024.23 2024.89C1994.01 2043.73 1981.12 2092.63 1982.31 2166.3C1966.33 2146.56 1963.49 2073.01 1971.62 1954.6C1933.38 1961.56 1903.8 2003.14 1882.01 2075.87C1889.52 1956.79 1920.38 1968.85 1971.21 1862.52C1959.75 1843.06 1934.85 1843.75 1899.27 1860.46C1930.71 1823.13 1970.87 1808.05 2075.61 1809.9C2074.14 1786.74 2078.96 1767.82 2089.18 1751.94C2098.01 1738.22 2098.36 1728.23 2094.52 1710.01C2091.9 1697.55 2083.22 1682.06 2088.97 1662.53C2103.19 1662.81 2112.26 1666.88 2125.76 1667.67C2140.01 1643.83 2166.59 1591.83 2168.51 1596.14C2215.39 1593.67 2233.79 1631.02 2259.15 1634.99L2385.96 1635.81C2396.37 1595.25 2399.8 1609.58 2412.68 1562.43C2423.89 1500.49 2416.19 1453.34 2440.14 1388.93C2445.7 1368.37 2468.92 1324.47 2475.29 1283.69C2479.74 1265.26 2475.97 1147.58 2483.38 1032.15C2503.52 821.542 2490.78 741.651 2499.41 735.759C2538.99 660.962 2672.55 601.22 2763.92 602.197C2763.79 605.54 2762.08 607.203 2759.92 608.633C2754.97 611.904 2749.74 613.898 2744.29 615.75L2707.91 628.112C2701.95 630.14 2704.13 633.3 2707.55 633.3H2773.53C2786.58 636.293 2786.5 641.001 2774.35 647.278L2709.4 669.887L2774.86 672.559C2787.57 673.079 2801.38 684.434 2778.87 690.44C2777.48 690.577 2751.26 703.799 2662.54 701.539V712.226L2708.24 734.116C2726.99 743.103 2720.1 766.761 2697.57 761.033L2631.71 744.288C2608.28 755.36 2585.54 762.816 2561.01 767.31C2560.47 789.509 2562.18 811.295 2561.63 833.494C2574.32 952.151 2591.35 1060.27 2568.41 1177.57L2567.99 1271.79L2941.48 402.669L2505.74 386.223L2432.57 254.676L2490.53 58.5892L2282.13 103.809L2107.86 0L2077.84 201.017L1912.23 334.51L2099.77 413.945L2121.76 471.085L265.075 4388.01C310.032 4424.39 257.966 4466.03 239.172 4442.66V4442.66ZM707.301 4625.92L770.605 4646.48L828.562 4620.58L832.673 4684.3L879.121 4731.98L819.109 4752.53L788.278 4809.26L748.407 4756.23L682.228 4740.61L716.757 4691.28L707.301 4625.92V4625.92ZM1089.68 3865.26H1358.38C1371.78 3865.26 1379.14 3870.98 1379.14 3883.66V3935C1379.14 3943.89 1371.61 3951.76 1362.18 3951.76H1153.04V4070.92H1358.65C1368.08 4070.92 1375.91 4077.54 1375.91 4087.37V4142.29C1375.91 4151.29 1367.39 4157.95 1359.22 4157.95H1153.84V4316.75H1359.62C1368.31 4316.75 1375.65 4323.09 1375.65 4332.06V4389.25C1375.65 4396 1369.61 4402.09 1362.2 4402.09H1087.35C1078.5 4402.09 1071 4394.71 1071 4382.85V3884.15C1071 3874.44 1076.89 3865.12 1089.68 3865.26V3865.26ZM1426.9 4388.17V3880.82C1426.9 3872.56 1433.56 3865.38 1442.24 3865.38C1483.31 3865.38 1514.92 3865.54 1555.99 3865.41C1633.17 3865.16 1695.38 3909.32 1705.85 3995.71C1706.88 4004.21 1706.78 4012.52 1705.85 4020.54C1701.1 4061.33 1684.79 4088.78 1661.8 4108.18C1705.08 4129.03 1734.49 4165.94 1744.02 4223.12C1745.94 4234.65 1745.72 4246.36 1744.02 4257.65C1731.41 4341.23 1669.57 4402.11 1585.18 4402.11H1440.81C1433.58 4402.11 1426.9 4395.58 1426.9 4388.17V4388.17ZM896.581 4966.13H923.71C935.539 4973.28 945.177 4982.26 950.429 4994.9C954.227 5007.22 954.309 5018.34 950.429 5028.2C947.322 5032.37 943.588 5036.41 938.507 5037.24C930.531 5038.55 921.709 5040.77 914.257 5037.66C903.096 5032.99 893.871 5021.95 882.191 5021.21C857.717 5019.66 833.757 5019.91 808.616 5022.03C783.2 5024.18 757.92 5027.79 732.571 5030.66C785.345 5004.88 839.422 4982.04 896.581 4966.13V4966.13ZM1764.53 5252.6V4816.34H1676.4C1666.48 4816.34 1660.77 4812.42 1660.77 4798.96V4746.19C1660.77 4736.3 1668.18 4730.16 1677.18 4730.16H1933.79C1945.51 4730.16 1953.87 4739.96 1953.87 4750.15V4800.1C1953.87 4809.12 1943.66 4816.08 1935.7 4816.08H1848.25V5249.46C1848.25 5261.94 1840.87 5269.19 1829.25 5269.19H1781.78C1770.76 5269.19 1764.53 5262.94 1764.53 5252.6V5252.6ZM2083.2 3665.67L2091.26 3647.13C2096.61 3653 2101.01 3659.23 2104.45 3665.65L2083.2 3665.67ZM1783.41 4133.84C1783.71 3977.67 1900.3 3854.41 2048.78 3853.81C2197.27 3853.22 2315.53 3977.44 2314.16 4133.84C2312.79 4290.24 2201.96 4412.46 2048.78 4413.87C1895.6 4415.27 1783.11 4290.01 1783.41 4133.84ZM2292.08 4322.03C2318.04 4274.34 2367.99 4257.72 2387.26 4271.46L2387.45 4271.79L2395.37 4252.44L2550.02 3874.86C2552.3 3870.44 2554.92 3866.74 2559.13 3865.98C2563.94 3865.1 2569.35 3865.05 2574.33 3865.98C2579 3866.85 2584.31 3871.05 2587.04 3877.75L2788.71 4373.17C2794.49 4387.36 2785.6 4402.42 2775.19 4402.16H2721.37C2717.81 4402.16 2714.41 4397.4 2713.14 4394.25L2567.53 4035.02L2421.42 4391.95C2419.16 4397.47 2415.05 4401.3 2409.98 4402.04C2405.67 4436.45 2396.53 4474.45 2388.91 4521.8C2433.95 4414.46 2438.55 4346.13 2496.61 4296.12C2523.44 4273.01 2552.58 4281.45 2564.02 4292.83C2584.77 4313.47 2578 4344.42 2625.68 4379.16C2646.59 4384.75 2663.14 4380.15 2674.18 4362.71C2712.13 4407.25 2742.69 4473.98 2776.94 4529.61L2195.86 4534.97C2227.32 4463.44 2253.74 4392.47 2292.08 4322.03V4322.03ZM852.186 4854.73H878.082C896.643 4864.78 905.828 4873.91 909.733 4881.45C914.461 4890.58 916.392 4901.19 913.434 4913.1C910.993 4922.93 904.57 4930.61 895.758 4930.36L866.573 4929.54C850.207 4929.08 837.659 4917.49 829.168 4899.53C823.399 4887.96 831.644 4872.88 852.186 4854.73V4854.73ZM1175.09 4693.75L1204.68 4678.95L1205.51 4713.48L1230.58 4739.79L1200.16 4750.06L1182.49 4780.48L1160.7 4751.3L1125.76 4743.08L1146.31 4717.18L1140.56 4682.24L1175.09 4693.75V4693.75ZM1199.55 4912.24L1235.72 4923.75L1266.14 4908.74L1267.58 4944.71L1291.83 4970.2L1259.15 4980.68L1243.94 5009.66L1220.92 4982.32L1185.98 4974.51L1205.1 4946.56L1199.55 4912.24V4912.24ZM1226.87 5179.26C1238 5179.26 1247.02 5188.51 1247.02 5199.92C1247.02 5211.33 1238 5220.58 1226.87 5220.58C1215.75 5220.58 1206.73 5211.33 1206.73 5199.92C1206.73 5188.51 1215.75 5179.26 1226.87 5179.26ZM1246.01 5164.22L1259.37 5145.72L1257.32 5119.41L1281.16 5127.43L1303.77 5117.36L1303.97 5142.02L1322.06 5159.9L1300.07 5166.48L1287.94 5188.06L1273.35 5168.95L1246.01 5164.22V5164.22ZM644.179 4741.27C657.177 4741.27 667.714 4751.76 667.714 4764.71C667.714 4777.65 657.177 4788.14 644.179 4788.14C631.181 4788.14 620.644 4777.65 620.644 4764.71C620.644 4751.76 631.181 4741.27 644.179 4741.27ZM3024.73 4603.65C3036.92 4603.51 3049.12 4603.38 3061.31 4603.24C3051.46 4622.2 3046.69 4634.79 3042.2 4652.16C3038.2 4637.51 3032.57 4617.21 3024.73 4603.65Z" fill="#C82C39"/>
<path fill-rule="evenodd" clip-rule="evenodd" d="M2531.71 4412.69C2507.72 4419.61 2491.51 4443.61 2499.13 4475.02C2505.95 4503.12 2550.63 4515.01 2587.61 4506.41C2605.2 4502.32 2612.39 4487.93 2607.34 4455.44C2602.76 4440.97 2591.92 4428.52 2573.64 4418.44C2559.8 4411 2545.82 4409.16 2531.71 4412.69V4412.69Z" fill="#C82C39"/>
<path fill-rule="evenodd" clip-rule="evenodd" d="M3123.59 4011.26L3218.13 4044.97L3306.71 4002.83L3310.61 4100.88L3381.32 4170.35L3288.01 4199.53L3286.68 4201.73L3290.72 4201.92C3307.74 4204.01 3310.77 4223.53 3320.11 4243.86H3366.97C3371.04 4248.89 3375.1 4253.97 3379.15 4259.1C3404.42 4224.86 3419.52 4181.52 3419.52 4134.37C3419.52 4023.68 3336.3 3933.93 3233.64 3933.93C3133.86 3933.93 3052.45 4018.73 3047.98 4125.15L3049.04 4125.56C3065.36 4136.27 3066.4 4155.48 3053.2 4182.6C3060.79 4215.69 3075.99 4245.56 3096.69 4269.88L3129.98 4300.76C3159.59 4322.26 3195.26 4334.82 3233.64 4334.82C3269.92 4334.82 3303.77 4323.6 3332.38 4304.21L3332.24 4303.57C3317.95 4290.76 3270.62 4283.2 3208.09 4278.08C3213.31 4268.17 3215.22 4266.07 3218.17 4254.13L3219.53 4250.08L3184.01 4203.24L3175.46 4201.69C3178.44 4208.11 3180.4 4216.27 3180.43 4221.49C3180.68 4238.35 3184.01 4255.42 3181.18 4272.08C3151.39 4259.01 3124.18 4240.72 3095.68 4225.04C3102.72 4217.8 3115.79 4202.39 3125.87 4192.69L3086.59 4185.56L3138.38 4108.28L3123.59 4011.26V4011.26Z" fill="#C82C39"/>
<path fill-rule="evenodd" clip-rule="evenodd" d="M3426.48 4323.49C3442.28 4347.02 3457.62 4372.46 3472.2 4400.88C3494.04 4415.2 3517.22 4419.46 3541.25 4417.33C3577.51 4453.04 3610.67 4500.78 3641.5 4533.55C3652.43 4533.61 3663.36 4533.67 3674.29 4533.73H3674.32C3674.34 4533.73 3674.35 4533.73 3674.36 4533.73L3681.42 4533.66C3680.01 4519.65 3678.18 4500.8 3672.38 4483.51C3658.62 4451.72 3645.57 4425.49 3632.99 4402.46H3574.94C3566.87 4402.46 3561.34 4396.49 3561.34 4388.33V4283.81C3561.09 4283.37 3560.83 4282.94 3560.57 4282.5C3536.88 4248.72 3515.39 4209.76 3496.44 4164.93L3495.74 4152.38C3491.73 4218.27 3466.18 4277.93 3426.48 4323.49Z" fill="#C82C39"/>
<path fill-rule="evenodd" clip-rule="evenodd" d="M3638.59 4117.96C3741.49 4210.6 3724.78 4204.97 3825.21 4299.66L3827.65 4299.49V4207.3L3825.21 4206.76C3762.54 4196.98 3708.53 4144.87 3638.59 4117.96Z" fill="#C82C39"/>
<path fill-rule="evenodd" clip-rule="evenodd" d="M3640.1 3970.07C3731.25 3972.53 3800 3973.23 3827.65 3966.96V3929.38C3820.98 3918.59 3747.44 3913.96 3641.01 3913.04L3638.17 3911.61V3970.29L3640.1 3970.07V3970.07Z" fill="#C82C39"/>
<path fill-rule="evenodd" clip-rule="evenodd" d="M3747.15 3783.16C3790.38 3776.19 3832.16 3769.33 3872.11 3777.41C3893.85 3781.8 3906.94 3792.67 3916.09 3786.86C3926.22 3781.25 3928.2 3769.72 3923.08 3753.15C3912.61 3734.14 3897.24 3726.13 3875.81 3731.78C3832.32 3744.34 3789.55 3762.38 3747.15 3783.16V3783.16Z" fill="#C82C39"/>
<path fill-rule="evenodd" clip-rule="evenodd" d="M3668.83 3578.3C3679.27 3578.3 3687.73 3570.21 3687.73 3560.22C3687.73 3550.24 3679.27 3542.14 3668.83 3542.14C3658.39 3542.14 3649.92 3550.24 3649.92 3560.22C3649.92 3570.21 3658.39 3578.3 3668.83 3578.3Z" fill="#7688A1"/>
<path fill-rule="evenodd" clip-rule="evenodd" d="M3344.12 3292.2C3351.52 3290.7 3354.77 3284.99 3357.69 3277.81C3362.28 3270.09 3361.45 3261.02 3357.27 3251.1C3349.89 3238.22 3338.22 3229.03 3323.16 3222.73L3301.78 3222.32C3282.52 3236.58 3275.28 3251.36 3281.23 3266.72C3288.99 3279.72 3298.95 3288.52 3312.47 3290.56L3344.12 3292.2V3292.2Z" fill="#7688A1"/>
<path fill-rule="evenodd" clip-rule="evenodd" d="M3060.46 3451.28C3060.46 3438.34 3050.56 3427.85 3038.34 3427.85C3026.12 3427.85 3016.21 3438.34 3016.21 3451.28C3016.21 3464.22 3026.12 3474.71 3038.34 3474.71C3050.56 3474.71 3060.46 3464.22 3060.46 3451.28Z" fill="#7688A1"/>
<path fill-rule="evenodd" clip-rule="evenodd" d="M2614.88 3103.92C2622.28 3097.07 2631.33 3097.62 2637.08 3083.37C2642.26 3068.57 2643.61 3047.9 2628.04 3038.97C2619.81 3034.26 2615.34 3025.72 2592.69 3012.66L2563.09 3014.31C2530.9 3042.33 2522.12 3065.48 2542.54 3082.55C2569.99 3103.02 2594.01 3109.76 2614.88 3103.92V3103.92Z" fill="#7688A1"/>
<path fill-rule="evenodd" clip-rule="evenodd" d="M2489.26 2695.8L2529.96 2644.42L2592.85 2632.09L2557.09 2583.17L2568.6 2520.69L2507.76 2542.06L2448.98 2513.7L2446.93 2577L2400.48 2623.04L2459.67 2641.95L2489.26 2695.8Z" fill="#7688A1"/>
<path fill-rule="evenodd" clip-rule="evenodd" d="M2916.76 2932.17L2934.84 3020.96L2881.41 3095.37L2974.31 3113.87L3030.21 3188.68L3072.96 3110.58L3161.74 3082.62L3094.74 3014.8L3091.04 2923.54L3008.42 2961.77L2916.76 2932.17Z" fill="#7688A1"/>
<path fill-rule="evenodd" clip-rule="evenodd" d="M3227.92 2957.25L3207.78 2985.82L3239.43 2991.57L3262.04 3020.55L3276.63 2991.57L3307.87 2981.5L3284.64 2959.1L3283.2 2924.57L3254.43 2938.75L3221.14 2927.65L3227.92 2957.25Z" fill="#7688A1"/>
<path fill-rule="evenodd" clip-rule="evenodd" d="M4980.01 4481.22L4978.37 4542.88L4964.32 4556.8C4960.46 4560.99 4956.66 4564.59 4952.84 4568.19L4941.34 4579.59L4930.69 4590.15L4989.06 4608.65L5019.47 4664.55L5059.75 4613.17L5122.11 4599.19L5088.53 4551.51L5099.63 4487.38L5037.97 4508.76L4980.01 4481.22V4481.22Z" fill="#C82C39"/>
<path fill-rule="evenodd" clip-rule="evenodd" d="M4094.41 3742.31L4110.24 3713.12L4142.71 3703.66L4118.05 3680.03L4116.61 3645.49L4089.07 3660.3L4054.95 3649.61L4058.86 3683.31L4040.15 3708.6L4074.48 3714.97L4094.41 3742.31Z" fill="#C82C39"/>
<path fill-rule="evenodd" clip-rule="evenodd" d="M3813.47 3441.8L3846.56 3432.55L3820.87 3408.29L3818.4 3374.38L3790.66 3389.38L3757.77 3377.46L3764.14 3409.73L3745.03 3435.84L3778.94 3443.24L3799.29 3469.96L3813.47 3441.8Z" fill="#7688A1"/>
<path fill-rule="evenodd" clip-rule="evenodd" d="M559.158 5349.88C589.001 5325.54 590.152 5294.46 564.089 5256.97C527.644 5258.51 506.819 5266.4 499.965 5280C496.329 5301.41 497.164 5319.7 504.487 5333.44C516.448 5345.18 535.141 5350.19 559.158 5349.88Z" fill="#C82C39"/>
<path fill-rule="evenodd" clip-rule="evenodd" d="M621.432 5267.67C634.475 5272.32 652.576 5273.69 663.359 5269.93C670.672 5267.38 679.207 5255.7 675.074 5255.74L588.755 5256.56C601.566 5260.13 607.748 5262.78 621.432 5267.67Z" fill="#C82C39"/>
<path fill-rule="evenodd" clip-rule="evenodd" d="M529.066 5160.96C547.373 5176.55 606.747 5175.26 675.812 5182.34L647.861 5055.31C592.454 5072.75 546.781 5091.45 525.365 5113.28C515.63 5132.46 516.881 5148.35 529.066 5160.96V5160.96Z" fill="#C82C39"/>
<path fill-rule="evenodd" clip-rule="evenodd" d="M497.086 5388.11H456.803C442.204 5388.11 430.037 5395.4 428.851 5407.02L426.415 5431.15L510.29 5431C511.551 5410.23 507.695 5388.11 497.086 5388.11V5388.11Z" fill="#C82C39"/>
<path fill-rule="evenodd" clip-rule="evenodd" d="M1369.74 5419.73C1347.21 5421.14 1325.07 5426.24 1302.73 5429.5L1450.3 5429.22C1446.72 5427.05 1440.22 5422.57 1433.55 5421.27C1412.67 5417.2 1390.97 5418.39 1369.74 5419.73V5419.73Z" fill="#C82C39"/>
<path fill-rule="evenodd" clip-rule="evenodd" d="M2650.03 301.724L2724.02 272.124L2796.77 300.491L2791.43 224.851L2842.4 171L2763.89 151.677L2723.2 88.7825L2680.86 152.91L2603.58 170.587L2655.78 225.261L2650.03 301.724Z" fill="#C82C39"/>
<path fill-rule="evenodd" clip-rule="evenodd" d="M3668.83 3542.14C3658.39 3542.14 3649.92 3550.24 3649.92 3560.22C3649.92 3570.21 3658.39 3578.3 3668.83 3578.3C3679.27 3578.3 3687.73 3570.21 3687.73 3560.22C3687.73 3550.24 3679.27 3542.14 3668.83 3542.14Z" fill="#C82C39"/>
<path fill-rule="evenodd" clip-rule="evenodd" d="M3745.03 3435.84L3778.94 3443.24L3799.29 3469.96L3813.47 3441.8L3846.56 3432.55L3820.87 3408.29L3818.4 3374.38L3790.66 3389.38L3757.77 3377.46L3764.14 3409.73L3745.03 3435.84Z" fill="#C82C39"/>
<path fill-rule="evenodd" clip-rule="evenodd" d="M3357.69 3277.81C3362.28 3270.09 3361.45 3261.02 3357.27 3251.1C3349.89 3238.22 3338.22 3229.03 3323.16 3222.73L3301.78 3222.32C3282.52 3236.58 3275.28 3251.36 3281.23 3266.72C3288.99 3279.72 3298.95 3288.52 3312.47 3290.56L3344.12 3292.2C3351.52 3290.7 3354.77 3284.99 3357.69 3277.81V3277.81Z" fill="#C82C39"/>
<path fill-rule="evenodd" clip-rule="evenodd" d="M3060.46 3451.28C3060.46 3438.34 3050.56 3427.85 3038.34 3427.85C3026.12 3427.85 3016.21 3438.34 3016.21 3451.28C3016.21 3464.22 3026.12 3474.71 3038.34 3474.71C3050.56 3474.71 3060.46 3464.22 3060.46 3451.28Z" fill="#C82C39"/>
<path fill-rule="evenodd" clip-rule="evenodd" d="M3030.21 3188.68L3072.96 3110.58L3161.74 3082.62L3094.74 3014.8L3091.04 2923.54L3008.42 2961.77L2916.76 2932.17L2934.84 3020.96L2881.41 3095.37L2974.31 3113.87L3030.21 3188.68Z" fill="#C82C39"/>
<path fill-rule="evenodd" clip-rule="evenodd" d="M3239.43 2991.57L3262.04 3020.55L3276.63 2991.57L3307.87 2981.5L3284.64 2959.1L3283.2 2924.57L3254.43 2938.75L3221.14 2927.65L3227.92 2957.25L3207.78 2985.82L3239.43 2991.57Z" fill="#C82C39"/>
<path fill-rule="evenodd" clip-rule="evenodd" d="M2637.08 3083.37C2642.26 3068.57 2643.61 3047.9 2628.04 3038.97C2619.81 3034.26 2615.34 3025.72 2592.69 3012.66L2563.09 3014.31C2530.9 3042.33 2522.12 3065.48 2542.54 3082.55C2569.99 3103.02 2594.01 3109.76 2614.88 3103.92C2622.28 3097.07 2631.33 3097.62 2637.08 3083.37V3083.37Z" fill="#C82C39"/>
<path fill-rule="evenodd" clip-rule="evenodd" d="M2489.26 2695.8L2529.96 2644.42L2592.85 2632.09L2557.09 2583.17L2568.6 2520.69L2507.76 2542.06L2448.98 2513.7L2446.93 2577L2400.48 2623.04L2459.67 2641.95L2489.26 2695.8Z" fill="#C82C39"/>
<path fill-rule="evenodd" clip-rule="evenodd" d="M3561.34 4388.33V3880.53C3561.34 3872.83 3567.31 3865.36 3575.23 3865.36L3621.66 3865.37C3631.66 3865.37 3638.17 3870.85 3638.17 3882.44V4319.1C3638.17 4321.2 3640.54 4323.57 3642.64 4323.57H3824.67C3826.34 4323.57 3827.65 4321.7 3827.65 4320.04V3880.86C3827.65 3872.99 3833.48 3865.41 3841.86 3865.41H3885.58C3897.11 3865.41 3903.73 3869.63 3903.73 3882.64V4317.68C3903.73 4322.83 3906.25 4323.38 3909.63 4323.38H3969.95C3981.52 4323.38 3983.98 4326.84 3983.98 4337.62V4461.57C3983.98 4469.69 3980.87 4474.31 3972.17 4474.31H3923.35C3917.39 4474.31 3911.58 4468.68 3911.58 4462.14V4402.48L3908.47 4402.46H3574.94C3566.87 4402.46 3561.34 4396.49 3561.34 4388.33V4388.33Z" fill="#1F1A17"/>
<path fill-rule="evenodd" clip-rule="evenodd" d="M2421.42 4391.95L2567.52 4035.02L2713.13 4394.25C2714.41 4397.4 2717.81 4402.16 2721.37 4402.16H2775.19C2785.6 4402.42 2794.49 4387.36 2788.71 4373.17L2587.03 3877.75C2584.3 3871.05 2579 3866.84 2574.33 3865.97C2569.35 3865.05 2563.93 3865.1 2559.12 3865.97C2554.92 3866.74 2552.3 3870.44 2550.02 3874.86L2395.37 4252.44L2387.44 4271.79L2344.24 4377.27C2339.53 4388.77 2343.83 4402.17 2355.06 4402.17L2409.25 4402.12L2409.97 4402.04C2415.05 4401.3 2419.16 4397.47 2421.42 4391.95V4391.95Z" fill="#1F1A17"/>
</svg>
