<svg width="448" height="62" viewBox="0 0 448 62" fill="none" xmlns="http://www.w3.org/2000/svg">
<path d="M8.23633 21.2C7.15633 21.2 6.143 21 5.19633 20.6C4.263 20.1867 3.443 19.62 2.73633 18.9C2.04299 18.1667 1.49633 17.3133 1.09633 16.34C0.709662 15.3667 0.516328 14.3133 0.516328 13.18C0.516328 12.06 0.709662 11.02 1.09633 10.06C1.49633 9.08667 2.04299 8.24 2.73633 7.52C3.443 6.78667 4.263 6.21333 5.19633 5.8C6.12966 5.38667 7.143 5.18 8.23633 5.18C9.263 5.18 10.143 5.31333 10.8763 5.58C11.623 5.84667 12.3697 6.28667 13.1163 6.9C13.2763 7.03333 13.383 7.16 13.4363 7.28C13.4897 7.4 13.5163 7.54667 13.5163 7.72C13.5163 7.97333 13.423 8.18667 13.2363 8.36C13.063 8.52 12.8497 8.61333 12.5963 8.64C12.343 8.65333 12.0963 8.56667 11.8563 8.38C11.363 7.95333 10.8497 7.62667 10.3163 7.4C9.79633 7.17333 9.103 7.06 8.23633 7.06C7.44966 7.06 6.70966 7.22 6.01633 7.54C5.32299 7.86 4.70966 8.3 4.17633 8.86C3.65633 9.42 3.24966 10.0733 2.95633 10.82C2.66299 11.5533 2.51633 12.34 2.51633 13.18C2.51633 14.0333 2.66299 14.8333 2.95633 15.58C3.24966 16.3133 3.65633 16.96 4.17633 17.52C4.70966 18.08 5.32299 18.52 6.01633 18.84C6.70966 19.1467 7.44966 19.3 8.23633 19.3C8.91633 19.3 9.55633 19.1867 10.1563 18.96C10.7697 18.72 11.3563 18.3933 11.9163 17.98C12.1563 17.8067 12.3897 17.7333 12.6163 17.76C12.8563 17.7733 13.0563 17.8667 13.2163 18.04C13.3763 18.2 13.4563 18.4267 13.4563 18.72C13.4563 19 13.3497 19.2467 13.1363 19.46C11.6963 20.62 10.063 21.2 8.23633 21.2ZM21.4032 21C21.1099 21 20.8632 20.9 20.6632 20.7C20.4632 20.5 20.3632 20.2533 20.3632 19.96V7.3H16.0432C15.7632 7.3 15.5299 7.21333 15.3432 7.04C15.1699 6.85333 15.0832 6.62 15.0832 6.34C15.0832 6.06 15.1699 5.83333 15.3432 5.66C15.5299 5.47333 15.7632 5.38 16.0432 5.38H26.7432C27.0232 5.38 27.2499 5.47333 27.4232 5.66C27.6099 5.83333 27.7032 6.06 27.7032 6.34C27.7032 6.62 27.6099 6.85333 27.4232 7.04C27.2499 7.21333 27.0232 7.3 26.7432 7.3H22.4432V19.96C22.4432 20.2533 22.3432 20.5 22.1432 20.7C21.9432 20.9 21.6965 21 21.4032 21ZM31.9059 21.18C31.2925 21.18 30.7059 21 30.1459 20.64C29.8925 20.48 29.7325 20.2733 29.6659 20.02C29.6125 19.7667 29.6592 19.5267 29.8059 19.3C29.9525 19.06 30.1592 18.92 30.4259 18.88C30.6925 18.8267 30.9725 18.88 31.2659 19.04C31.4792 19.16 31.6925 19.22 31.9059 19.22C32.2659 19.22 32.6325 19.0533 33.0059 18.72C33.3925 18.3733 33.7325 17.8933 34.0259 17.28L34.2259 16.86L28.1459 6.88C27.8259 6.33333 27.9525 5.89333 28.5259 5.56C29.0859 5.24 29.5325 5.36 29.8659 5.92L35.1059 15.06L39.5259 6C39.8192 5.41333 40.2525 5.24667 40.8259 5.5C41.3992 5.75333 41.5392 6.18 41.2459 6.78L35.7459 18.08C35.2659 19.0533 34.6992 19.8133 34.0459 20.36C33.3925 20.9067 32.6792 21.18 31.9059 21.18ZM43.5888 24.56C43.2955 24.56 43.0488 24.46 42.8488 24.26C42.6488 24.06 42.5488 23.8133 42.5488 23.52V20.2C42.5488 19.8933 42.6488 19.6467 42.8488 19.46C43.0488 19.26 43.2955 19.16 43.5888 19.16H44.1888L49.6688 6.08C49.8688 5.61333 50.1955 5.38 50.6488 5.38C51.1288 5.38 51.4555 5.61333 51.6288 6.08L57.1088 19.16H57.6688C57.9755 19.16 58.2222 19.26 58.4088 19.46C58.6088 19.6467 58.7088 19.8933 58.7088 20.2V23.52C58.7088 23.8133 58.6088 24.06 58.4088 24.26C58.2222 24.46 57.9755 24.56 57.6688 24.56C57.3755 24.56 57.1288 24.46 56.9288 24.26C56.7288 24.06 56.6288 23.8133 56.6288 23.52V21H44.6288V23.52C44.6288 23.8133 44.5288 24.06 44.3288 24.26C44.1422 24.46 43.8955 24.56 43.5888 24.56ZM46.3088 19.16H55.1088L50.6688 8.38L46.3088 19.16ZM62.2968 21C62.0035 21 61.7501 20.9 61.5368 20.7C61.3235 20.5 61.2168 20.2533 61.2168 19.96V6.42C61.2168 6.11333 61.3235 5.86667 61.5368 5.68C61.7501 5.48 62.0035 5.38 62.2968 5.38C62.6035 5.38 62.8435 5.48 63.0168 5.68C63.2035 5.86667 63.2968 6.11333 63.2968 6.42V17.76L72.8968 5.76C73.1101 5.50667 73.3768 5.38 73.6968 5.38C74.0035 5.38 74.2501 5.48 74.4368 5.68C74.6368 5.86667 74.7368 6.11333 74.7368 6.42V19.96C74.7368 20.2533 74.6368 20.5 74.4368 20.7C74.2501 20.9 74.0035 21 73.6968 21C73.4035 21 73.1568 20.9 72.9568 20.7C72.7568 20.5 72.6568 20.2533 72.6568 19.96V8.64L63.0968 20.64C63.0035 20.7467 62.8835 20.8333 62.7368 20.9C62.5901 20.9667 62.4435 21 62.2968 21ZM79.2763 21C78.8497 21 78.5497 20.8333 78.3763 20.5C78.203 20.1533 78.2363 19.7867 78.4763 19.4L81.5163 14.52C80.5163 14.2133 79.7163 13.6933 79.1163 12.96C78.5297 12.2133 78.2363 11.3267 78.2363 10.3C78.2363 9.34 78.4563 8.49333 78.8963 7.76C79.3363 7.01333 79.9363 6.43333 80.6963 6.02C81.4697 5.59333 82.3563 5.38 83.3563 5.38H88.1763C88.483 5.38 88.7297 5.48 88.9163 5.68C89.1163 5.86667 89.2163 6.11333 89.2163 6.42V19.96C89.2163 20.2533 89.1163 20.5 88.9163 20.7C88.7297 20.9 88.483 21 88.1763 21C87.883 21 87.6363 20.9 87.4363 20.7C87.2363 20.5 87.1363 20.2533 87.1363 19.96V14.98H83.5963L80.1763 20.5C79.963 20.8333 79.663 21 79.2763 21ZM83.3563 13.14H87.1363V7.3H83.3563C82.4497 7.3 81.703 7.55333 81.1163 8.06C80.5297 8.56667 80.2363 9.31333 80.2363 10.3C80.2363 11.22 80.5297 11.9267 81.1163 12.42C81.703 12.9 82.4497 13.14 83.3563 13.14ZM106.068 21.2C104.988 21.2 103.975 21 103.028 20.6C102.095 20.1867 101.275 19.62 100.568 18.9C99.875 18.1667 99.3284 17.3133 98.9284 16.34C98.5417 15.3667 98.3484 14.3133 98.3484 13.18C98.3484 12.06 98.5417 11.02 98.9284 10.06C99.3284 9.08667 99.875 8.24 100.568 7.52C101.275 6.78667 102.095 6.21333 103.028 5.8C103.962 5.38667 104.975 5.18 106.068 5.18C107.095 5.18 107.975 5.31333 108.708 5.58C109.455 5.84667 110.202 6.28667 110.948 6.9C111.108 7.03333 111.215 7.16 111.268 7.28C111.322 7.4 111.348 7.54667 111.348 7.72C111.348 7.97333 111.255 8.18667 111.068 8.36C110.895 8.52 110.682 8.61333 110.428 8.64C110.175 8.65333 109.928 8.56667 109.688 8.38C109.195 7.95333 108.682 7.62667 108.148 7.4C107.628 7.17333 106.935 7.06 106.068 7.06C105.282 7.06 104.542 7.22 103.848 7.54C103.155 7.86 102.542 8.3 102.008 8.86C101.488 9.42 101.082 10.0733 100.788 10.82C100.495 11.5533 100.348 12.34 100.348 13.18C100.348 14.0333 100.495 14.8333 100.788 15.58C101.082 16.3133 101.488 16.96 102.008 17.52C102.542 18.08 103.155 18.52 103.848 18.84C104.542 19.1467 105.282 19.3 106.068 19.3C106.748 19.3 107.388 19.1867 107.988 18.96C108.602 18.72 109.188 18.3933 109.748 17.98C109.988 17.8067 110.222 17.7333 110.448 17.76C110.688 17.7733 110.888 17.8667 111.048 18.04C111.208 18.2 111.288 18.4267 111.288 18.72C111.288 19 111.182 19.2467 110.968 19.46C109.528 20.62 107.895 21.2 106.068 21.2ZM121.835 21.2C120.662 21.2 119.589 21.0067 118.615 20.62C117.642 20.22 116.802 19.6667 116.095 18.96C115.402 18.24 114.862 17.3933 114.475 16.42C114.089 15.4333 113.895 14.3533 113.895 13.18C113.895 12.0067 114.089 10.9333 114.475 9.96C114.862 8.98667 115.402 8.14667 116.095 7.44C116.802 6.72 117.642 6.16667 118.615 5.78C119.589 5.38 120.662 5.18 121.835 5.18C123.009 5.18 124.075 5.38 125.035 5.78C126.009 6.16667 126.849 6.72 127.555 7.44C128.262 8.14667 128.809 8.98667 129.195 9.96C129.582 10.9333 129.775 12.0067 129.775 13.18C129.775 14.3533 129.582 15.4333 129.195 16.42C128.809 17.3933 128.262 18.24 127.555 18.96C126.849 19.6667 126.009 20.22 125.035 20.62C124.075 21.0067 123.009 21.2 121.835 21.2ZM121.835 19.32C122.995 19.32 124.022 19.0533 124.915 18.52C125.809 17.9733 126.509 17.24 127.015 16.32C127.522 15.3867 127.775 14.34 127.775 13.18C127.775 12.02 127.522 10.98 127.015 10.06C126.509 9.12667 125.809 8.39333 124.915 7.86C124.022 7.32667 122.995 7.06 121.835 7.06C120.675 7.06 119.649 7.32667 118.755 7.86C117.862 8.39333 117.162 9.12667 116.655 10.06C116.149 10.98 115.895 12.02 115.895 13.18C115.895 14.34 116.149 15.3867 116.655 16.32C117.162 17.24 117.862 17.9733 118.755 18.52C119.649 19.0533 120.675 19.32 121.835 19.32ZM134.073 21C133.78 21 133.533 20.9 133.333 20.7C133.133 20.5 133.033 20.2533 133.033 19.96V6.42C133.033 6.11333 133.133 5.86667 133.333 5.68C133.533 5.48 133.78 5.38 134.073 5.38H138.853C139.76 5.38 140.553 5.56 141.233 5.92C141.927 6.26667 142.467 6.75333 142.853 7.38C143.253 8.00667 143.453 8.72667 143.453 9.54C143.453 10.1933 143.273 10.7867 142.913 11.32C142.567 11.84 142.087 12.2533 141.473 12.56C142.353 12.7733 143.06 13.1933 143.593 13.82C144.127 14.4467 144.393 15.2667 144.393 16.28C144.393 17.2 144.173 18.0133 143.733 18.72C143.307 19.4267 142.707 19.9867 141.933 20.4C141.16 20.8 140.273 21 139.273 21H134.073ZM135.113 11.8H138.853C139.613 11.8 140.233 11.6133 140.713 11.24C141.207 10.8667 141.453 10.3 141.453 9.54C141.453 8.78 141.207 8.22 140.713 7.86C140.233 7.48667 139.613 7.3 138.853 7.3H135.113V11.8ZM135.113 19.08H139.273C140.18 19.08 140.927 18.8467 141.513 18.38C142.1 17.9 142.393 17.2 142.393 16.28C142.393 15.4267 142.1 14.7867 141.513 14.36C140.927 13.9333 140.18 13.72 139.273 13.72H135.113V19.08ZM148.526 21C148.233 21 147.986 20.9 147.786 20.7C147.586 20.5 147.486 20.2533 147.486 19.96V6.42C147.486 6.11333 147.586 5.86667 147.786 5.68C147.986 5.48 148.233 5.38 148.526 5.38H152.526C153.526 5.38 154.413 5.6 155.186 6.04C155.96 6.48 156.56 7.09333 156.986 7.88C157.426 8.65333 157.646 9.54667 157.646 10.56C157.646 11.5333 157.426 12.4 156.986 13.16C156.56 13.92 155.96 14.5133 155.186 14.94C154.413 15.3667 153.526 15.58 152.526 15.58H149.566V19.96C149.566 20.2533 149.466 20.5 149.266 20.7C149.08 20.9 148.833 21 148.526 21ZM149.566 13.66H152.526C153.433 13.66 154.18 13.3733 154.766 12.8C155.353 12.2133 155.646 11.4667 155.646 10.56C155.646 9.92 155.513 9.36 155.246 8.88C154.98 8.38667 154.613 8 154.146 7.72C153.68 7.44 153.14 7.3 152.526 7.3H149.566V13.66ZM160.987 21C160.694 21 160.447 20.9 160.247 20.7C160.047 20.5 159.947 20.2533 159.947 19.96V6.42C159.947 6.11333 160.047 5.86667 160.247 5.68C160.447 5.48 160.694 5.38 160.987 5.38H170.027C170.334 5.38 170.581 5.47333 170.767 5.66C170.954 5.83333 171.047 6.06667 171.047 6.36C171.047 6.64 170.954 6.86667 170.767 7.04C170.581 7.21333 170.334 7.3 170.027 7.3H162.027V12.16H167.767C168.074 12.16 168.321 12.2533 168.507 12.44C168.694 12.6133 168.787 12.84 168.787 13.12C168.787 13.4 168.694 13.6333 168.507 13.82C168.321 13.9933 168.074 14.08 167.767 14.08H162.027V19.08H170.027C170.334 19.08 170.581 19.1667 170.767 19.34C170.954 19.5133 171.047 19.74 171.047 20.02C171.047 20.3133 170.954 20.5533 170.767 20.74C170.581 20.9133 170.334 21 170.027 21H160.987ZM174.991 21C174.698 21 174.451 20.9 174.251 20.7C174.051 20.5 173.951 20.2533 173.951 19.96V6.42C173.951 6.11333 174.051 5.86667 174.251 5.68C174.451 5.48 174.698 5.38 174.991 5.38C175.391 5.38 175.698 5.56667 175.911 5.94L181.851 17.84L187.631 5.94C187.845 5.56667 188.151 5.38 188.551 5.38C188.845 5.38 189.091 5.48 189.291 5.68C189.491 5.86667 189.591 6.11333 189.591 6.42V19.96C189.591 20.2533 189.485 20.5 189.271 20.7C189.071 20.9 188.831 21 188.551 21C188.258 21 188.011 20.9 187.811 20.7C187.611 20.5 187.511 20.2533 187.511 19.96V10.02L182.671 19.88C182.445 20.2267 182.145 20.4 181.771 20.4C181.331 20.4 181.011 20.1933 180.811 19.78L176.031 10.2V19.96C176.031 20.2533 175.931 20.5 175.731 20.7C175.531 20.9 175.285 21 174.991 21ZM194.64 21C194.346 21 194.1 20.9 193.9 20.7C193.7 20.5 193.6 20.2533 193.6 19.96V6.42C193.6 6.11333 193.7 5.86667 193.9 5.68C194.1 5.48 194.346 5.38 194.64 5.38H203.68C203.986 5.38 204.233 5.47333 204.42 5.66C204.606 5.83333 204.7 6.06667 204.7 6.36C204.7 6.64 204.606 6.86667 204.42 7.04C204.233 7.21333 203.986 7.3 203.68 7.3H195.68V12.16H201.42C201.726 12.16 201.973 12.2533 202.16 12.44C202.346 12.6133 202.44 12.84 202.44 13.12C202.44 13.4 202.346 13.6333 202.16 13.82C201.973 13.9933 201.726 14.08 201.42 14.08H195.68V19.08H203.68C203.986 19.08 204.233 19.1667 204.42 19.34C204.606 19.5133 204.7 19.74 204.7 20.02C204.7 20.3133 204.606 20.5533 204.42 20.74C204.233 20.9133 203.986 21 203.68 21H194.64ZM208.644 21C208.35 21 208.104 20.9 207.904 20.7C207.704 20.5 207.604 20.2533 207.604 19.96V6.42C207.604 6.11333 207.704 5.86667 207.904 5.68C208.104 5.48 208.35 5.38 208.644 5.38C208.95 5.38 209.197 5.48 209.384 5.68C209.584 5.86667 209.684 6.11333 209.684 6.42V12.16H218.964V6.42C218.964 6.11333 219.064 5.86667 219.264 5.68C219.464 5.48 219.71 5.38 220.004 5.38C220.31 5.38 220.557 5.48 220.744 5.68C220.93 5.86667 221.024 6.11333 221.024 6.42V19.96C221.024 20.2533 220.93 20.5 220.744 20.7C220.557 20.9 220.31 21 220.004 21C219.71 21 219.464 20.9 219.264 20.7C219.064 20.5 218.964 20.2533 218.964 19.96V14H209.684V19.96C209.684 20.2533 209.584 20.5 209.384 20.7C209.197 20.9 208.95 21 208.644 21ZM226.065 21C225.772 21 225.525 20.9 225.325 20.7C225.125 20.5 225.025 20.2533 225.025 19.96V6.42C225.025 6.11333 225.125 5.86667 225.325 5.68C225.525 5.48 225.772 5.38 226.065 5.38C226.372 5.38 226.619 5.48 226.805 5.68C227.005 5.86667 227.105 6.11333 227.105 6.42V12.16H236.385V6.42C236.385 6.11333 236.485 5.86667 236.685 5.68C236.885 5.48 237.132 5.38 237.425 5.38C237.732 5.38 237.979 5.48 238.165 5.68C238.352 5.86667 238.445 6.11333 238.445 6.42V19.96C238.445 20.2533 238.352 20.5 238.165 20.7C237.979 20.9 237.732 21 237.425 21C237.132 21 236.885 20.9 236.685 20.7C236.485 20.5 236.385 20.2533 236.385 19.96V14H227.105V19.96C227.105 20.2533 227.005 20.5 226.805 20.7C226.619 20.9 226.372 21 226.065 21ZM249.667 21.2C248.494 21.2 247.421 21.0067 246.447 20.62C245.474 20.22 244.634 19.6667 243.927 18.96C243.234 18.24 242.694 17.3933 242.307 16.42C241.921 15.4333 241.727 14.3533 241.727 13.18C241.727 12.0067 241.921 10.9333 242.307 9.96C242.694 8.98667 243.234 8.14667 243.927 7.44C244.634 6.72 245.474 6.16667 246.447 5.78C247.421 5.38 248.494 5.18 249.667 5.18C250.841 5.18 251.907 5.38 252.867 5.78C253.841 6.16667 254.681 6.72 255.387 7.44C256.094 8.14667 256.641 8.98667 257.027 9.96C257.414 10.9333 257.607 12.0067 257.607 13.18C257.607 14.3533 257.414 15.4333 257.027 16.42C256.641 17.3933 256.094 18.24 255.387 18.96C254.681 19.6667 253.841 20.22 252.867 20.62C251.907 21.0067 250.841 21.2 249.667 21.2ZM249.667 19.32C250.827 19.32 251.854 19.0533 252.747 18.52C253.641 17.9733 254.341 17.24 254.847 16.32C255.354 15.3867 255.607 14.34 255.607 13.18C255.607 12.02 255.354 10.98 254.847 10.06C254.341 9.12667 253.641 8.39333 252.747 7.86C251.854 7.32667 250.827 7.06 249.667 7.06C248.507 7.06 247.481 7.32667 246.587 7.86C245.694 8.39333 244.994 9.12667 244.487 10.06C243.981 10.98 243.727 12.02 243.727 13.18C243.727 14.34 243.981 15.3867 244.487 16.32C244.994 17.24 245.694 17.9733 246.587 18.52C247.481 19.0533 248.507 19.32 249.667 19.32ZM261.945 21C261.652 21 261.399 20.9 261.185 20.7C260.972 20.5 260.865 20.2533 260.865 19.96V6.42C260.865 6.11333 260.972 5.86667 261.185 5.68C261.399 5.48 261.652 5.38 261.945 5.38C262.252 5.38 262.492 5.48 262.665 5.68C262.852 5.86667 262.945 6.11333 262.945 6.42V17.76L272.545 5.76C272.759 5.50667 273.025 5.38 273.345 5.38C273.652 5.38 273.899 5.48 274.085 5.68C274.285 5.86667 274.385 6.11333 274.385 6.42V19.96C274.385 20.2533 274.285 20.5 274.085 20.7C273.899 20.9 273.652 21 273.345 21C273.052 21 272.805 20.9 272.605 20.7C272.405 20.5 272.305 20.2533 272.305 19.96V8.64L262.745 20.64C262.652 20.7467 262.532 20.8333 262.385 20.9C262.239 20.9667 262.092 21 261.945 21ZM267.645 3.94C266.965 3.94 266.352 3.82667 265.805 3.6C265.259 3.36 264.825 3.04 264.505 2.64C264.185 2.22667 264.025 1.76667 264.025 1.26C264.025 0.979999 264.112 0.746666 264.285 0.559999C264.459 0.373333 264.672 0.28 264.925 0.28C265.192 0.28 265.405 0.373333 265.565 0.559999C265.739 0.746666 265.825 0.979999 265.825 1.26C265.825 1.59333 265.999 1.88 266.345 2.12C266.692 2.34667 267.125 2.46 267.645 2.46C268.165 2.46 268.599 2.34667 268.945 2.12C269.292 1.88 269.465 1.59333 269.465 1.26C269.465 0.979999 269.552 0.746666 269.725 0.559999C269.899 0.373333 270.112 0.28 270.365 0.28C270.632 0.28 270.845 0.373333 271.005 0.559999C271.179 0.746666 271.265 0.979999 271.265 1.26C271.265 1.76667 271.105 2.22667 270.785 2.64C270.465 3.04 270.032 3.36 269.485 3.6C268.952 3.82667 268.339 3.94 267.645 3.94ZM284.184 21C283.877 21 283.644 20.9067 283.484 20.72C283.324 20.52 283.244 20.2933 283.244 20.04C283.244 19.7733 283.324 19.5333 283.484 19.32L288.144 13.12L283.744 7.02C283.584 6.80667 283.517 6.57333 283.544 6.32C283.571 6.06667 283.664 5.84667 283.824 5.66C283.997 5.47333 284.224 5.38 284.504 5.38C284.851 5.38 285.097 5.48 285.244 5.68L289.544 11.64L294.024 5.68C294.211 5.48 294.457 5.38 294.764 5.38C295.044 5.38 295.264 5.46667 295.424 5.64C295.584 5.81333 295.671 6.02667 295.684 6.28C295.697 6.53333 295.624 6.78 295.464 7.02L290.904 13.1L295.384 19.32C295.544 19.5333 295.617 19.7733 295.604 20.04C295.591 20.3067 295.497 20.5333 295.324 20.72C295.164 20.9067 294.937 21 294.644 21C294.311 21 294.044 20.8733 293.844 20.62L289.504 14.6L284.904 20.7C284.704 20.9 284.464 21 284.184 21ZM304.98 21.2C303.806 21.2 302.733 21.0067 301.76 20.62C300.786 20.22 299.946 19.6667 299.24 18.96C298.546 18.24 298.006 17.3933 297.62 16.42C297.233 15.4333 297.04 14.3533 297.04 13.18C297.04 12.0067 297.233 10.9333 297.62 9.96C298.006 8.98667 298.546 8.14667 299.24 7.44C299.946 6.72 300.786 6.16667 301.76 5.78C302.733 5.38 303.806 5.18 304.98 5.18C306.153 5.18 307.22 5.38 308.18 5.78C309.153 6.16667 309.993 6.72 310.7 7.44C311.406 8.14667 311.953 8.98667 312.34 9.96C312.726 10.9333 312.92 12.0067 312.92 13.18C312.92 14.3533 312.726 15.4333 312.34 16.42C311.953 17.3933 311.406 18.24 310.7 18.96C309.993 19.6667 309.153 20.22 308.18 20.62C307.22 21.0067 306.153 21.2 304.98 21.2ZM304.98 19.32C306.14 19.32 307.166 19.0533 308.06 18.52C308.953 17.9733 309.653 17.24 310.16 16.32C310.666 15.3867 310.92 14.34 310.92 13.18C310.92 12.02 310.666 10.98 310.16 10.06C309.653 9.12667 308.953 8.39333 308.06 7.86C307.166 7.32667 306.14 7.06 304.98 7.06C303.82 7.06 302.793 7.32667 301.9 7.86C301.006 8.39333 300.306 9.12667 299.8 10.06C299.293 10.98 299.04 12.02 299.04 13.18C299.04 14.34 299.293 15.3867 299.8 16.32C300.306 17.24 301.006 17.9733 301.9 18.52C302.793 19.0533 303.82 19.32 304.98 19.32ZM317.218 21C316.924 21 316.678 20.9 316.478 20.7C316.278 20.5 316.178 20.2533 316.178 19.96V6.42C316.178 6.11333 316.278 5.86667 316.478 5.68C316.678 5.48 316.924 5.38 317.218 5.38H321.218C322.218 5.38 323.104 5.6 323.878 6.04C324.651 6.48 325.251 7.09333 325.678 7.88C326.118 8.65333 326.338 9.54667 326.338 10.56C326.338 11.5333 326.118 12.4 325.678 13.16C325.251 13.92 324.651 14.5133 323.878 14.94C323.104 15.3667 322.218 15.58 321.218 15.58H318.258V19.96C318.258 20.2533 318.158 20.5 317.958 20.7C317.771 20.9 317.524 21 317.218 21ZM318.258 13.66H321.218C322.124 13.66 322.871 13.3733 323.458 12.8C324.044 12.2133 324.338 11.4667 324.338 10.56C324.338 9.92 324.204 9.36 323.938 8.88C323.671 8.38667 323.304 8 322.838 7.72C322.371 7.44 321.831 7.3 321.218 7.3H318.258V13.66ZM329.679 21C329.385 21 329.139 20.9 328.939 20.7C328.739 20.5 328.639 20.2533 328.639 19.96V6.42C328.639 6.11333 328.739 5.86667 328.939 5.68C329.139 5.48 329.385 5.38 329.679 5.38H338.719C339.025 5.38 339.272 5.47333 339.459 5.66C339.645 5.83333 339.739 6.06667 339.739 6.36C339.739 6.64 339.645 6.86667 339.459 7.04C339.272 7.21333 339.025 7.3 338.719 7.3H330.719V12.16H336.459C336.765 12.16 337.012 12.2533 337.199 12.44C337.385 12.6133 337.479 12.84 337.479 13.12C337.479 13.4 337.385 13.6333 337.199 13.82C337.012 13.9933 336.765 14.08 336.459 14.08H330.719V19.08H338.719C339.025 19.08 339.272 19.1667 339.459 19.34C339.645 19.5133 339.739 19.74 339.739 20.02C339.739 20.3133 339.645 20.5533 339.459 20.74C339.272 20.9133 339.025 21 338.719 21H329.679ZM349.863 21.2C348.689 21.2 347.616 21.0067 346.643 20.62C345.669 20.22 344.829 19.6667 344.123 18.96C343.429 18.24 342.889 17.3933 342.503 16.42C342.116 15.4333 341.923 14.3533 341.923 13.18C341.923 12.0067 342.116 10.9333 342.503 9.96C342.889 8.98667 343.429 8.14667 344.123 7.44C344.829 6.72 345.669 6.16667 346.643 5.78C347.616 5.38 348.689 5.18 349.863 5.18C351.036 5.18 352.103 5.38 353.063 5.78C354.036 6.16667 354.876 6.72 355.583 7.44C356.289 8.14667 356.836 8.98667 357.223 9.96C357.609 10.9333 357.803 12.0067 357.803 13.18C357.803 14.3533 357.609 15.4333 357.223 16.42C356.836 17.3933 356.289 18.24 355.583 18.96C354.876 19.6667 354.036 20.22 353.063 20.62C352.103 21.0067 351.036 21.2 349.863 21.2ZM349.863 19.32C351.023 19.32 352.049 19.0533 352.943 18.52C353.836 17.9733 354.536 17.24 355.043 16.32C355.549 15.3867 355.803 14.34 355.803 13.18C355.803 12.02 355.549 10.98 355.043 10.06C354.536 9.12667 353.836 8.39333 352.943 7.86C352.049 7.32667 351.023 7.06 349.863 7.06C348.703 7.06 347.676 7.32667 346.783 7.86C345.889 8.39333 345.189 9.12667 344.683 10.06C344.176 10.98 343.923 12.02 343.923 13.18C343.923 14.34 344.176 15.3867 344.683 16.32C345.189 17.24 345.889 17.9733 346.783 18.52C347.676 19.0533 348.703 19.32 349.863 19.32ZM362.101 21C361.807 21 361.561 20.9 361.361 20.7C361.161 20.5 361.061 20.2533 361.061 19.96V6.42C361.061 6.11333 361.161 5.86667 361.361 5.68C361.561 5.48 361.807 5.38 362.101 5.38H370.361C370.667 5.38 370.914 5.47333 371.101 5.66C371.287 5.83333 371.381 6.06667 371.381 6.36C371.381 6.64 371.287 6.86667 371.101 7.04C370.914 7.21333 370.667 7.3 370.361 7.3H363.141V19.96C363.141 20.2533 363.041 20.5 362.841 20.7C362.641 20.9 362.394 21 362.101 21ZM374.62 21C374.327 21 374.08 20.9 373.88 20.7C373.68 20.5 373.58 20.2533 373.58 19.96V6.42C373.58 6.11333 373.68 5.86667 373.88 5.68C374.08 5.48 374.327 5.38 374.62 5.38H378.62C379.62 5.38 380.507 5.6 381.28 6.04C382.053 6.48 382.653 7.09333 383.08 7.88C383.52 8.65333 383.74 9.54667 383.74 10.56C383.74 11.5333 383.52 12.4 383.08 13.16C382.653 13.92 382.053 14.5133 381.28 14.94C380.507 15.3667 379.62 15.58 378.62 15.58H375.66V19.96C375.66 20.2533 375.56 20.5 375.36 20.7C375.173 20.9 374.927 21 374.62 21ZM375.66 13.66H378.62C379.527 13.66 380.273 13.3733 380.86 12.8C381.447 12.2133 381.74 11.4667 381.74 10.56C381.74 9.92 381.607 9.36 381.34 8.88C381.073 8.38667 380.707 8 380.24 7.72C379.773 7.44 379.233 7.3 378.62 7.3H375.66V13.66ZM384.816 21C384.442 21 384.156 20.84 383.956 20.52C383.756 20.2 383.736 19.86 383.896 19.5L389.516 6.08C389.716 5.61333 390.042 5.38 390.496 5.38C390.976 5.38 391.302 5.61333 391.476 6.08L397.116 19.54C397.262 19.9133 397.236 20.2533 397.036 20.56C396.849 20.8533 396.562 21 396.176 21C395.976 21 395.782 20.9467 395.596 20.84C395.422 20.72 395.296 20.56 395.216 20.36L394.096 17.56H386.916L385.776 20.36C385.682 20.5733 385.542 20.7333 385.356 20.84C385.182 20.9467 385.002 21 384.816 21ZM387.616 15.84H393.396L390.536 8.72L387.616 15.84ZM405.967 21C405.674 21 405.427 20.9 405.227 20.7C405.027 20.5 404.927 20.2533 404.927 19.96V19.16C403.634 19.04 402.494 18.7133 401.507 18.18C400.534 17.6467 399.767 16.9533 399.207 16.1C398.661 15.2333 398.387 14.26 398.387 13.18C398.387 12.1 398.661 11.1333 399.207 10.28C399.767 9.42667 400.534 8.73333 401.507 8.2C402.494 7.66667 403.634 7.34 404.927 7.22V6.42C404.927 6.11333 405.027 5.86667 405.227 5.68C405.427 5.48 405.674 5.38 405.967 5.38C406.274 5.38 406.521 5.48 406.707 5.68C406.907 5.86667 407.007 6.11333 407.007 6.42V7.24C408.287 7.36 409.407 7.68667 410.367 8.22C411.341 8.75333 412.101 9.44667 412.647 10.3C413.194 11.1533 413.467 12.1133 413.467 13.18C413.467 14.26 413.194 15.2267 412.647 16.08C412.101 16.9333 411.341 17.6267 410.367 18.16C409.407 18.6933 408.287 19.02 407.007 19.14V19.96C407.007 20.2533 406.907 20.5 406.707 20.7C406.521 20.9 406.274 21 405.967 21ZM400.387 13.18C400.387 13.9667 400.581 14.6667 400.967 15.28C401.367 15.8933 401.914 16.3867 402.607 16.76C403.301 17.1333 404.107 17.3733 405.027 17.48V8.9C404.107 9.00667 403.301 9.24667 402.607 9.62C401.914 9.99333 401.367 10.4867 400.967 11.1C400.581 11.7 400.387 12.3933 400.387 13.18ZM411.467 13.18C411.467 12.4067 411.274 11.72 410.887 11.12C410.514 10.5067 409.981 10.0133 409.287 9.64C408.607 9.26667 407.814 9.02667 406.907 8.92V17.46C407.814 17.3533 408.607 17.1133 409.287 16.74C409.981 16.3667 410.514 15.88 410.887 15.28C411.274 14.6667 411.467 13.9667 411.467 13.18ZM417.805 21C417.511 21 417.258 20.9 417.045 20.7C416.831 20.5 416.725 20.2533 416.725 19.96V6.42C416.725 6.11333 416.831 5.86667 417.045 5.68C417.258 5.48 417.511 5.38 417.805 5.38C418.111 5.38 418.351 5.48 418.525 5.68C418.711 5.86667 418.805 6.11333 418.805 6.42V17.76L428.405 5.76C428.618 5.50667 428.885 5.38 429.205 5.38C429.511 5.38 429.758 5.48 429.945 5.68C430.145 5.86667 430.245 6.11333 430.245 6.42V19.96C430.245 20.2533 430.145 20.5 429.945 20.7C429.758 20.9 429.511 21 429.205 21C428.911 21 428.665 20.9 428.465 20.7C428.265 20.5 428.165 20.2533 428.165 19.96V8.64L418.605 20.64C418.511 20.7467 418.391 20.8333 418.245 20.9C418.098 20.9667 417.951 21 417.805 21ZM435.324 21C435.031 21 434.777 20.9 434.564 20.7C434.351 20.5 434.244 20.2533 434.244 19.96V6.42C434.244 6.11333 434.351 5.86667 434.564 5.68C434.777 5.48 435.031 5.38 435.324 5.38C435.631 5.38 435.871 5.48 436.044 5.68C436.231 5.86667 436.324 6.11333 436.324 6.42V17.76L445.924 5.76C446.137 5.50667 446.404 5.38 446.724 5.38C447.031 5.38 447.277 5.48 447.464 5.68C447.664 5.86667 447.764 6.11333 447.764 6.42V19.96C447.764 20.2533 447.664 20.5 447.464 20.7C447.277 20.9 447.031 21 446.724 21C446.431 21 446.184 20.9 445.984 20.7C445.784 20.5 445.684 20.2533 445.684 19.96V8.64L436.124 20.64C436.031 20.7467 435.911 20.8333 435.764 20.9C435.617 20.9667 435.471 21 435.324 21ZM75.6348 57C75.2388 57 74.9058 56.865 74.6358 56.595C74.3658 56.325 74.2308 55.992 74.2308 55.596V37.317C74.2308 36.903 74.3658 36.57 74.6358 36.318C74.9058 36.048 75.2388 35.913 75.6348 35.913H81.0348C82.3848 35.913 83.5818 36.21 84.6258 36.804C85.6698 37.398 86.4798 38.226 87.0558 39.288C87.6498 40.332 87.9468 41.538 87.9468 42.906C87.9468 44.22 87.6498 45.39 87.0558 46.416C86.4798 47.442 85.6698 48.243 84.6258 48.819C83.5818 49.395 82.3848 49.683 81.0348 49.683H77.0388V55.596C77.0388 55.992 76.9038 56.325 76.6338 56.595C76.3818 56.865 76.0488 57 75.6348 57ZM77.0388 47.091H81.0348C82.2588 47.091 83.2668 46.704 84.0588 45.93C84.8508 45.138 85.2468 44.13 85.2468 42.906C85.2468 42.042 85.0668 41.286 84.7068 40.638C84.3468 39.972 83.8518 39.45 83.2218 39.072C82.5918 38.694 81.8628 38.505 81.0348 38.505H77.0388V47.091ZM92.457 57C92.061 57 91.728 56.865 91.458 56.595C91.188 56.325 91.053 55.992 91.053 55.596V37.317C91.053 36.903 91.188 36.57 91.458 36.318C91.728 36.048 92.061 35.913 92.457 35.913H104.661C105.075 35.913 105.408 36.039 105.66 36.291C105.912 36.525 106.038 36.84 106.038 37.236C106.038 37.614 105.912 37.92 105.66 38.154C105.408 38.388 105.075 38.505 104.661 38.505H93.861V45.066H101.61C102.024 45.066 102.357 45.192 102.609 45.444C102.861 45.678 102.987 45.984 102.987 46.362C102.987 46.74 102.861 47.055 102.609 47.307C102.357 47.541 102.024 47.658 101.61 47.658H93.861V54.408H104.661C105.075 54.408 105.408 54.525 105.66 54.759C105.912 54.993 106.038 55.299 106.038 55.677C106.038 56.073 105.912 56.397 105.66 56.649C105.408 56.883 105.075 57 104.661 57H92.457ZM111.362 57C110.966 57 110.633 56.865 110.363 56.595C110.093 56.325 109.958 55.992 109.958 55.596V37.317C109.958 36.903 110.093 36.57 110.363 36.318C110.633 36.048 110.966 35.913 111.362 35.913H117.815C119.039 35.913 120.11 36.156 121.028 36.642C121.964 37.11 122.693 37.767 123.215 38.613C123.755 39.459 124.025 40.431 124.025 41.529C124.025 42.411 123.782 43.212 123.296 43.932C122.828 44.634 122.18 45.192 121.352 45.606C122.54 45.894 123.494 46.461 124.214 47.307C124.934 48.153 125.294 49.26 125.294 50.628C125.294 51.87 124.997 52.968 124.403 53.922C123.827 54.876 123.017 55.632 121.973 56.19C120.929 56.73 119.732 57 118.382 57H111.362ZM112.766 44.58H117.815C118.841 44.58 119.678 44.328 120.326 43.824C120.992 43.32 121.325 42.555 121.325 41.529C121.325 40.503 120.992 39.747 120.326 39.261C119.678 38.757 118.841 38.505 117.815 38.505H112.766V44.58ZM112.766 54.408H118.382C119.606 54.408 120.614 54.093 121.406 53.463C122.198 52.815 122.594 51.87 122.594 50.628C122.594 49.476 122.198 48.612 121.406 48.036C120.614 47.46 119.606 47.172 118.382 47.172H112.766V54.408ZM138.69 57.27C137.106 57.27 135.657 57.009 134.343 56.487C133.029 55.947 131.895 55.2 130.941 54.246C130.005 53.274 129.276 52.131 128.754 50.817C128.232 49.485 127.971 48.027 127.971 46.443C127.971 44.859 128.232 43.41 128.754 42.096C129.276 40.782 130.005 39.648 130.941 38.694C131.895 37.722 133.029 36.975 134.343 36.453C135.657 35.913 137.106 35.643 138.69 35.643C140.274 35.643 141.714 35.913 143.01 36.453C144.324 36.975 145.458 37.722 146.412 38.694C147.366 39.648 148.104 40.782 148.626 42.096C149.148 43.41 149.409 44.859 149.409 46.443C149.409 48.027 149.148 49.485 148.626 50.817C148.104 52.131 147.366 53.274 146.412 54.246C145.458 55.2 144.324 55.947 143.01 56.487C141.714 57.009 140.274 57.27 138.69 57.27ZM138.69 54.732C140.256 54.732 141.642 54.372 142.848 53.652C144.054 52.914 144.999 51.924 145.683 50.682C146.367 49.422 146.709 48.009 146.709 46.443C146.709 44.877 146.367 43.473 145.683 42.231C144.999 40.971 144.054 39.981 142.848 39.261C141.642 38.541 140.256 38.181 138.69 38.181C137.124 38.181 135.738 38.541 134.532 39.261C133.326 39.981 132.381 40.971 131.697 42.231C131.013 43.473 130.671 44.877 130.671 46.443C130.671 48.009 131.013 49.422 131.697 50.682C132.381 51.924 133.326 52.914 134.532 53.652C135.738 54.372 137.124 54.732 138.69 54.732ZM152.497 57C151.993 57 151.606 56.784 151.336 56.352C151.066 55.92 151.039 55.461 151.255 54.975L158.842 36.858C159.112 36.228 159.553 35.913 160.165 35.913C160.813 35.913 161.254 36.228 161.488 36.858L169.102 55.029C169.3 55.533 169.273 55.992 169.021 56.406C168.787 56.802 168.409 57 167.887 57C167.617 57 167.356 56.928 167.104 56.784C166.87 56.622 166.699 56.406 166.591 56.136L160.273 40.557L153.793 56.136C153.667 56.424 153.478 56.64 153.226 56.784C152.992 56.928 152.749 57 152.497 57ZM173.879 57C173.483 57 173.15 56.865 172.88 56.595C172.61 56.325 172.475 55.992 172.475 55.596V37.317C172.475 36.903 172.61 36.57 172.88 36.318C173.15 36.048 173.483 35.913 173.879 35.913C174.293 35.913 174.626 36.048 174.878 36.318C175.148 36.57 175.283 36.903 175.283 37.317V45.066H179.684C179.864 43.212 180.395 41.574 181.277 40.152C182.177 38.73 183.356 37.623 184.814 36.831C186.272 36.039 187.928 35.643 189.782 35.643C191.33 35.643 192.734 35.913 193.994 36.453C195.272 36.975 196.379 37.722 197.315 38.694C198.251 39.648 198.971 40.782 199.475 42.096C199.979 43.41 200.231 44.859 200.231 46.443C200.231 48.027 199.979 49.485 199.475 50.817C198.971 52.131 198.251 53.274 197.315 54.246C196.379 55.2 195.272 55.947 193.994 56.487C192.734 57.009 191.33 57.27 189.782 57.27C187.892 57.27 186.209 56.865 184.733 56.055C183.275 55.227 182.096 54.084 181.196 52.626C180.314 51.168 179.801 49.476 179.657 47.55H175.283V55.596C175.283 55.992 175.148 56.325 174.878 56.595C174.626 56.865 174.293 57 173.879 57ZM189.782 54.732C191.294 54.732 192.626 54.372 193.778 53.652C194.948 52.914 195.866 51.924 196.532 50.682C197.198 49.422 197.531 48.009 197.531 46.443C197.531 44.877 197.198 43.473 196.532 42.231C195.866 40.971 194.948 39.981 193.778 39.261C192.626 38.541 191.294 38.181 189.782 38.181C188.324 38.181 187.028 38.541 185.894 39.261C184.778 39.981 183.896 40.971 183.248 42.231C182.618 43.473 182.303 44.877 182.303 46.443C182.303 48.009 182.618 49.422 183.248 50.682C183.896 51.924 184.778 52.914 185.894 53.652C187.028 54.372 188.324 54.732 189.782 54.732ZM223.219 61.806C222.823 61.806 222.49 61.671 222.22 61.401C221.95 61.131 221.815 60.798 221.815 60.402V57H206.047C205.651 57 205.318 56.865 205.048 56.595C204.778 56.325 204.643 55.992 204.643 55.596V37.317C204.643 36.903 204.778 36.57 205.048 36.318C205.318 36.048 205.651 35.913 206.047 35.913C206.461 35.913 206.794 36.048 207.046 36.318C207.316 36.57 207.451 36.903 207.451 37.317V54.516H219.007V37.317C219.007 36.903 219.142 36.57 219.412 36.318C219.682 36.048 220.015 35.913 220.411 35.913C220.825 35.913 221.158 36.048 221.41 36.318C221.68 36.57 221.815 36.903 221.815 37.317V54.516H223.219C223.633 54.516 223.966 54.651 224.218 54.921C224.488 55.173 224.623 55.506 224.623 55.92V60.402C224.623 60.798 224.488 61.131 224.218 61.401C223.966 61.671 223.633 61.806 223.219 61.806ZM229.726 57C229.33 57 228.988 56.865 228.7 56.595C228.412 56.325 228.268 55.992 228.268 55.596V37.317C228.268 36.903 228.412 36.57 228.7 36.318C228.988 36.048 229.33 35.913 229.726 35.913C230.14 35.913 230.464 36.048 230.698 36.318C230.95 36.57 231.076 36.903 231.076 37.317V52.626L244.036 36.426C244.324 36.084 244.684 35.913 245.116 35.913C245.53 35.913 245.863 36.048 246.115 36.318C246.385 36.57 246.52 36.903 246.52 37.317V55.596C246.52 55.992 246.385 56.325 246.115 56.595C245.863 56.865 245.53 57 245.116 57C244.72 57 244.387 56.865 244.117 56.595C243.847 56.325 243.712 55.992 243.712 55.596V40.314L230.806 56.514C230.68 56.658 230.518 56.775 230.32 56.865C230.122 56.955 229.924 57 229.726 57ZM252.648 57C252.072 57 251.667 56.775 251.433 56.325C251.199 55.857 251.244 55.362 251.568 54.84L255.672 48.252C254.322 47.838 253.242 47.136 252.432 46.146C251.64 45.138 251.244 43.941 251.244 42.555C251.244 41.259 251.541 40.116 252.135 39.126C252.729 38.118 253.539 37.335 254.565 36.777C255.609 36.201 256.806 35.913 258.156 35.913H264.663C265.077 35.913 265.41 36.048 265.662 36.318C265.932 36.57 266.067 36.903 266.067 37.317V55.596C266.067 55.992 265.932 56.325 265.662 56.595C265.41 56.865 265.077 57 264.663 57C264.267 57 263.934 56.865 263.664 56.595C263.394 56.325 263.259 55.992 263.259 55.596V48.873H258.48L253.863 56.325C253.575 56.775 253.17 57 252.648 57ZM258.156 46.389H263.259V38.505H258.156C256.932 38.505 255.924 38.847 255.132 39.531C254.34 40.215 253.944 41.223 253.944 42.555C253.944 43.797 254.34 44.751 255.132 45.417C255.924 46.065 256.932 46.389 258.156 46.389ZM285.604 57C285.208 57 284.875 56.865 284.605 56.595C284.335 56.325 284.2 55.992 284.2 55.596V38.505H278.368C277.99 38.505 277.675 38.388 277.423 38.154C277.189 37.902 277.072 37.587 277.072 37.209C277.072 36.831 277.189 36.525 277.423 36.291C277.675 36.039 277.99 35.913 278.368 35.913H292.813C293.191 35.913 293.497 36.039 293.731 36.291C293.983 36.525 294.109 36.831 294.109 37.209C294.109 37.587 293.983 37.902 293.731 38.154C293.497 38.388 293.191 38.505 292.813 38.505H287.008V55.596C287.008 55.992 286.873 56.325 286.603 56.595C286.333 56.865 286 57 285.604 57ZM294.219 57C293.715 57 293.328 56.784 293.058 56.352C292.788 55.92 292.761 55.461 292.977 54.975L300.564 36.858C300.834 36.228 301.275 35.913 301.887 35.913C302.535 35.913 302.976 36.228 303.21 36.858L310.824 55.029C311.022 55.533 310.986 55.992 310.716 56.406C310.464 56.802 310.077 57 309.555 57C309.285 57 309.024 56.928 308.772 56.784C308.538 56.622 308.367 56.406 308.259 56.136L306.747 52.356H297.054L295.515 56.136C295.389 56.424 295.2 56.64 294.948 56.784C294.714 56.928 294.471 57 294.219 57ZM297.999 50.034H305.802L301.941 40.422L297.999 50.034ZM315.444 57C315.048 57 314.715 56.865 314.445 56.595C314.175 56.325 314.04 55.992 314.04 55.596V37.317C314.04 36.903 314.175 36.57 314.445 36.318C314.715 36.048 315.048 35.913 315.444 35.913C315.858 35.913 316.191 36.048 316.443 36.318C316.713 36.57 316.848 36.903 316.848 37.317V45.066H329.376V37.317C329.376 36.903 329.511 36.57 329.781 36.318C330.051 36.048 330.384 35.913 330.78 35.913C331.194 35.913 331.527 36.048 331.779 36.318C332.031 36.57 332.157 36.903 332.157 37.317V55.596C332.157 55.992 332.031 56.325 331.779 56.595C331.527 56.865 331.194 57 330.78 57C330.384 57 330.051 56.865 329.781 56.595C329.511 56.325 329.376 55.992 329.376 55.596V47.55H316.848V55.596C316.848 55.992 316.713 56.325 316.443 56.595C316.191 56.865 315.858 57 315.444 57ZM356.136 61.806C355.74 61.806 355.407 61.671 355.137 61.401C354.867 61.131 354.732 60.798 354.732 60.402V57H338.964C338.568 57 338.235 56.865 337.965 56.595C337.695 56.325 337.56 55.992 337.56 55.596V37.317C337.56 36.903 337.695 36.57 337.965 36.318C338.235 36.048 338.568 35.913 338.964 35.913C339.378 35.913 339.711 36.048 339.963 36.318C340.233 36.57 340.368 36.903 340.368 37.317V54.516H351.924V37.317C351.924 36.903 352.059 36.57 352.329 36.318C352.599 36.048 352.932 35.913 353.328 35.913C353.742 35.913 354.075 36.048 354.327 36.318C354.597 36.57 354.732 36.903 354.732 37.317V54.516H356.136C356.55 54.516 356.883 54.651 357.135 54.921C357.405 55.173 357.54 55.506 357.54 55.92V60.402C357.54 60.798 357.405 61.131 357.135 61.401C356.883 61.671 356.55 61.806 356.136 61.806ZM360.348 57C359.844 57 359.457 56.784 359.187 56.352C358.917 55.92 358.89 55.461 359.106 54.975L366.693 36.858C366.963 36.228 367.404 35.913 368.016 35.913C368.664 35.913 369.105 36.228 369.339 36.858L376.953 55.029C377.151 55.533 377.115 55.992 376.845 56.406C376.593 56.802 376.206 57 375.684 57C375.414 57 375.153 56.928 374.901 56.784C374.667 56.622 374.496 56.406 374.388 56.136L372.876 52.356H363.183L361.644 56.136C361.518 56.424 361.329 56.64 361.077 56.784C360.843 56.928 360.6 57 360.348 57ZM364.128 50.034H371.931L368.07 40.422L364.128 50.034Z" fill="#FF0302" style="mix-blend-mode:screen"/>
</svg>
