<svg width="353" height="51" viewBox="0 0 353 51" fill="none" xmlns="http://www.w3.org/2000/svg">
<path d="M6.43475 17.16C5.57075 17.16 4.76008 16.9947 4.00275 16.664C3.25608 16.3333 2.59475 15.8747 2.01875 15.288C1.45342 14.6907 1.01075 14.008 0.69075 13.24C0.37075 12.4613 0.21075 11.6293 0.21075 10.744C0.21075 9.86933 0.365417 9.048 0.67475 8.28C0.99475 7.50133 1.43742 6.81867 2.00275 6.232C2.57875 5.64533 3.24008 5.18667 3.98675 4.856C4.74408 4.51467 5.56008 4.344 6.43475 4.344C7.20275 4.344 7.90142 4.456 8.53075 4.68C9.16008 4.904 9.76808 5.26133 10.3548 5.752C10.4934 5.85867 10.5521 5.99733 10.5308 6.168C10.5094 6.328 10.4294 6.44 10.2908 6.504C10.2588 6.632 10.1574 6.712 9.98675 6.744C9.82675 6.776 9.66675 6.728 9.50675 6.6C9.09075 6.23733 8.63742 5.97067 8.14675 5.8C7.65608 5.61867 7.08542 5.528 6.43475 5.528C5.74142 5.528 5.09075 5.66667 4.48275 5.944C3.88542 6.22133 3.35742 6.6 2.89875 7.08C2.44008 7.56 2.07742 8.11467 1.81075 8.744C1.55475 9.37333 1.42675 10.04 1.42675 10.744C1.42675 11.4693 1.55475 12.1467 1.81075 12.776C2.07742 13.4053 2.44008 13.96 2.89875 14.44C3.35742 14.92 3.88542 15.2987 4.48275 15.576C5.09075 15.8427 5.74142 15.976 6.43475 15.976C7.58675 15.976 8.63742 15.6027 9.58675 14.856C9.77875 14.7067 9.98142 14.6853 10.1948 14.792C10.4188 14.8987 10.5308 15.08 10.5308 15.336C10.5308 15.5067 10.4721 15.656 10.3548 15.784C9.81075 16.2853 9.20275 16.6427 8.53075 16.856C7.85875 17.0587 7.16008 17.16 6.43475 17.16ZM16.7945 17C16.6238 17 16.4745 16.9413 16.3465 16.824C16.2292 16.696 16.1705 16.5467 16.1705 16.376V5.64H12.3785C12.2078 5.64 12.0692 5.58667 11.9625 5.48C11.8558 5.37333 11.8025 5.24 11.8025 5.08C11.8025 4.90933 11.8558 4.77067 11.9625 4.664C12.0692 4.55733 12.2078 4.504 12.3785 4.504H21.2265C21.3972 4.504 21.5358 4.55733 21.6425 4.664C21.7492 4.77067 21.8025 4.90933 21.8025 5.08C21.8025 5.24 21.7492 5.37333 21.6425 5.48C21.5358 5.58667 21.3972 5.64 21.2265 5.64H17.4185V16.376C17.4185 16.5467 17.3598 16.696 17.2425 16.824C17.1252 16.9413 16.9758 17 16.7945 17ZM25.1029 17.128C24.6122 17.128 24.1375 16.968 23.6789 16.648C23.5189 16.5413 23.4282 16.4133 23.4069 16.264C23.3855 16.104 23.4335 15.9547 23.5509 15.816C23.7749 15.5173 24.0629 15.48 24.4149 15.704C24.6389 15.8533 24.8789 15.928 25.1349 15.928C25.4549 15.928 25.7802 15.784 26.1109 15.496C26.4415 15.208 26.7295 14.7973 26.9749 14.264L27.1509 13.912L22.1269 5.432C21.9242 5.08 22.0042 4.808 22.3669 4.616C22.7082 4.41333 22.9802 4.488 23.1829 4.84L27.6949 12.76L31.3909 4.888C31.5615 4.52533 31.8282 4.424 32.1909 4.584C32.5429 4.744 32.6335 5.00533 32.4629 5.368L28.0469 14.76C27.6949 15.5173 27.2629 16.104 26.7509 16.52C26.2389 16.9253 25.6895 17.128 25.1029 17.128ZM34.3053 19.736C34.1133 19.736 33.9586 19.6773 33.8413 19.56C33.7346 19.4533 33.6813 19.304 33.6813 19.112V16.456C33.6813 16.264 33.7346 16.1147 33.8413 16.008C33.9586 15.8907 34.1133 15.832 34.3053 15.832H34.8493L39.3453 4.936C39.4733 4.648 39.6706 4.504 39.9373 4.504C40.2253 4.504 40.4279 4.648 40.5453 4.936L45.0413 15.832H45.6333C45.8253 15.832 45.9746 15.8907 46.0813 16.008C46.1986 16.1147 46.2573 16.264 46.2573 16.456V19.112C46.2573 19.304 46.1986 19.4533 46.0813 19.56C45.9746 19.6773 45.8253 19.736 45.6333 19.736C45.4413 19.736 45.2866 19.6773 45.1693 19.56C45.0626 19.4533 45.0093 19.304 45.0093 19.112V17H34.9293V19.112C34.9293 19.304 34.8706 19.4533 34.7533 19.56C34.6466 19.6773 34.4973 19.736 34.3053 19.736ZM36.1293 15.832H43.7933L39.9373 6.408L36.1293 15.832ZM48.8963 17C48.7256 17 48.5763 16.9413 48.4483 16.824C48.3203 16.7067 48.2563 16.5573 48.2563 16.376V5.128C48.2563 4.94667 48.3203 4.79733 48.4483 4.68C48.5763 4.56267 48.7256 4.504 48.8963 4.504C49.0776 4.504 49.2216 4.56267 49.3283 4.68C49.4456 4.79733 49.5043 4.94667 49.5043 5.128V14.952L57.4883 4.728C57.6056 4.57867 57.7656 4.504 57.9683 4.504C58.1496 4.504 58.2989 4.56267 58.4163 4.68C58.5336 4.79733 58.5923 4.94667 58.5923 5.128V16.376C58.5923 16.5573 58.5336 16.7067 58.4163 16.824C58.2989 16.9413 58.1496 17 57.9683 17C57.7869 17 57.6376 16.9413 57.5203 16.824C57.4029 16.7067 57.3443 16.5573 57.3443 16.376V6.568L49.3603 16.792C49.2536 16.9307 49.0989 17 48.8963 17ZM62.0435 17C61.7555 17 61.5582 16.904 61.4515 16.712C61.3555 16.52 61.3875 16.296 61.5475 16.04L64.2515 11.816C63.7075 11.688 63.2222 11.464 62.7955 11.144C62.3688 10.8133 62.0275 10.4133 61.7715 9.944C61.5262 9.464 61.4035 8.936 61.4035 8.36C61.4035 7.60267 61.5742 6.936 61.9155 6.36C62.2675 5.784 62.7475 5.33067 63.3555 5C63.9635 4.66933 64.6622 4.504 65.4515 4.504H69.1155C69.2968 4.504 69.4462 4.56267 69.5635 4.68C69.6808 4.79733 69.7395 4.94667 69.7395 5.128V16.376C69.7395 16.5573 69.6808 16.7067 69.5635 16.824C69.4462 16.9413 69.2968 17 69.1155 17C68.9342 17 68.7848 16.9413 68.6675 16.824C68.5502 16.7067 68.4915 16.5573 68.4915 16.376V12.104H65.5155L62.5875 16.68C62.5235 16.7867 62.4488 16.8667 62.3635 16.92C62.2782 16.9733 62.1715 17 62.0435 17ZM65.4515 10.936H68.4915V5.704H65.4515C64.6302 5.704 63.9528 5.944 63.4195 6.424C62.8968 6.904 62.6355 7.54933 62.6355 8.36C62.6355 9.13867 62.8968 9.76267 63.4195 10.232C63.9528 10.7013 64.6302 10.936 65.4515 10.936ZM83.2473 17.16C82.3833 17.16 81.5726 16.9947 80.8153 16.664C80.0686 16.3333 79.4073 15.8747 78.8313 15.288C78.2659 14.6907 77.8233 14.008 77.5033 13.24C77.1833 12.4613 77.0233 11.6293 77.0233 10.744C77.0233 9.86933 77.1779 9.048 77.4873 8.28C77.8073 7.50133 78.2499 6.81867 78.8153 6.232C79.3913 5.64533 80.0526 5.18667 80.7993 4.856C81.5566 4.51467 82.3726 4.344 83.2473 4.344C84.0153 4.344 84.7139 4.456 85.3433 4.68C85.9726 4.904 86.5806 5.26133 87.1673 5.752C87.3059 5.85867 87.3646 5.99733 87.3433 6.168C87.3219 6.328 87.2419 6.44 87.1033 6.504C87.0713 6.632 86.9699 6.712 86.7993 6.744C86.6393 6.776 86.4793 6.728 86.3193 6.6C85.9033 6.23733 85.4499 5.97067 84.9593 5.8C84.4686 5.61867 83.8979 5.528 83.2473 5.528C82.5539 5.528 81.9033 5.66667 81.2953 5.944C80.6979 6.22133 80.1699 6.6 79.7113 7.08C79.2526 7.56 78.8899 8.11467 78.6233 8.744C78.3673 9.37333 78.2393 10.04 78.2393 10.744C78.2393 11.4693 78.3673 12.1467 78.6233 12.776C78.8899 13.4053 79.2526 13.96 79.7113 14.44C80.1699 14.92 80.6979 15.2987 81.2953 15.576C81.9033 15.8427 82.5539 15.976 83.2473 15.976C84.3993 15.976 85.4499 15.6027 86.3993 14.856C86.5913 14.7067 86.7939 14.6853 87.0073 14.792C87.2313 14.8987 87.3433 15.08 87.3433 15.336C87.3433 15.5067 87.2846 15.656 87.1673 15.784C86.6233 16.2853 86.0153 16.6427 85.3433 16.856C84.6713 17.0587 83.9726 17.16 83.2473 17.16ZM95.751 17.16C94.823 17.16 93.9697 17 93.191 16.68C92.4123 16.36 91.735 15.912 91.159 15.336C90.5937 14.76 90.151 14.0827 89.831 13.304C89.5217 12.5253 89.367 11.672 89.367 10.744C89.367 9.82667 89.5217 8.97867 89.831 8.2C90.151 7.42133 90.5937 6.744 91.159 6.168C91.735 5.592 92.4123 5.144 93.191 4.824C93.9697 4.504 94.823 4.344 95.751 4.344C96.6683 4.344 97.5163 4.504 98.295 4.824C99.0737 5.144 99.751 5.592 100.327 6.168C100.903 6.744 101.346 7.42133 101.655 8.2C101.975 8.97867 102.135 9.82667 102.135 10.744C102.135 11.672 101.975 12.5253 101.655 13.304C101.346 14.0827 100.903 14.76 100.327 15.336C99.751 15.912 99.0737 16.36 98.295 16.68C97.5163 17 96.6683 17.16 95.751 17.16ZM95.751 15.976C96.487 15.976 97.1697 15.848 97.799 15.592C98.4283 15.3253 98.9723 14.9573 99.431 14.488C99.9003 14.008 100.263 13.4533 100.519 12.824C100.775 12.184 100.903 11.4907 100.903 10.744C100.903 10.008 100.775 9.32533 100.519 8.696C100.263 8.056 99.9003 7.50133 99.431 7.032C98.9723 6.552 98.4283 6.184 97.799 5.928C97.1697 5.66133 96.487 5.528 95.751 5.528C95.0043 5.528 94.3163 5.66133 93.687 5.928C93.0577 6.184 92.5083 6.552 92.039 7.032C91.5803 7.50133 91.223 8.056 90.967 8.696C90.711 9.32533 90.583 10.008 90.583 10.744C90.583 11.4907 90.711 12.184 90.967 12.824C91.223 13.4533 91.5803 14.008 92.039 14.488C92.5083 14.9573 93.0577 15.3253 93.687 15.592C94.3163 15.848 95.0043 15.976 95.751 15.976ZM105.413 17C105.211 17 105.04 16.9467 104.901 16.84C104.773 16.7227 104.709 16.568 104.709 16.376V5.128C104.709 4.94667 104.768 4.79733 104.885 4.68C105.003 4.56267 105.152 4.504 105.333 4.504H109.221C109.861 4.504 110.437 4.64267 110.949 4.92C111.472 5.18667 111.883 5.55467 112.181 6.024C112.491 6.49333 112.645 7.03733 112.645 7.656C112.645 8.232 112.491 8.744 112.181 9.192C111.872 9.64 111.467 9.98133 110.965 10.216C111.68 10.408 112.256 10.7707 112.693 11.304C113.131 11.8267 113.349 12.4933 113.349 13.304C113.349 14.0293 113.184 14.6693 112.853 15.224C112.523 15.7787 112.064 16.216 111.477 16.536C110.901 16.8453 110.24 17 109.493 17H105.413ZM105.957 9.72H109.221C109.861 9.72 110.389 9.53867 110.805 9.176C111.221 8.81333 111.429 8.30667 111.429 7.656C111.429 7.016 111.221 6.53067 110.805 6.2C110.389 5.86933 109.861 5.704 109.221 5.704H105.957V9.72ZM105.957 15.8H109.493C110.261 15.8 110.891 15.576 111.381 15.128C111.872 14.68 112.117 14.072 112.117 13.304C112.117 12.5787 111.872 12.0027 111.381 11.576C110.891 11.1387 110.261 10.92 109.493 10.92H105.957V15.8ZM116.458 17C116.277 17 116.128 16.9413 116.01 16.824C115.893 16.7067 115.834 16.5573 115.834 16.376V5.128C115.834 4.94667 115.893 4.79733 116.01 4.68C116.128 4.56267 116.277 4.504 116.458 4.504H119.658C120.448 4.504 121.146 4.68 121.754 5.032C122.362 5.37333 122.837 5.848 123.178 6.456C123.52 7.064 123.69 7.768 123.69 8.568C123.69 9.34667 123.52 10.04 123.178 10.648C122.837 11.2453 122.362 11.72 121.754 12.072C121.146 12.4133 120.448 12.584 119.658 12.584H117.082V16.376C117.082 16.5573 117.024 16.7067 116.906 16.824C116.789 16.9413 116.64 17 116.458 17ZM117.082 11.384H119.658C120.202 11.384 120.688 11.2667 121.114 11.032C121.541 10.7867 121.872 10.4507 122.106 10.024C122.352 9.59733 122.474 9.112 122.474 8.568C122.474 8.00267 122.352 7.50667 122.106 7.08C121.872 6.65333 121.541 6.31733 121.114 6.072C120.688 5.82667 120.202 5.704 119.658 5.704H117.082V11.384ZM126.255 17C126.074 17 125.925 16.9413 125.807 16.824C125.69 16.7067 125.631 16.5573 125.631 16.376V5.128C125.631 4.94667 125.69 4.79733 125.807 4.68C125.925 4.56267 126.074 4.504 126.255 4.504H133.759C133.93 4.504 134.074 4.56267 134.191 4.68C134.319 4.78667 134.383 4.93067 134.383 5.112C134.383 5.272 134.319 5.41067 134.191 5.528C134.074 5.64533 133.93 5.704 133.759 5.704H126.879V10.12H131.887C132.069 10.12 132.218 10.1787 132.335 10.296C132.453 10.4133 132.511 10.5573 132.511 10.728C132.511 10.8987 132.453 11.0427 132.335 11.16C132.218 11.2773 132.069 11.336 131.887 11.336H126.879V15.8H133.759C133.93 15.8 134.074 15.8587 134.191 15.976C134.319 16.0933 134.383 16.232 134.383 16.392C134.383 16.5733 134.319 16.7227 134.191 16.84C134.074 16.9467 133.93 17 133.759 17H126.255ZM137.333 17C137.163 17 137.013 16.9413 136.885 16.824C136.768 16.696 136.709 16.5467 136.709 16.376V5.128C136.709 4.94667 136.768 4.79733 136.885 4.68C137.013 4.56267 137.163 4.504 137.333 4.504C137.589 4.504 137.776 4.61067 137.893 4.824L143.013 15L148.037 4.824C148.165 4.61067 148.352 4.504 148.597 4.504C148.768 4.504 148.912 4.56267 149.029 4.68C149.147 4.79733 149.205 4.94667 149.205 5.128V16.376C149.205 16.5467 149.147 16.696 149.029 16.824C148.912 16.9413 148.768 17 148.597 17C148.416 17 148.261 16.9413 148.133 16.824C148.016 16.696 147.957 16.5467 147.957 16.376V7.32L143.509 16.408C143.392 16.6107 143.211 16.712 142.965 16.712C142.699 16.712 142.507 16.584 142.389 16.328L137.957 7.464V16.376C137.957 16.5467 137.893 16.696 137.765 16.824C137.648 16.9413 137.504 17 137.333 17ZM153.037 17C152.855 17 152.706 16.9413 152.589 16.824C152.471 16.7067 152.413 16.5573 152.413 16.376V5.128C152.413 4.94667 152.471 4.79733 152.589 4.68C152.706 4.56267 152.855 4.504 153.037 4.504H160.541C160.711 4.504 160.855 4.56267 160.973 4.68C161.101 4.78667 161.165 4.93067 161.165 5.112C161.165 5.272 161.101 5.41067 160.973 5.528C160.855 5.64533 160.711 5.704 160.541 5.704H153.661V10.12H158.669C158.85 10.12 158.999 10.1787 159.117 10.296C159.234 10.4133 159.293 10.5573 159.293 10.728C159.293 10.8987 159.234 11.0427 159.117 11.16C158.999 11.2773 158.85 11.336 158.669 11.336H153.661V15.8H160.541C160.711 15.8 160.855 15.8587 160.973 15.976C161.101 16.0933 161.165 16.232 161.165 16.392C161.165 16.5733 161.101 16.7227 160.973 16.84C160.855 16.9467 160.711 17 160.541 17H153.037ZM164.115 17C163.933 17 163.784 16.9413 163.667 16.824C163.549 16.7067 163.491 16.5573 163.491 16.376V5.128C163.491 4.94667 163.549 4.79733 163.667 4.68C163.784 4.56267 163.933 4.504 164.115 4.504C164.296 4.504 164.445 4.56267 164.563 4.68C164.68 4.79733 164.739 4.94667 164.739 5.128V10.12H172.547V5.128C172.547 4.94667 172.605 4.79733 172.723 4.68C172.84 4.56267 172.989 4.504 173.171 4.504C173.352 4.504 173.501 4.56267 173.619 4.68C173.736 4.79733 173.795 4.94667 173.795 5.128V16.376C173.795 16.5573 173.736 16.7067 173.619 16.824C173.501 16.9413 173.352 17 173.171 17C172.989 17 172.84 16.9413 172.723 16.824C172.605 16.7067 172.547 16.5573 172.547 16.376V11.24H164.739V16.376C164.739 16.5573 164.68 16.7067 164.563 16.824C164.445 16.9413 164.296 17 164.115 17ZM177.615 17C177.433 17 177.284 16.9413 177.167 16.824C177.049 16.7067 176.991 16.5573 176.991 16.376V5.128C176.991 4.94667 177.049 4.79733 177.167 4.68C177.284 4.56267 177.433 4.504 177.615 4.504C177.796 4.504 177.945 4.56267 178.063 4.68C178.18 4.79733 178.239 4.94667 178.239 5.128V10.12H186.047V5.128C186.047 4.94667 186.105 4.79733 186.223 4.68C186.34 4.56267 186.489 4.504 186.671 4.504C186.852 4.504 187.001 4.56267 187.119 4.68C187.236 4.79733 187.295 4.94667 187.295 5.128V16.376C187.295 16.5573 187.236 16.7067 187.119 16.824C187.001 16.9413 186.852 17 186.671 17C186.489 17 186.34 16.9413 186.223 16.824C186.105 16.7067 186.047 16.5573 186.047 16.376V11.24H178.239V16.376C178.239 16.5573 178.18 16.7067 178.063 16.824C177.945 16.9413 177.796 17 177.615 17ZM196.267 17.16C195.339 17.16 194.485 17 193.707 16.68C192.928 16.36 192.251 15.912 191.675 15.336C191.109 14.76 190.667 14.0827 190.347 13.304C190.037 12.5253 189.883 11.672 189.883 10.744C189.883 9.82667 190.037 8.97867 190.347 8.2C190.667 7.42133 191.109 6.744 191.675 6.168C192.251 5.592 192.928 5.144 193.707 4.824C194.485 4.504 195.339 4.344 196.267 4.344C197.184 4.344 198.032 4.504 198.811 4.824C199.589 5.144 200.267 5.592 200.843 6.168C201.419 6.744 201.861 7.42133 202.171 8.2C202.491 8.97867 202.651 9.82667 202.651 10.744C202.651 11.672 202.491 12.5253 202.171 13.304C201.861 14.0827 201.419 14.76 200.843 15.336C200.267 15.912 199.589 16.36 198.811 16.68C198.032 17 197.184 17.16 196.267 17.16ZM196.267 15.976C197.003 15.976 197.685 15.848 198.315 15.592C198.944 15.3253 199.488 14.9573 199.947 14.488C200.416 14.008 200.779 13.4533 201.035 12.824C201.291 12.184 201.419 11.4907 201.419 10.744C201.419 10.008 201.291 9.32533 201.035 8.696C200.779 8.056 200.416 7.50133 199.947 7.032C199.488 6.552 198.944 6.184 198.315 5.928C197.685 5.66133 197.003 5.528 196.267 5.528C195.52 5.528 194.832 5.66133 194.203 5.928C193.573 6.184 193.024 6.552 192.555 7.032C192.096 7.50133 191.739 8.056 191.483 8.696C191.227 9.32533 191.099 10.008 191.099 10.744C191.099 11.4907 191.227 12.184 191.483 12.824C191.739 13.4533 192.096 14.008 192.555 14.488C193.024 14.9573 193.573 15.3253 194.203 15.592C194.832 15.848 195.52 15.976 196.267 15.976ZM205.865 17C205.694 17 205.545 16.9413 205.417 16.824C205.289 16.7067 205.225 16.5573 205.225 16.376V5.128C205.225 4.94667 205.289 4.79733 205.417 4.68C205.545 4.56267 205.694 4.504 205.865 4.504C206.046 4.504 206.19 4.56267 206.297 4.68C206.414 4.79733 206.473 4.94667 206.473 5.128V14.952L214.457 4.728C214.574 4.57867 214.734 4.504 214.937 4.504C215.118 4.504 215.268 4.56267 215.385 4.68C215.502 4.79733 215.561 4.94667 215.561 5.128V16.376C215.561 16.5573 215.502 16.7067 215.385 16.824C215.268 16.9413 215.118 17 214.937 17C214.756 17 214.606 16.9413 214.489 16.824C214.372 16.7067 214.313 16.5573 214.313 16.376V6.568L206.329 16.792C206.222 16.9307 206.068 17 205.865 17ZM210.409 3.368C209.886 3.368 209.417 3.28267 209.001 3.112C208.585 2.93067 208.254 2.68533 208.009 2.376C207.774 2.06667 207.657 1.72 207.657 1.336C207.657 1.16533 207.71 1.02133 207.817 0.903999C207.934 0.786666 208.073 0.727999 208.233 0.727999C208.404 0.727999 208.542 0.786666 208.649 0.903999C208.756 1.02133 208.809 1.18133 208.809 1.384C208.809 1.68267 208.964 1.92267 209.273 2.104C209.582 2.28533 209.961 2.376 210.409 2.376C210.868 2.376 211.246 2.28533 211.545 2.104C211.854 1.92267 212.009 1.68267 212.009 1.384C212.009 1.18133 212.062 1.02133 212.169 0.903999C212.286 0.786666 212.425 0.727999 212.585 0.727999C212.756 0.727999 212.894 0.786666 213.001 0.903999C213.108 1.02133 213.161 1.16533 213.161 1.336C213.161 1.72 213.038 2.06667 212.793 2.376C212.558 2.68533 212.233 2.93067 211.817 3.112C211.401 3.28267 210.932 3.368 210.409 3.368ZM223.188 17C222.921 17 222.74 16.888 222.644 16.664C222.558 16.4293 222.59 16.2053 222.74 15.992L226.692 10.6L222.996 5.48C222.846 5.288 222.82 5.08 222.916 4.856C223.012 4.62133 223.188 4.504 223.444 4.504C223.646 4.504 223.806 4.57867 223.924 4.728L227.556 9.752L231.236 4.728C231.353 4.57867 231.513 4.504 231.716 4.504C231.972 4.504 232.142 4.62133 232.228 4.856C232.324 5.09067 232.308 5.29867 232.18 5.48L228.404 10.616L232.292 15.992C232.441 16.184 232.468 16.4027 232.372 16.648C232.286 16.8827 232.11 17 231.844 17C231.641 17 231.481 16.9253 231.364 16.776L227.54 11.48L223.636 16.808C223.518 16.936 223.369 17 223.188 17ZM239.892 17.16C238.964 17.16 238.11 17 237.332 16.68C236.553 16.36 235.876 15.912 235.3 15.336C234.734 14.76 234.292 14.0827 233.972 13.304C233.662 12.5253 233.508 11.672 233.508 10.744C233.508 9.82667 233.662 8.97867 233.972 8.2C234.292 7.42133 234.734 6.744 235.3 6.168C235.876 5.592 236.553 5.144 237.332 4.824C238.11 4.504 238.964 4.344 239.892 4.344C240.809 4.344 241.657 4.504 242.436 4.824C243.214 5.144 243.892 5.592 244.468 6.168C245.044 6.744 245.486 7.42133 245.796 8.2C246.116 8.97867 246.276 9.82667 246.276 10.744C246.276 11.672 246.116 12.5253 245.796 13.304C245.486 14.0827 245.044 14.76 244.468 15.336C243.892 15.912 243.214 16.36 242.436 16.68C241.657 17 240.809 17.16 239.892 17.16ZM239.892 15.976C240.628 15.976 241.31 15.848 241.94 15.592C242.569 15.3253 243.113 14.9573 243.572 14.488C244.041 14.008 244.404 13.4533 244.66 12.824C244.916 12.184 245.044 11.4907 245.044 10.744C245.044 10.008 244.916 9.32533 244.66 8.696C244.404 8.056 244.041 7.50133 243.572 7.032C243.113 6.552 242.569 6.184 241.94 5.928C241.31 5.66133 240.628 5.528 239.892 5.528C239.145 5.528 238.457 5.66133 237.828 5.928C237.198 6.184 236.649 6.552 236.18 7.032C235.721 7.50133 235.364 8.056 235.108 8.696C234.852 9.32533 234.724 10.008 234.724 10.744C234.724 11.4907 234.852 12.184 235.108 12.824C235.364 13.4533 235.721 14.008 236.18 14.488C236.649 14.9573 237.198 15.3253 237.828 15.592C238.457 15.848 239.145 15.976 239.892 15.976ZM249.474 17C249.293 17 249.143 16.9413 249.026 16.824C248.909 16.7067 248.85 16.5573 248.85 16.376V5.128C248.85 4.94667 248.909 4.79733 249.026 4.68C249.143 4.56267 249.293 4.504 249.474 4.504H252.674C253.463 4.504 254.162 4.68 254.77 5.032C255.378 5.37333 255.853 5.848 256.194 6.456C256.535 7.064 256.706 7.768 256.706 8.568C256.706 9.34667 256.535 10.04 256.194 10.648C255.853 11.2453 255.378 11.72 254.77 12.072C254.162 12.4133 253.463 12.584 252.674 12.584H250.098V16.376C250.098 16.5573 250.039 16.7067 249.922 16.824C249.805 16.9413 249.655 17 249.474 17ZM250.098 11.384H252.674C253.218 11.384 253.703 11.2667 254.13 11.032C254.557 10.7867 254.887 10.4507 255.122 10.024C255.367 9.59733 255.49 9.112 255.49 8.568C255.49 8.00267 255.367 7.50667 255.122 7.08C254.887 6.65333 254.557 6.31733 254.13 6.072C253.703 5.82667 253.218 5.704 252.674 5.704H250.098V11.384ZM259.271 17C259.09 17 258.94 16.9413 258.823 16.824C258.706 16.7067 258.647 16.5573 258.647 16.376V5.128C258.647 4.94667 258.706 4.79733 258.823 4.68C258.94 4.56267 259.09 4.504 259.271 4.504H266.775C266.946 4.504 267.09 4.56267 267.207 4.68C267.335 4.78667 267.399 4.93067 267.399 5.112C267.399 5.272 267.335 5.41067 267.207 5.528C267.09 5.64533 266.946 5.704 266.775 5.704H259.895V10.12H264.903C265.084 10.12 265.234 10.1787 265.351 10.296C265.468 10.4133 265.527 10.5573 265.527 10.728C265.527 10.8987 265.468 11.0427 265.351 11.16C265.234 11.2773 265.084 11.336 264.903 11.336H259.895V15.8H266.775C266.946 15.8 267.09 15.8587 267.207 15.976C267.335 16.0933 267.399 16.232 267.399 16.392C267.399 16.5733 267.335 16.7227 267.207 16.84C267.09 16.9467 266.946 17 266.775 17H259.271ZM275.501 17.16C274.573 17.16 273.72 17 272.941 16.68C272.162 16.36 271.485 15.912 270.909 15.336C270.344 14.76 269.901 14.0827 269.581 13.304C269.272 12.5253 269.117 11.672 269.117 10.744C269.117 9.82667 269.272 8.97867 269.581 8.2C269.901 7.42133 270.344 6.744 270.909 6.168C271.485 5.592 272.162 5.144 272.941 4.824C273.72 4.504 274.573 4.344 275.501 4.344C276.418 4.344 277.266 4.504 278.045 4.824C278.824 5.144 279.501 5.592 280.077 6.168C280.653 6.744 281.096 7.42133 281.405 8.2C281.725 8.97867 281.885 9.82667 281.885 10.744C281.885 11.672 281.725 12.5253 281.405 13.304C281.096 14.0827 280.653 14.76 280.077 15.336C279.501 15.912 278.824 16.36 278.045 16.68C277.266 17 276.418 17.16 275.501 17.16ZM275.501 15.976C276.237 15.976 276.92 15.848 277.549 15.592C278.178 15.3253 278.722 14.9573 279.181 14.488C279.65 14.008 280.013 13.4533 280.269 12.824C280.525 12.184 280.653 11.4907 280.653 10.744C280.653 10.008 280.525 9.32533 280.269 8.696C280.013 8.056 279.65 7.50133 279.181 7.032C278.722 6.552 278.178 6.184 277.549 5.928C276.92 5.66133 276.237 5.528 275.501 5.528C274.754 5.528 274.066 5.66133 273.437 5.928C272.808 6.184 272.258 6.552 271.789 7.032C271.33 7.50133 270.973 8.056 270.717 8.696C270.461 9.32533 270.333 10.008 270.333 10.744C270.333 11.4907 270.461 12.184 270.717 12.824C270.973 13.4533 271.33 14.008 271.789 14.488C272.258 14.9573 272.808 15.3253 273.437 15.592C274.066 15.848 274.754 15.976 275.501 15.976ZM285.083 17C284.913 17 284.763 16.9413 284.635 16.824C284.518 16.696 284.459 16.5467 284.459 16.376V5.128C284.459 4.94667 284.518 4.79733 284.635 4.68C284.753 4.56267 284.902 4.504 285.083 4.504H291.787C291.958 4.504 292.102 4.56267 292.219 4.68C292.347 4.78667 292.411 4.93067 292.411 5.112C292.411 5.272 292.347 5.41067 292.219 5.528C292.102 5.64533 291.958 5.704 291.787 5.704H285.707V16.376C285.707 16.5467 285.643 16.696 285.515 16.824C285.398 16.9413 285.254 17 285.083 17ZM294.88 17C294.699 17 294.55 16.9413 294.432 16.824C294.315 16.7067 294.256 16.5573 294.256 16.376V5.128C294.256 4.94667 294.315 4.79733 294.432 4.68C294.55 4.56267 294.699 4.504 294.88 4.504H298.08C298.87 4.504 299.568 4.68 300.176 5.032C300.784 5.37333 301.259 5.848 301.6 6.456C301.942 7.064 302.112 7.768 302.112 8.568C302.112 9.34667 301.942 10.04 301.6 10.648C301.259 11.2453 300.784 11.72 300.176 12.072C299.568 12.4133 298.87 12.584 298.08 12.584H295.504V16.376C295.504 16.5573 295.446 16.7067 295.328 16.824C295.211 16.9413 295.062 17 294.88 17ZM295.504 11.384H298.08C298.624 11.384 299.11 11.2667 299.536 11.032C299.963 10.7867 300.294 10.4507 300.528 10.024C300.774 9.59733 300.896 9.112 300.896 8.568C300.896 8.00267 300.774 7.50667 300.528 7.08C300.294 6.65333 299.963 6.31733 299.536 6.072C299.11 5.82667 298.624 5.704 298.08 5.704H295.504V11.384ZM302.881 17C302.635 17 302.459 16.8987 302.353 16.696C302.246 16.4933 302.235 16.296 302.321 16.104L307.025 4.936C307.142 4.648 307.345 4.504 307.633 4.504C307.91 4.504 308.107 4.648 308.225 4.936L312.945 16.12C313.041 16.3227 313.025 16.52 312.897 16.712C312.779 16.904 312.609 17 312.385 17C312.097 17 311.899 16.872 311.793 16.616L310.737 14.024H304.529L303.457 16.616C303.403 16.744 303.323 16.84 303.217 16.904C303.121 16.968 303.009 17 302.881 17ZM304.977 12.952H310.289L307.633 6.536L304.977 12.952ZM319.738 17C319.557 17 319.408 16.9413 319.29 16.824C319.173 16.7067 319.114 16.5573 319.114 16.376V15.624C318.101 15.5387 317.2 15.2773 316.41 14.84C315.621 14.4027 315.002 13.832 314.554 13.128C314.117 12.424 313.898 11.6293 313.898 10.744C313.898 9.86933 314.117 9.08 314.554 8.376C315.002 7.672 315.621 7.10133 316.41 6.664C317.2 6.22667 318.101 5.96533 319.114 5.88V5.128C319.114 4.94667 319.173 4.79733 319.29 4.68C319.408 4.56267 319.557 4.504 319.738 4.504C319.92 4.504 320.069 4.56267 320.186 4.68C320.304 4.79733 320.362 4.94667 320.362 5.128V5.864C321.408 5.93867 322.336 6.19467 323.146 6.632C323.957 7.06933 324.592 7.64533 325.05 8.36C325.509 9.064 325.738 9.85867 325.738 10.744C325.738 11.6293 325.509 12.4293 325.05 13.144C324.592 13.8587 323.957 14.4347 323.146 14.872C322.336 15.3093 321.408 15.5653 320.362 15.64V16.376C320.362 16.5573 320.304 16.7067 320.186 16.824C320.069 16.9413 319.92 17 319.738 17ZM324.522 10.744C324.522 10.0613 324.341 9.45333 323.978 8.92C323.616 8.376 323.12 7.93333 322.49 7.592C321.861 7.25067 321.136 7.048 320.314 6.984V14.52C321.136 14.456 321.861 14.2533 322.49 13.912C323.12 13.5707 323.616 13.128 323.978 12.584C324.341 12.04 324.522 11.4267 324.522 10.744ZM315.114 10.744C315.114 11.4267 315.285 12.04 315.626 12.584C315.978 13.1173 316.458 13.5547 317.066 13.896C317.674 14.2267 318.373 14.4293 319.162 14.504V7C318.373 7.07467 317.674 7.28267 317.066 7.624C316.458 7.95467 315.978 8.392 315.626 8.936C315.285 9.46933 315.114 10.072 315.114 10.744ZM328.959 17C328.788 17 328.639 16.9413 328.511 16.824C328.383 16.7067 328.319 16.5573 328.319 16.376V5.128C328.319 4.94667 328.383 4.79733 328.511 4.68C328.639 4.56267 328.788 4.504 328.959 4.504C329.14 4.504 329.284 4.56267 329.391 4.68C329.508 4.79733 329.567 4.94667 329.567 5.128V14.952L337.551 4.728C337.668 4.57867 337.828 4.504 338.031 4.504C338.212 4.504 338.361 4.56267 338.479 4.68C338.596 4.79733 338.655 4.94667 338.655 5.128V16.376C338.655 16.5573 338.596 16.7067 338.479 16.824C338.361 16.9413 338.212 17 338.031 17C337.849 17 337.7 16.9413 337.583 16.824C337.465 16.7067 337.407 16.5573 337.407 16.376V6.568L329.423 16.792C329.316 16.9307 329.161 17 328.959 17ZM342.49 17C342.319 17 342.17 16.9413 342.042 16.824C341.914 16.7067 341.85 16.5573 341.85 16.376V5.128C341.85 4.94667 341.914 4.79733 342.042 4.68C342.17 4.56267 342.319 4.504 342.49 4.504C342.671 4.504 342.815 4.56267 342.922 4.68C343.039 4.79733 343.098 4.94667 343.098 5.128V14.952L351.082 4.728C351.199 4.57867 351.359 4.504 351.562 4.504C351.743 4.504 351.893 4.56267 352.01 4.68C352.127 4.79733 352.186 4.94667 352.186 5.128V16.376C352.186 16.5573 352.127 16.7067 352.01 16.824C351.893 16.9413 351.743 17 351.562 17C351.381 17 351.231 16.9413 351.114 16.824C350.997 16.7067 350.938 16.5573 350.938 16.376V6.568L342.954 16.792C342.847 16.9307 342.693 17 342.49 17ZM68.1277 47C67.901 47 67.7143 46.9267 67.5677 46.78C67.421 46.6333 67.3477 46.4467 67.3477 46.22V32.16C67.3477 31.9333 67.421 31.7467 67.5677 31.6C67.7143 31.4533 67.901 31.38 68.1277 31.38H72.1277C73.1143 31.38 73.9877 31.6 74.7477 32.04C75.5077 32.4667 76.101 33.06 76.5277 33.82C76.9543 34.58 77.1677 35.46 77.1677 36.46C77.1677 37.4333 76.9543 38.3 76.5277 39.06C76.101 39.8067 75.5077 40.4 74.7477 40.84C73.9877 41.2667 73.1143 41.48 72.1277 41.48H68.9077V46.22C68.9077 46.4467 68.8343 46.6333 68.6877 46.78C68.541 46.9267 68.3543 47 68.1277 47ZM68.9077 39.98H72.1277C72.8077 39.98 73.4143 39.8333 73.9477 39.54C74.481 39.2333 74.8943 38.8133 75.1877 38.28C75.4943 37.7467 75.6477 37.14 75.6477 36.46C75.6477 35.7533 75.4943 35.1333 75.1877 34.6C74.8943 34.0667 74.481 33.6467 73.9477 33.34C73.4143 33.0333 72.8077 32.88 72.1277 32.88H68.9077V39.98ZM80.3738 47C80.1471 47 79.9604 46.9267 79.8138 46.78C79.6671 46.6333 79.5938 46.4467 79.5938 46.22V32.16C79.5938 31.9333 79.6671 31.7467 79.8138 31.6C79.9604 31.4533 80.1471 31.38 80.3738 31.38H89.7538C89.9671 31.38 90.1471 31.4533 90.2938 31.6C90.4538 31.7333 90.5338 31.9133 90.5338 32.14C90.5338 32.34 90.4538 32.5133 90.2938 32.66C90.1471 32.8067 89.9671 32.88 89.7538 32.88H81.1538V38.4H87.4138C87.6404 38.4 87.8271 38.4733 87.9738 38.62C88.1204 38.7667 88.1938 38.9467 88.1938 39.16C88.1938 39.3733 88.1204 39.5533 87.9738 39.7C87.8271 39.8467 87.6404 39.92 87.4138 39.92H81.1538V45.5H89.7538C89.9671 45.5 90.1471 45.5733 90.2938 45.72C90.4538 45.8667 90.5338 46.04 90.5338 46.24C90.5338 46.4667 90.4538 46.6533 90.2938 46.8C90.1471 46.9333 89.9671 47 89.7538 47H80.3738ZM94.3214 47C94.0681 47 93.8547 46.9333 93.6814 46.8C93.5214 46.6533 93.4414 46.46 93.4414 46.22V32.16C93.4414 31.9333 93.5147 31.7467 93.6614 31.6C93.8081 31.4533 93.9947 31.38 94.2214 31.38H99.0814C99.8814 31.38 100.601 31.5533 101.241 31.9C101.895 32.2333 102.408 32.6933 102.781 33.28C103.168 33.8667 103.361 34.5467 103.361 35.32C103.361 36.04 103.168 36.68 102.781 37.24C102.395 37.8 101.888 38.2267 101.261 38.52C102.155 38.76 102.875 39.2133 103.421 39.88C103.968 40.5333 104.241 41.3667 104.241 42.38C104.241 43.2867 104.035 44.0867 103.621 44.78C103.208 45.4733 102.635 46.02 101.901 46.42C101.181 46.8067 100.355 47 99.4214 47H94.3214ZM95.0014 37.9H99.0814C99.8814 37.9 100.541 37.6733 101.061 37.22C101.581 36.7667 101.841 36.1333 101.841 35.32C101.841 34.52 101.581 33.9133 101.061 33.5C100.541 33.0867 99.8814 32.88 99.0814 32.88H95.0014V37.9ZM95.0014 45.5H99.4214C100.381 45.5 101.168 45.22 101.781 44.66C102.395 44.1 102.701 43.34 102.701 42.38C102.701 41.4733 102.395 40.7533 101.781 40.22C101.168 39.6733 100.381 39.4 99.4214 39.4H95.0014V45.5ZM114.177 47.2C113.017 47.2 111.95 47 110.977 46.6C110.004 46.2 109.157 45.64 108.437 44.92C107.73 44.2 107.177 43.3533 106.777 42.38C106.39 41.4067 106.197 40.34 106.197 39.18C106.197 38.0333 106.39 36.9733 106.777 36C107.177 35.0267 107.73 34.18 108.437 33.46C109.157 32.74 110.004 32.18 110.977 31.78C111.95 31.38 113.017 31.18 114.177 31.18C115.324 31.18 116.384 31.38 117.357 31.78C118.33 32.18 119.177 32.74 119.897 33.46C120.617 34.18 121.17 35.0267 121.557 36C121.957 36.9733 122.157 38.0333 122.157 39.18C122.157 40.34 121.957 41.4067 121.557 42.38C121.17 43.3533 120.617 44.2 119.897 44.92C119.177 45.64 118.33 46.2 117.357 46.6C116.384 47 115.324 47.2 114.177 47.2ZM114.177 45.72C115.097 45.72 115.95 45.56 116.737 45.24C117.524 44.9067 118.204 44.4467 118.777 43.86C119.364 43.26 119.817 42.5667 120.137 41.78C120.457 40.98 120.617 40.1133 120.617 39.18C120.617 38.26 120.457 37.4067 120.137 36.62C119.817 35.82 119.364 35.1267 118.777 34.54C118.204 33.94 117.524 33.48 116.737 33.16C115.95 32.8267 115.097 32.66 114.177 32.66C113.244 32.66 112.384 32.8267 111.597 33.16C110.81 33.48 110.124 33.94 109.537 34.54C108.964 35.1267 108.517 35.82 108.197 36.62C107.877 37.4067 107.717 38.26 107.717 39.18C107.717 40.1133 107.877 40.98 108.197 41.78C108.517 42.5667 108.964 43.26 109.537 43.86C110.124 44.4467 110.81 44.9067 111.597 45.24C112.384 45.56 113.244 45.72 114.177 45.72ZM124.144 47C123.838 47 123.611 46.8733 123.464 46.62C123.331 46.3667 123.324 46.12 123.444 45.88L129.324 31.92C129.471 31.56 129.718 31.38 130.064 31.38C130.424 31.38 130.678 31.56 130.824 31.92L136.724 45.9C136.844 46.1533 136.831 46.4 136.684 46.64C136.538 46.88 136.318 47 136.024 47C135.678 47 135.438 46.84 135.304 46.52L130.104 33.96L124.864 46.52C124.798 46.68 124.698 46.8 124.564 46.88C124.444 46.96 124.304 47 124.144 47ZM139.885 47C139.659 47 139.472 46.9267 139.325 46.78C139.179 46.6333 139.105 46.4467 139.105 46.22V32.16C139.105 31.9333 139.179 31.7467 139.325 31.6C139.472 31.4533 139.659 31.38 139.885 31.38C140.112 31.38 140.299 31.4533 140.445 31.6C140.592 31.7467 140.665 31.9333 140.665 32.16V38.4H143.905C144.012 37 144.405 35.76 145.085 34.68C145.779 33.5867 146.679 32.7333 147.785 32.12C148.905 31.4933 150.165 31.18 151.565 31.18C152.685 31.18 153.719 31.38 154.665 31.78C155.612 32.18 156.432 32.74 157.125 33.46C157.832 34.18 158.379 35.0267 158.765 36C159.152 36.9733 159.345 38.0333 159.345 39.18C159.345 40.34 159.152 41.4067 158.765 42.38C158.379 43.3533 157.832 44.2 157.125 44.92C156.432 45.64 155.612 46.2 154.665 46.6C153.719 47 152.685 47.2 151.565 47.2C150.499 47.2 149.512 47.02 148.605 46.66C147.712 46.2867 146.919 45.7733 146.225 45.12C145.545 44.4533 144.999 43.6733 144.585 42.78C144.185 41.8733 143.952 40.88 143.885 39.8H140.665V46.22C140.665 46.4467 140.592 46.6333 140.445 46.78C140.299 46.9267 140.112 47 139.885 47ZM151.565 45.72C152.459 45.72 153.285 45.56 154.045 45.24C154.805 44.9067 155.465 44.4467 156.025 43.86C156.599 43.26 157.039 42.5667 157.345 41.78C157.665 40.98 157.825 40.1133 157.825 39.18C157.825 38.26 157.665 37.4067 157.345 36.62C157.039 35.82 156.599 35.1267 156.025 34.54C155.465 33.94 154.805 33.48 154.045 33.16C153.285 32.8267 152.459 32.66 151.565 32.66C150.685 32.66 149.865 32.8267 149.105 33.16C148.359 33.48 147.705 33.94 147.145 34.54C146.599 35.1267 146.165 35.82 145.845 36.62C145.539 37.4067 145.385 38.26 145.385 39.18C145.385 40.1133 145.539 40.98 145.845 41.78C146.165 42.5667 146.599 43.26 147.145 43.86C147.705 44.4467 148.359 44.9067 149.105 45.24C149.865 45.56 150.685 45.72 151.565 45.72ZM176.023 50.42C175.783 50.42 175.589 50.3467 175.443 50.2C175.309 50.0667 175.243 49.88 175.243 49.64V47H163.343C163.116 47 162.929 46.9267 162.783 46.78C162.636 46.6333 162.563 46.4467 162.563 46.22V32.16C162.563 31.9333 162.636 31.7467 162.783 31.6C162.929 31.4533 163.116 31.38 163.343 31.38C163.569 31.38 163.756 31.4533 163.903 31.6C164.049 31.7467 164.123 31.9333 164.123 32.16V45.54H173.203V32.16C173.203 31.9333 173.276 31.7467 173.423 31.6C173.569 31.4533 173.756 31.38 173.983 31.38C174.209 31.38 174.396 31.4533 174.543 31.6C174.689 31.7467 174.763 31.9333 174.763 32.16V45.54H176.023C176.263 45.54 176.449 45.6133 176.583 45.76C176.729 45.8933 176.803 46.08 176.803 46.32V49.64C176.803 49.88 176.729 50.0667 176.583 50.2C176.449 50.3467 176.263 50.42 176.023 50.42ZM180.296 47C180.083 47 179.896 46.9267 179.736 46.78C179.576 46.6333 179.496 46.4467 179.496 46.22V32.16C179.496 31.9333 179.576 31.7467 179.736 31.6C179.896 31.4533 180.083 31.38 180.296 31.38C180.523 31.38 180.703 31.4533 180.836 31.6C180.983 31.7467 181.056 31.9333 181.056 32.16V44.44L191.036 31.66C191.183 31.4733 191.383 31.38 191.636 31.38C191.863 31.38 192.049 31.4533 192.196 31.6C192.343 31.7467 192.416 31.9333 192.416 32.16V46.22C192.416 46.4467 192.343 46.6333 192.196 46.78C192.049 46.9267 191.863 47 191.636 47C191.409 47 191.223 46.9267 191.076 46.78C190.929 46.6333 190.856 46.4467 190.856 46.22V33.96L180.876 46.74C180.743 46.9133 180.549 47 180.296 47ZM196.73 47C196.37 47 196.123 46.88 195.99 46.64C195.87 46.4 195.91 46.12 196.11 45.8L199.49 40.52C198.81 40.36 198.203 40.08 197.67 39.68C197.137 39.2667 196.71 38.7667 196.39 38.18C196.083 37.58 195.93 36.92 195.93 36.2C195.93 35.2533 196.143 34.42 196.57 33.7C197.01 32.98 197.61 32.4133 198.37 32C199.13 31.5867 200.003 31.38 200.99 31.38H205.57C205.797 31.38 205.983 31.4533 206.13 31.6C206.277 31.7467 206.35 31.9333 206.35 32.16V46.22C206.35 46.4467 206.277 46.6333 206.13 46.78C205.983 46.9267 205.797 47 205.57 47C205.343 47 205.157 46.9267 205.01 46.78C204.863 46.6333 204.79 46.4467 204.79 46.22V40.88H201.07L197.41 46.6C197.33 46.7333 197.237 46.8333 197.13 46.9C197.023 46.9667 196.89 47 196.73 47ZM200.99 39.42H204.79V32.88H200.99C199.963 32.88 199.117 33.18 198.45 33.78C197.797 34.38 197.47 35.1867 197.47 36.2C197.47 37.1733 197.797 37.9533 198.45 38.54C199.117 39.1267 199.963 39.42 200.99 39.42ZM220.755 47C220.542 47 220.355 46.9267 220.195 46.78C220.048 46.62 219.975 46.4333 219.975 46.22V32.8H215.235C215.022 32.8 214.848 32.7333 214.715 32.6C214.582 32.4667 214.515 32.3 214.515 32.1C214.515 31.8867 214.582 31.7133 214.715 31.58C214.848 31.4467 215.022 31.38 215.235 31.38H226.295C226.508 31.38 226.682 31.4467 226.815 31.58C226.948 31.7133 227.015 31.8867 227.015 32.1C227.015 32.3 226.948 32.4667 226.815 32.6C226.682 32.7333 226.508 32.8 226.295 32.8H221.535V46.22C221.535 46.4333 221.462 46.62 221.315 46.78C221.168 46.9267 220.982 47 220.755 47ZM226.859 47C226.552 47 226.332 46.8733 226.199 46.62C226.065 46.3667 226.052 46.12 226.159 45.88L232.039 31.92C232.185 31.56 232.439 31.38 232.799 31.38C233.145 31.38 233.392 31.56 233.539 31.92L239.439 45.9C239.559 46.1533 239.539 46.4 239.379 46.64C239.232 46.88 239.019 47 238.739 47C238.379 47 238.132 46.84 237.999 46.52L236.679 43.28H228.919L227.579 46.52C227.512 46.68 227.412 46.8 227.279 46.88C227.159 46.96 227.019 47 226.859 47ZM229.479 41.94H236.119L232.799 33.92L229.479 41.94ZM242.561 47C242.335 47 242.148 46.9267 242.001 46.78C241.855 46.6333 241.781 46.4467 241.781 46.22V32.16C241.781 31.9333 241.855 31.7467 242.001 31.6C242.148 31.4533 242.335 31.38 242.561 31.38C242.788 31.38 242.975 31.4533 243.121 31.6C243.268 31.7467 243.341 31.9333 243.341 32.16V38.4H253.101V32.16C253.101 31.9333 253.175 31.7467 253.321 31.6C253.468 31.4533 253.655 31.38 253.881 31.38C254.108 31.38 254.295 31.4533 254.441 31.6C254.588 31.7467 254.661 31.9333 254.661 32.16V46.22C254.661 46.4467 254.588 46.6333 254.441 46.78C254.295 46.9267 254.108 47 253.881 47C253.655 47 253.468 46.9267 253.321 46.78C253.175 46.6333 253.101 46.4467 253.101 46.22V39.8H243.341V46.22C243.341 46.4467 243.268 46.6333 243.121 46.78C242.975 46.9267 242.788 47 242.561 47ZM272.116 50.42C271.876 50.42 271.683 50.3467 271.536 50.2C271.403 50.0667 271.336 49.88 271.336 49.64V47H259.436C259.21 47 259.023 46.9267 258.876 46.78C258.73 46.6333 258.656 46.4467 258.656 46.22V32.16C258.656 31.9333 258.73 31.7467 258.876 31.6C259.023 31.4533 259.21 31.38 259.436 31.38C259.663 31.38 259.85 31.4533 259.996 31.6C260.143 31.7467 260.216 31.9333 260.216 32.16V45.54H269.296V32.16C269.296 31.9333 269.37 31.7467 269.516 31.6C269.663 31.4533 269.85 31.38 270.076 31.38C270.303 31.38 270.49 31.4533 270.636 31.6C270.783 31.7467 270.856 31.9333 270.856 32.16V45.54H272.116C272.356 45.54 272.543 45.6133 272.676 45.76C272.823 45.8933 272.896 46.08 272.896 46.32V49.64C272.896 49.88 272.823 50.0667 272.676 50.2C272.543 50.3467 272.356 50.42 272.116 50.42ZM274.73 47C274.423 47 274.203 46.8733 274.07 46.62C273.937 46.3667 273.923 46.12 274.03 45.88L279.91 31.92C280.057 31.56 280.31 31.38 280.67 31.38C281.017 31.38 281.263 31.56 281.41 31.92L287.31 45.9C287.43 46.1533 287.41 46.4 287.25 46.64C287.103 46.88 286.89 47 286.61 47C286.25 47 286.003 46.84 285.87 46.52L284.55 43.28H276.79L275.45 46.52C275.383 46.68 275.283 46.8 275.15 46.88C275.03 46.96 274.89 47 274.73 47ZM277.35 41.94H283.99L280.67 33.92L277.35 41.94Z" fill="#FF0302" style="mix-blend-mode:screen"/>
</svg>
