<?xml version="1.0" encoding="UTF-8"?>
<!DOCTYPE svg PUBLIC "-//W3C//DTD SVG 1.1//EN" "http://www.w3.org/Graphics/SVG/1.1/DTD/svg11.dtd">
<!-- Creator: CorelDRAW 2020 (64-Bit) -->
<svg xmlns="http://www.w3.org/2000/svg" xml:space="preserve" width="210mm" height="297mm" version="1.1" style="shape-rendering:geometricPrecision; text-rendering:geometricPrecision; image-rendering:optimizeQuality; fill-rule:evenodd; clip-rule:evenodd"
viewBox="0 0 21000 29700"
 xmlns:xlink="http://www.w3.org/1999/xlink"
 xmlns:xodm="http://www.corel.com/coreldraw/odm/2003">
 <defs>
  <style type="text/css">
   <![CDATA[
    .fil2 {fill:none}
    .fil4 {fill:#7688A1}
    .fil3 {fill:#C82C39}
    .fil1 {fill:#FEFEFE}
    .fil0 {fill:#FEFEFE;fill-rule:nonzero}
   ]]>
  </style>
 </defs>
 <g id="Слой_x0020_1">
  <metadata id="CorelCorpID_0Corel-Layer"/>
  <path class="fil0" d="M6863.27 21099.98l1632.78 0 -687.92 2407.72 -1632.78 0 687.92 -2407.72zm816.39 0m472.43 1203.86m-1160.35 1203.86m-472.43 -1203.86"/>
  <rect class="fil1" x="2444.71" y="17051.85" width="7322.64" height="3386.67" rx="1698.01" ry="1693.34"/>
  <path class="fil1" d="M18959.94 17797.21l655.07 0c37.22,0 72.34,23.38 72.34,73.38l0 2024.49 -61.56 55.37 -204.4 0 -46.8 -46.8 0 -893.5 -24.33 0 -690.33 937.4 -267.9 0c-20.71,0 -34.1,-16.07 -38.04,-41.95 -1.28,-8.44 -0.64,-22.77 1.74,-30.95 3.91,-13.47 9.84,-21.39 15.42,-29.03l596.61 -817.53c7.24,-9.49 13.68,-31.93 0,-31.83 -313.47,2.2 -532.59,-176.57 -586.18,-485.78 -10.89,-62.83 -15.71,-131.11 0,-201.75 67.27,-302.39 269.09,-511.52 578.36,-511.52zm20.26 329.61l398.54 0 0 565.56 -410.11 0c-141.85,0 -235.37,-70.95 -272.03,-212.5 -9.35,-36.14 -10.52,-78.54 0,-125.68 30.98,-138.74 126.5,-227.38 283.6,-227.38z"/>
  <path class="fil1" d="M16595.79 17797.66l181.08 0c38.33,0 63.25,26.18 63.25,71.12l0 1400.2 1173.13 -1458.2c4.05,-5.04 13.02,-13.37 25.63,-13.37l58.29 0c20.7,0 38.9,8.54 38.9,50.02l0.18 2058c0,34.09 -25.93,51.45 -55.37,51.45l-204.61 0c-25.55,0 -47.74,-17.14 -47.74,-51.66l0 -1400.24 -1161.87 1427.53c-17.75,21.82 -20.99,24.39 -36.39,24.39l-42.59 0c-23.83,0 -57.86,-21.89 -57.86,-64.91l0 -2023.04c0,-44.88 20.6,-71.29 65.97,-71.29z"/>
  <path class="fil1" d="M11751.77 19896.35l0 -2032.5c0,-33.32 16.45,-66.39 58.74,-66.39l182.61 0c38.5,0 63.59,21.93 63.59,64.41l0 847.99 230.29 0c76.64,-539.92 515.53,-953.85 1045.49,-953.85 583.97,0 1057.38,502.57 1057.38,1122.52 0,619.93 -473.41,1122.5 -1057.38,1122.5 -540.51,0 -986.23,-430.58 -1049.59,-986.24l-227.4 0 0 881.49c0,28.66 -25.12,60.19 -52.97,60.19l-195.91 0c-31.84,0 -54.85,-31.7 -54.85,-60.12zm1581.46 -1823.12c412.99,0 747.78,361.01 747.78,806.32 0,445.32 -334.79,806.33 -747.78,806.33 -412.97,0 -747.76,-361.01 -747.76,-806.33 0,-445.31 334.79,-806.32 747.76,-806.32z"/>
  <path class="fil2" d="M9755.17 19856.68l827.85 -2021.1c9.17,-17.78 19.71,-32.66 36.63,-35.73 19.35,-3.51 41.15,-3.73 61.18,0 18.76,3.5 40.12,20.41 51.1,47.37l811.35 1992.94c23.25,57.1 -12.52,117.66 -54.39,116.63l-216.52 0c-14.34,0 -28,-19.13 -33.14,-31.83l-585.79 -1445.09 -587.78 1435.83c-10.14,24.79 -29.59,41.12 -53.31,41.12l-213.66 0c-45.16,0 -62.46,-53.91 -43.52,-100.14z"/>
  <path class="fil2" d="M8566.54 17750.92c597.35,-2.39 1073.11,497.33 1067.6,1126.48 -5.51,629.15 -451.37,1120.82 -1067.6,1126.48 -616.23,5.66 -1068.81,-498.24 -1067.6,-1126.48 1.21,-628.24 470.25,-1124.09 1067.6,-1126.48z"/>
  <path class="fil2" d="M6064.72 19900.51l0 -2040.93c0,-33.26 26.81,-62.12 61.71,-62.12 165.21,0 292.41,0.65 457.6,0.11 310.5,-1.01 560.79,176.63 602.9,524.16 4.14,34.2 3.75,67.64 0,99.88 -19.09,164.11 -84.73,274.54 -177.22,352.58 174.11,83.88 292.42,232.34 330.76,462.35 7.73,46.39 6.85,93.52 0,138.93 -50.72,336.22 -299.51,581.12 -638.99,581.12l-580.82 0c-29.08,0 -55.94,-26.26 -55.94,-56.08z"/>
  <path class="fil3" d="M8568.15 18090.29c407.17,0 737.23,354.64 737.23,792.11 0,437.46 -330.06,792.1 -737.23,792.1 -407.16,0 -737.23,-354.64 -737.23,-792.1 0,-437.47 330.07,-792.11 737.23,-792.11z"/>
  <path class="fil3" d="M6384.77 18988.55l197.12 0c239.59,0 377.41,89.68 420.7,261.27 10.08,39.96 9.48,79.68 0,116.42 -48.7,188.75 -183.3,250.04 -384.31,250.04l-234.23 0 0.72 -627.73z"/>
  <path class="fil3" d="M6386.75 18634.65l0 -494.12 189.1 0c123.83,0 255,58.63 273.81,192.49 2.89,20.6 3.31,39.19 0,56.89 -24.94,157.99 -122.19,246.07 -299.27,245.38l-163.64 -0.64z"/>
  <path class="fil2" d="M4632.93 19879.11c0,47.73 30.19,77.41 65.79,77.41l1105.7 0c29.83,0 54.13,-24.52 54.13,-51.65l0 -230.06c0,-36.11 -29.52,-61.6 -64.49,-61.6l-827.85 0 0 -638.8 826.22 0c32.89,0 67.17,-26.79 67.17,-63.03l0 -220.93c0,-39.53 -31.5,-66.16 -69.47,-66.16l-827.16 0 0 -479.36 841.4 0c37.93,0 68.22,-31.66 68.22,-67.4l0 -206.54c0,-51.01 -29.61,-74 -83.51,-74l-1081 0c-51.43,-0.6 -75.15,36.93 -75.15,75.98l0 2006.14z"/>
  <path class="fil2" d="M3067.7 19880.92c0,-670.97 0,-1341.94 0,-2012.91 -1.69,-35.84 27.07,-70.68 67.38,-70.68l578.85 0c375.38,16.4 636.49,174.33 679.31,535.49 6.22,52.52 3.52,106.37 -3.72,158.75 -45.34,327.58 -295.45,531.26 -632.07,531.26l-356.38 0 0 861.56c0,37.73 -31.13,72.76 -66.17,72.76l-194.71 0c-30.22,0 -72.49,-36.52 -72.49,-76.23z"/>
  <path class="fil3" d="M3397.44 18144.67l402.02 0c137.26,0 242.08,69.17 260.58,215.19 4,31.63 1.54,62.23 -0.61,94.07 -10.34,152.65 -124.23,224.79 -291.25,224.82l-370.84 0.08 0 -534.16 0.1 0z"/>
  <path class="fil1" d="M8085.14 3831.58l557.53 265.14 -59.47 125.05 -67.7 -32.19c33.33,62.72 32.31,131.25 -3.04,205.58 -31.32,65.85 -76.58,107.31 -135.82,124.39 -59.22,17.08 -127.34,7.31 -204.33,-29.3l-326.55 -155.3 61.36 -129.02 322.57 153.4c44.6,21.21 83.17,26.69 115.71,16.45 32.54,-10.24 57.4,-33.42 74.57,-69.52 18.44,-38.76 21.13,-75.57 8.08,-110.43 -13.05,-34.85 -43.21,-63.51 -90.46,-85.98l-313.81 -149.23 61.36 -129.04z"/>
  <path class="fil1" d="M7801.24 4428.58l557.52 265.13 -59.46 125.05 -67.7 -32.19c33.32,62.72 32.3,131.25 -3.05,205.58 -31.31,65.85 -76.57,107.31 -135.81,124.39 -59.23,17.08 -127.34,7.31 -204.33,-29.3l-326.55 -155.3 61.35 -129.02 322.58 153.4c44.6,21.21 83.17,26.69 115.71,16.45 32.54,-10.24 57.4,-33.42 74.57,-69.52 18.43,-38.76 21.12,-75.57 8.08,-110.42 -13.05,-34.85 -43.21,-63.52 -90.46,-85.99l-313.81 -149.23 61.36 -129.03z"/>
  <path class="fil1" d="M7359.34 5335.2c33.58,-70.61 75.35,-126.6 125.29,-167.96 49.94,-41.35 103.44,-65.88 160.49,-73.59 57.04,-7.69 113.18,1.59 168.4,27.85 55.22,26.26 97.85,63.95 127.88,113.05 30.03,49.12 44.76,106.1 44.21,170.93 -0.57,64.85 -17.64,132.58 -51.22,203.19 -33.84,71.16 -75.67,127.28 -125.48,168.37 -49.81,41.09 -103.25,65.48 -160.29,73.18 -57.05,7.71 -113.19,-1.57 -168.41,-27.83 -55.23,-26.26 -97.85,-63.95 -127.88,-113.07 -30.03,-49.1 -44.83,-105.95 -44.4,-170.52 0.44,-64.57 17.58,-132.44 51.41,-203.6zm180.71 361.34c46.73,22.22 92.52,26.58 137.35,13.08 44.84,-13.52 84.12,-44.8 117.87,-93.86l-352.83 -167.79c-16.76,57.14 -16.36,107.29 1.2,150.48 17.55,43.17 49.69,75.87 96.41,98.09zm312.04 -200.25c16.75,-57.14 16.22,-107.35 -1.59,-150.66 -17.82,-43.3 -50.1,-76.07 -96.83,-98.29 -46.72,-22.22 -92.37,-26.51 -136.94,-12.88 -44.57,13.64 -83.73,44.98 -117.48,94.04l307.95 146.44 44.89 21.35z"/>
  <path class="fil1" d="M7043.21 5997.92c24.49,-51.5 55.92,-91.58 94.27,-120.21 38.36,-28.63 82.24,-44.23 131.63,-46.78 49.4,-2.56 101.96,9.43 157.72,35.95l305.04 145.06 -61.36 129.02 -133.81 -63.63 -121.2 254.87 133.81 63.63 -60.6 127.44 -305.05 -145.07c-55.75,-26.51 -98.22,-59.73 -127.41,-99.66 -29.2,-39.93 -44.8,-83.8 -46.79,-131.62 -1.99,-47.83 9.26,-97.49 33.75,-149zm389.96 30.17l-79.65 -37.87c-46.19,-21.97 -86.53,-27.16 -121.02,-15.57 -34.49,11.61 -61.07,37.05 -79.76,76.34 -18.94,39.83 -21.96,76.64 -9.06,110.44 12.9,33.81 42.45,61.69 88.64,83.66l79.64 37.87 121.21 -254.87z"/>
  <path class="fil1" d="M6789.04 6542.65c37.12,-78.05 85.21,-129.89 144.28,-155.52 59.06,-25.63 123.11,-22.02 192.13,10.8 65.31,31.06 107.15,75.21 125.49,132.44 18.36,57.23 10.63,121.42 -23.21,192.58 -11.11,23.36 -24.3,44.92 -39.56,64.69 -15.25,19.76 -34.52,39.73 -57.79,59.91l166.46 79.17 -60.6 127.43 -329.73 -156.8c-74.88,-35.61 -122.57,-83.85 -143.1,-144.72 -20.54,-60.88 -11.99,-130.87 25.63,-209.98zm330.91 156.38c17.93,-37.69 22.2,-71.31 12.8,-100.84 -9.39,-29.53 -31.61,-52.63 -66.65,-69.29 -35.58,-16.92 -68.05,-19.83 -97.42,-8.74 -29.36,11.11 -52.64,34.71 -69.81,70.81 -17.92,37.7 -20.98,72.22 -9.19,103.54 11.8,31.33 37.34,56.34 76.63,75.02l62.13 29.55c18.72,-10.63 36.13,-24.66 52.22,-42.06 16.1,-17.41 29.19,-36.75 39.29,-57.99z"/>
  <polygon class="fil1" points="6767.74,6872.9 6641.61,7138.13 7094.38,7352.47 7033.4,7480.7 6475.87,7215.56 6662.98,6822.11 "/>
  <path class="fil1" d="M6866.62 7856.03c-27.52,57.88 -64.81,104.12 -111.86,138.7 -47.05,34.6 -98.73,54.62 -155.03,60.07 -56.31,5.45 -111.81,-4.82 -166.5,-30.83 -54.69,-26.01 -97.68,-62.58 -128.99,-109.69 -31.31,-47.11 -48.39,-99.84 -51.25,-158.17 -2.86,-58.32 9.47,-116.43 36.99,-174.31 27.52,-57.86 64.75,-103.97 111.67,-138.3 46.92,-34.33 98.6,-54.34 155.03,-60.06 56.44,-5.72 112,4.42 166.69,30.43 54.69,26.01 97.62,62.71 128.8,110.09 31.18,47.38 48.27,100.1 51.25,158.16 2.99,58.07 -9.28,116.04 -36.8,173.91zm-109.91 -52.27c15.66,-32.92 22.23,-66.25 19.72,-99.99 -2.51,-33.75 -13.7,-64.63 -33.58,-92.64 -19.89,-28.01 -47.09,-50.22 -81.6,-66.64 -34.52,-16.41 -68.91,-23.49 -103.18,-21.24 -34.28,2.26 -65.3,13.07 -93.06,32.42 -27.76,19.34 -49.46,45.49 -65.11,78.41 -15.66,32.92 -22.24,66.25 -19.73,99.99 2.51,33.75 13.7,64.63 33.59,92.64 19.88,28.01 47.07,50.22 81.59,66.64 34.52,16.41 68.91,23.49 103.19,21.23 34.27,-2.25 65.29,-13.06 93.05,-32.41 27.76,-19.35 49.47,-45.48 65.12,-78.41z"/>
  <path class="fil1" d="M6667.03 8127.87c5.43,35.13 3.66,75.14 -5.31,120.03 -8.98,44.88 -24.21,89.9 -45.67,135.02 -26.77,56.29 -56.52,100.73 -89.28,133.33 -32.76,32.6 -66.54,53 -101.36,61.18 -34.82,8.18 -68.42,4.57 -100.81,-10.83 -29.73,-14.15 -52.1,-34.87 -67.1,-62.19 -15.02,-27.32 -21.27,-57.96 -18.79,-91.94 -22.03,16.22 -45.97,25.5 -71.83,27.85 -25.87,2.35 -51.28,-2.4 -76.23,-14.27 -30.26,-14.39 -53.46,-36.82 -69.57,-67.27 -16.13,-30.46 -22.65,-68.06 -19.59,-112.84 3.06,-44.76 17.6,-94.5 43.6,-149.18 17.18,-36.11 37.55,-69.72 61.13,-100.82 23.58,-31.11 47.54,-56.5 71.88,-76.17l81.71 82.81c-46.07,37.98 -82.1,84.32 -108.11,139.01 -19.69,41.42 -28.29,75.59 -25.78,102.49 2.5,26.91 14.37,45.41 35.61,55.51 19.65,9.35 37.99,9.45 55.04,0.3 17.04,-9.15 32.38,-28.06 46.02,-56.73l72.34 -152.13 101.95 48.48 -76.13 160.09c-15.4,32.4 -21.7,60 -18.88,82.82 2.83,22.83 14.85,39.3 36.09,49.4 22.29,10.6 45.06,7.58 68.26,-9.05 23.21,-16.63 45.93,-48.31 68.15,-95.04 15.65,-32.91 26.93,-67.92 33.83,-105.01 6.89,-37.08 7.8,-70.83 2.73,-101.23l116.1 6.38z"/>
  <path class="fil1" d="M5790.55 8642.27c37.12,-78.05 85.21,-129.89 144.28,-155.52 59.06,-25.63 123.11,-22.02 192.13,10.8 65.31,31.06 107.15,75.21 125.49,132.44 18.36,57.24 10.63,121.42 -23.21,192.58 -11.11,23.36 -24.3,44.93 -39.56,64.69 -15.25,19.76 -34.52,39.74 -57.79,59.92l166.47 79.16 -60.61 127.43 -329.73 -156.8c-74.88,-35.61 -122.57,-83.85 -143.1,-144.71 -20.54,-60.88 -11.99,-130.88 25.63,-209.99zm330.91 156.39c17.93,-37.7 22.2,-71.31 12.81,-100.85 -9.4,-29.53 -31.62,-52.63 -66.66,-69.29 -35.58,-16.92 -68.05,-19.83 -97.42,-8.74 -29.36,11.11 -52.63,34.71 -69.8,70.82 -17.93,37.69 -20.99,72.21 -9.2,103.53 11.8,31.33 37.34,56.34 76.63,75.02l62.13 29.55c18.72,-10.63 36.13,-24.65 52.22,-42.06 16.1,-17.41 29.19,-36.74 39.29,-57.98z"/>
  <path class="fil1" d="M6076.66 9517.16c-27.53,57.88 -64.81,104.12 -111.86,138.7 -47.05,34.6 -98.73,54.62 -155.03,60.07 -56.31,5.45 -111.81,-4.82 -166.5,-30.83 -54.69,-26.01 -97.68,-62.58 -128.99,-109.69 -31.31,-47.11 -48.39,-99.84 -51.25,-158.17 -2.86,-58.32 9.47,-116.43 36.99,-174.3 27.52,-57.87 64.75,-103.97 111.67,-138.31 46.92,-34.33 98.6,-54.34 155.03,-60.06 56.44,-5.72 112,4.42 166.69,30.43 54.69,26.01 97.62,62.71 128.8,110.09 31.18,47.38 48.27,100.1 51.25,158.16 2.99,58.07 -9.28,116.04 -36.8,173.91zm-109.91 -52.27c15.66,-32.92 22.23,-66.25 19.72,-99.99 -2.51,-33.75 -13.7,-64.63 -33.58,-92.64 -19.89,-28.01 -47.09,-50.22 -81.6,-66.63 -34.52,-16.42 -68.91,-23.5 -103.18,-21.24 -34.28,2.25 -65.3,13.06 -93.06,32.41 -27.76,19.34 -49.46,45.49 -65.11,78.41 -15.66,32.92 -22.24,66.25 -19.73,99.99 2.51,33.75 13.7,64.63 33.59,92.64 19.88,28.01 47.07,50.22 81.59,66.64 34.52,16.41 68.91,23.49 103.19,21.23 34.27,-2.25 65.29,-13.06 93.05,-32.41 27.76,-19.35 49.47,-45.48 65.12,-78.41z"/>
  <polygon class="fil1" points="5182.87,9934.47 5406.64,9899.28 5292.72,9703.49 5364.68,9552.17 5543.24,9864.63 5929.4,9802.17 5857.06,9954.29 5610.54,9996.25 5734.34,10212.35 5663.51,10361.29 5473.07,10026.58 5112.05,10083.41 "/>
  <path class="fil1" d="M4842.09 10558.66c-48.49,101.95 -113.59,134.14 -195.33,96.56l42.04 -88.4c39.26,17.37 69.12,4.55 89.57,-38.46 10.11,-21.24 12.89,-39.77 8.37,-55.59 -4.51,-15.82 -16.21,-28.55 -35.07,-38.16l42.05 -88.42c39.56,19.47 63.65,46.87 72.23,82.21 8.59,35.34 0.63,78.76 -23.86,130.26z"/>
  <path class="fil1" d="M4995.73 10328l557.53 265.13 -59.47 125.05 -67.7 -32.19c33.33,62.72 32.3,131.26 -3.04,205.59 -31.32,65.84 -76.58,107.3 -135.82,124.39 -59.22,17.08 -127.34,7.31 -204.33,-29.31l-326.55 -155.29 61.36 -129.02 322.57 153.4c44.6,21.21 83.17,26.68 115.71,16.44 32.54,-10.23 57.4,-33.41 74.57,-69.52 18.44,-38.76 21.13,-75.57 8.08,-110.42 -13.05,-34.85 -43.21,-63.51 -90.46,-85.98l-313.81 -149.24 61.36 -129.03z"/>
  <path class="fil1" d="M5150.89 11463.87c-27.53,57.88 -64.81,104.12 -111.86,138.7 -47.05,34.6 -98.73,54.63 -155.04,60.07 -56.3,5.45 -111.8,-4.82 -166.49,-30.83 -54.69,-26.01 -97.68,-62.58 -128.99,-109.69 -31.31,-47.11 -48.4,-99.84 -51.25,-158.17 -2.86,-58.32 9.47,-116.42 36.99,-174.3 27.52,-57.87 64.75,-103.97 111.67,-138.31 46.92,-34.32 98.6,-54.34 155.03,-60.06 56.44,-5.72 111.99,4.43 166.68,30.44 54.7,26 97.63,62.7 128.81,110.08 31.18,47.39 48.27,100.1 51.25,158.16 2.99,58.07 -9.28,116.04 -36.8,173.91zm-109.91 -52.27c15.66,-32.91 22.23,-66.25 19.72,-99.99 -2.51,-33.75 -13.7,-64.63 -33.58,-92.64 -19.89,-28.01 -47.09,-50.22 -81.6,-66.63 -34.52,-16.42 -68.91,-23.49 -103.18,-21.24 -34.28,2.25 -65.3,13.06 -93.06,32.41 -27.76,19.35 -49.46,45.49 -65.11,78.41 -15.66,32.92 -22.24,66.25 -19.73,100 2.51,33.75 13.7,64.62 33.59,92.63 19.88,28.01 47.07,50.23 81.59,66.64 34.51,16.41 68.91,23.49 103.19,21.23 34.27,-2.25 65.28,-13.05 93.05,-32.41 27.76,-19.35 49.46,-45.48 65.12,-78.41z"/>
  <polygon class="fil1" points="4407.09,11565.78 4964.62,11830.92 4903.26,11959.94 4674.67,11851.23 4554.23,12104.51 4782.81,12213.22 4721.46,12342.24 4163.93,12077.11 4225.29,11948.08 4445.12,12052.63 4565.56,11799.35 4345.74,11694.81 "/>
  <polygon class="fil1" points="4113.72,12182.68 4671.25,12447.81 4609.89,12576.84 4381.31,12468.13 4260.86,12721.41 4489.45,12830.12 4428.09,12959.14 3870.56,12694 3931.92,12564.98 4151.75,12669.52 4272.2,12416.24 4052.37,12311.7 "/>
  <path class="fil1" d="M4358.88 12981.45c5.43,35.13 3.66,75.14 -5.31,120.03 -8.98,44.88 -24.21,89.9 -45.67,135.02 -26.77,56.29 -56.53,100.73 -89.28,133.33 -32.76,32.6 -66.54,53 -101.36,61.18 -34.82,8.18 -68.42,4.57 -100.81,-10.83 -29.74,-14.14 -52.1,-34.87 -67.1,-62.19 -15.02,-27.31 -21.27,-57.96 -18.79,-91.94 -22.03,16.22 -45.98,25.5 -71.83,27.85 -25.87,2.35 -51.28,-2.4 -76.23,-14.27 -30.26,-14.39 -53.46,-36.82 -69.57,-67.27 -16.13,-30.45 -22.65,-68.06 -19.59,-112.84 3.06,-44.76 17.6,-94.5 43.6,-149.18 17.18,-36.11 37.55,-69.72 61.12,-100.82 23.59,-31.1 47.55,-56.5 71.88,-76.17l81.72 82.81c-46.07,37.99 -82.1,84.32 -108.11,139.01 -19.69,41.42 -28.29,75.59 -25.78,102.49 2.5,26.92 14.37,45.41 35.61,55.52 19.65,9.34 37.99,9.44 55.03,0.29 17.05,-9.14 32.39,-28.06 46.03,-56.73l72.34 -152.13 101.95 48.49 -76.13 160.09c-15.41,32.39 -21.7,59.99 -18.88,82.82 2.82,22.82 14.85,39.29 36.09,49.39 22.29,10.6 45.06,7.59 68.26,-9.05 23.21,-16.62 45.93,-48.31 68.15,-95.03 15.65,-32.92 26.93,-67.93 33.82,-105.01 6.9,-37.09 7.81,-70.84 2.74,-101.24l116.1 6.38z"/>
  <polygon class="fil1" points="4084.13,13682.41 3750.04,13524.5 3946.79,13819.25 3919.52,13876.59 3573.08,13913.02 3900.43,14068.69 3842.86,14189.75 3285.34,13924.62 3336.09,13817.89 3781.79,13773.98 3533.05,13403.73 3583.8,13297 4141.71,13561.34 "/>
  <path class="fil1" d="M3773.65 14212.06c5.43,35.14 3.67,75.15 -5.31,120.03 -8.98,44.89 -24.2,89.9 -45.66,135.03 -26.77,56.29 -56.53,100.72 -89.29,133.32 -32.75,32.61 -66.54,53 -101.36,61.18 -34.81,8.18 -68.42,4.57 -100.8,-10.83 -29.74,-14.14 -52.11,-34.87 -67.11,-62.19 -15.01,-27.31 -21.27,-57.96 -18.79,-91.93 -22.03,16.22 -45.97,25.49 -71.83,27.85 -25.86,2.34 -51.28,-2.41 -76.23,-14.28 -30.26,-14.39 -53.46,-36.81 -69.57,-67.26 -16.12,-30.46 -22.64,-68.07 -19.59,-112.84 3.06,-44.77 17.6,-94.5 43.61,-149.18 17.17,-36.12 37.55,-69.72 61.12,-100.83 23.58,-31.1 47.54,-56.49 71.88,-76.17l81.71 82.81c-46.06,37.99 -82.1,84.32 -108.1,139.02 -19.7,41.41 -28.3,75.58 -25.79,102.48 2.5,26.92 14.37,45.42 35.61,55.52 19.65,9.34 38,9.44 55.04,0.29 17.05,-9.14 32.39,-28.06 46.02,-56.73l72.35 -152.12 101.95 48.48 -76.14 160.09c-15.4,32.39 -21.69,59.99 -18.87,82.82 2.82,22.82 14.84,39.29 36.08,49.39 22.3,10.61 45.06,7.59 68.26,-9.05 23.21,-16.62 45.93,-48.31 68.15,-95.03 15.66,-32.92 26.93,-67.93 33.83,-105.01 6.89,-37.08 7.8,-70.83 2.73,-101.24l116.1 6.38z"/>
  <path class="fil1" d="M2897.18 14726.47c37.12,-78.05 85.2,-129.9 144.27,-155.52 59.06,-25.63 123.11,-22.03 192.13,10.8 65.31,31.06 107.15,75.2 125.5,132.44 18.36,57.23 10.62,121.42 -23.22,192.57 -11.11,23.37 -24.3,44.93 -39.55,64.69 -15.26,19.77 -34.52,39.74 -57.8,59.92l166.47 79.17 -60.6 127.43 -329.74 -156.81c-74.87,-35.6 -122.57,-83.84 -143.1,-144.71 -20.53,-60.88 -11.98,-130.87 25.64,-209.98zm330.91 156.38c17.92,-37.69 22.19,-71.31 12.8,-100.85 -9.39,-29.52 -31.61,-52.62 -66.65,-69.29 -35.59,-16.92 -68.05,-19.82 -97.42,-8.73 -29.37,11.1 -52.64,34.71 -69.81,70.81 -17.93,37.7 -20.99,72.22 -9.2,103.54 11.8,31.33 37.35,56.33 76.63,75.02l62.13 29.54c18.72,-10.63 36.13,-24.65 52.23,-42.05 16.1,-17.42 29.19,-36.75 39.29,-57.99z"/>
  <path class="fil1" d="M2976.94 15261.05c26.25,-29.19 55.09,-47.38 86.5,-54.57 31.42,-7.2 63.86,-2.84 97.31,13.06 49.38,23.49 78.98,60.52 88.78,111.08 9.81,50.56 -1.82,110.62 -34.9,180.18l-130.67 274.78 -557.53 -265.14 123.47 -259.64c30.81,-64.78 67.28,-109.29 109.4,-133.53 42.13,-24.23 86.29,-25.37 132.48,-3.4 27.62,13.13 48.63,31.58 63.04,55.36 14.41,23.79 21.78,51.06 22.12,81.82zm139.84 209.08c28.79,-60.53 19.29,-102.16 -28.5,-124.89 -46.2,-21.97 -83.69,-2.68 -112.48,57.84l-67.42 141.78 140.98 67.04 67.42 -141.77zm-298.4 31.93l57.19 -120.27c13.39,-28.15 17.78,-52.09 13.18,-71.86 -4.6,-19.76 -18.05,-34.95 -40.34,-45.55 -21.78,-10.36 -41.97,-11.01 -60.59,-1.97 -18.63,9.05 -34.51,27.38 -47.65,54.99l-57.19 120.27 135.4 64.39z"/>
  <path class="fil1" d="M2917.18 16160.91c-27.52,57.88 -64.81,104.12 -111.86,138.7 -47.05,34.6 -98.73,54.63 -155.03,60.07 -56.31,5.45 -111.81,-4.82 -166.5,-30.83 -54.69,-26.01 -97.68,-62.57 -128.99,-109.69 -31.31,-47.11 -48.39,-99.84 -51.25,-158.17 -2.86,-58.32 9.47,-116.42 36.99,-174.3 27.52,-57.87 64.75,-103.97 111.67,-138.31 46.92,-34.32 98.6,-54.34 155.03,-60.06 56.44,-5.71 112,4.43 166.69,30.44 54.69,26.01 97.62,62.7 128.8,110.08 31.18,47.39 48.27,100.1 51.26,158.16 2.98,58.08 -9.29,116.04 -36.81,173.91zm-109.9 -52.26c15.65,-32.92 22.22,-66.26 19.71,-100 -2.51,-33.75 -13.7,-64.63 -33.58,-92.64 -19.89,-28 -47.08,-50.22 -81.6,-66.63 -34.52,-16.42 -68.91,-23.49 -103.18,-21.24 -34.28,2.26 -65.3,13.06 -93.06,32.41 -27.76,19.35 -49.46,45.49 -65.11,78.41 -15.66,32.93 -22.24,66.25 -19.73,100 2.51,33.75 13.7,64.63 33.59,92.63 19.88,28.01 47.07,50.23 81.59,66.64 34.52,16.42 68.91,23.49 103.19,21.24 34.27,-2.26 65.29,-13.06 93.05,-32.41 27.76,-19.36 49.47,-45.49 65.13,-78.41z"/>
  <path class="fil1" d="M2662.82 16695.78c-27.02,56.81 -63.8,102.32 -110.32,136.5 -46.54,34.19 -97.95,54.01 -154.26,59.46 -56.3,5.45 -112.06,-4.95 -167.29,-31.22 -55.22,-26.26 -98.48,-62.94 -129.79,-110.05 -31.31,-47.13 -48.38,-99.52 -51.23,-157.19 -2.85,-57.66 9.36,-115.17 36.63,-172.52 22.98,-48.32 52.25,-87.95 87.79,-118.9 35.56,-30.95 75.57,-52.11 120.06,-63.51l37.07 119.19c-61.48,16.99 -105.46,53.37 -131.97,109.12 -16.42,34.51 -23.5,68.9 -21.25,103.18 2.26,34.28 13.33,65.42 33.22,93.43 19.87,28.01 47.07,50.23 81.59,66.64 34.51,16.42 68.91,23.49 103.19,21.24 34.27,-2.26 65.41,-13.33 93.42,-33.21 28.02,-19.88 50.23,-47.08 66.64,-81.6 26.52,-55.74 26.7,-112.95 0.55,-171.61l115.86 -46.47c19.76,41.95 28.8,86.61 27.1,133.98 -1.69,47.38 -14.03,95.22 -37.01,143.54z"/>
  <path class="fil1" d="M1829.05 16986.89l557.53 265.13 -60.6 127.44 -148.14 -70.45 -56.06 117.87 101.18 169.21 -64.78 136.2 -112.75 -196.21c-33.33,30.38 -70.31,48.27 -110.97,53.67 -40.66,5.42 -82.76,-2.23 -126.3,-22.94 -43.01,-20.45 -75.38,-47.89 -97.09,-82.3 -21.72,-34.43 -32.36,-73.67 -31.92,-117.73 0.45,-44.06 12.29,-90.52 35.52,-139.36l114.38 -240.53zm-7.73 287.34c-17.42,36.63 -22.25,68.69 -14.48,96.15 7.77,27.46 28.39,49.14 61.84,65.05 32.39,15.4 61.76,17.98 88.13,7.73 26.36,-10.26 48.12,-33.44 65.29,-69.54l53.79 -113.09 -202.3 -96.21 -52.27 109.91z"/>
  <path class="fil1" d="M1569.01 17533.7l557.53 265.13 -59.47 125.05 -67.69 -32.19c33.32,62.72 32.3,131.25 -3.05,205.58 -31.31,65.85 -76.57,107.31 -135.81,124.39 -59.23,17.08 -127.34,7.31 -204.33,-29.3l-326.56 -155.29 61.36 -129.03 322.57 153.4c44.61,21.21 83.17,26.69 115.71,16.45 32.54,-10.24 57.41,-33.41 74.58,-69.52 18.43,-38.76 21.12,-75.57 8.07,-110.42 -13.04,-34.85 -43.21,-63.52 -90.46,-85.99l-313.81 -149.23 61.36 -129.03z"/>
  <path class="fil1" d="M1760.23 18298.03l220.62 104.92 -56.81 119.47 -115.49 -54.92 -193.92 407.79 115.48 54.92 -56.82 119.48 -220.24 -105.73 31.82 -66.9 -208.67 -99.23c-53.63,-25.51 -94.38,-57.9 -122.24,-97.2 -27.87,-39.29 -42.46,-82.85 -43.81,-130.7 -1.33,-47.83 10.12,-97.24 34.35,-148.21 24.25,-50.98 55.35,-91.04 93.3,-120.19 37.95,-29.16 80.96,-45.33 129.02,-48.51 48.07,-3.19 98.91,7.98 152.55,33.49l208.66 99.23 32.2 -67.71zm-93.93 197.53l-219.82 -104.54c-43.54,-20.7 -81.71,-25.35 -114.48,-13.91 -32.79,11.42 -58.64,37.05 -77.58,76.88 -18.69,39.29 -22.25,75.52 -10.67,108.69 11.56,33.17 39.12,60.12 82.66,80.82l219.82 104.54 120.07 -252.48z"/>
  <path class="fil1" d="M980 18772.28l383.1 182.19c83.89,39.89 137.16,93.87 159.81,161.94 22.65,68.06 14.4,143.24 -24.74,225.54 -22.47,47.26 -49.55,87.45 -81.25,120.54 -31.69,33.11 -66.05,57.79 -103.08,74.04l-71.72 -95.63c64.89,-31 113.35,-80.22 145.42,-147.65 22.22,-46.73 26.88,-87 13.99,-120.8 -12.9,-33.81 -44.04,-62.44 -93.42,-85.93l-34.24 -16.28c27.98,58.88 25.81,122.31 -6.51,190.26 -33.58,70.63 -79.44,115.39 -137.58,134.29 -58.15,18.9 -124.92,10.42 -200.31,-25.43l-190.37 -90.53 61.36 -129.02 182.4 86.74c43.54,20.7 81.38,26 113.53,15.9 32.15,-10.11 57.19,-34.01 75.12,-71.7 18.94,-39.83 22.27,-76.98 10.02,-111.45 -12.25,-34.47 -42.01,-62.95 -89.26,-85.42l-173.63 -82.57 61.36 -129.03z"/>
  <path class="fil1" d="M859.4 19428.38c-50.34,34.66 -92.5,77.44 -126.47,128.34l454.78 216.28 -61.35 129.02 -454.79 -216.27c-18.04,58.47 -24.74,118.44 -20.12,179.89l-117.19 -2.03c-4.65,-49.08 -2.22,-98.71 7.31,-148.87 9.53,-50.15 25.53,-98.86 48.01,-146.12 22.72,-47.78 50.6,-91.33 83.61,-130.64 33.02,-39.32 69.91,-72.39 110.67,-99.24l75.54 89.64z"/>
  <path class="fil1" d="M937.61 20323.55c-27.02,56.82 -63.8,102.32 -110.32,136.5 -46.54,34.19 -97.95,54.01 -154.26,59.47 -56.3,5.45 -112.06,-4.96 -167.29,-31.22 -55.22,-26.26 -98.48,-62.95 -129.79,-110.06 -31.31,-47.12 -48.38,-99.51 -51.23,-157.19 -2.85,-57.66 9.36,-115.17 36.63,-172.51 22.98,-48.33 52.25,-87.96 87.79,-118.9 35.56,-30.95 75.57,-52.12 120.06,-63.52l37.07 119.19c-61.48,17 -105.46,53.37 -131.97,109.12 -16.42,34.52 -23.5,68.91 -21.25,103.19 2.26,34.27 13.33,65.41 33.22,93.43 19.87,28.01 47.07,50.22 81.59,66.64 34.51,16.41 68.91,23.49 103.19,21.23 34.27,-2.26 65.41,-13.33 93.42,-33.2 28.02,-19.89 50.23,-47.09 66.64,-81.6 26.52,-55.75 26.7,-112.95 0.55,-171.62l115.86 -46.47c19.76,41.96 28.8,86.62 27.1,133.99 -1.69,47.37 -14.03,95.21 -37.01,143.53z"/>
  <path class="fil1" d="M11427.45 4696.36c8.7,-5.75 15.57,-12.44 16.1,-25.89 -367.58,-3.93 -904.89,236.4 -1064.12,537.29 -34.73,23.7 16.52,345.08 -64.51,1192.3 -29.8,464.36 -14.63,937.76 -32.55,1011.9 -25.63,164.03 -119.04,340.62 -141.39,423.34 -96.36,259.12 -65.39,448.77 -110.49,697.97 -51.82,189.64 -65.6,132.01 -107.5,295.18l-510.14 -3.31c-102.03,-15.96 -176.06,-166.21 -364.64,-156.27 -7.72,-17.36 -114.65,191.83 -171.98,287.74 -54.3,-3.17 -90.82,-19.57 -148,-20.67 -23.15,78.55 11.78,140.85 22.33,191 15.43,73.29 14.02,113.47 -21.5,168.67 -41.1,63.88 -60.52,139.99 -54.57,233.16 -421.39,-7.43 -582.93,53.2 -709.42,203.4 143.12,-67.23 243.29,-70.02 289.39,8.27 -204.47,427.76 -328.64,379.21 -358.84,858.25 87.67,-292.59 206.67,-459.84 360.5,-487.83 -32.71,476.32 -21.3,772.19 42.99,851.63 -4.77,-296.38 47.07,-493.1 168.67,-568.86 32.38,-20.17 92.88,-4.26 89.3,38.86 -5.28,63.72 25.43,89.85 59.53,93.44l226.55 0c-689.74,911.4 -777.57,1077.2 -955.8,1375.83 -83.23,157.65 -196.23,235.92 -294.35,353.88 -70.62,81.87 -115.69,181.63 -142.22,294.35 -33.53,186.47 -144.5,283.62 -275.32,493.21 -12.04,19.29 -6.64,70.07 20.66,50.84 166.91,-148.61 228.1,-259.32 305.93,-243.09 4.69,163.44 -2.21,197.89 16.54,343.97 20.12,59.53 45.45,63.01 60.6,37.38l46.89 -297.01c49.16,-20.42 115.03,102.9 226.55,223.25 18.45,21.77 28.4,12.99 24.8,-44.65 -48.87,-127.66 -126.09,-203.93 -213.32,-324.12 -7.12,-57.84 -7.75,-109.18 4.96,-147.18 95.56,-65.4 67.34,-76.96 138.08,-111.62 -12.07,123.82 -15.76,213.58 0,329.9 6.33,46.72 74,-19.69 109.97,-120.71 11.03,-128.71 -11.02,-243.37 3.31,-378.7 91.5,-307.57 297.12,-388.59 458.07,-580.41 313.64,-314.75 473.5,-637.77 792.1,-889.68 49.94,144.8 36.87,279.09 -29.77,398.54 -131.47,235.66 -212.21,382.18 -190.17,492.8 22.58,-141.01 222.15,-411.31 363.81,-441.54 27.39,11.19 22.6,22.87 36.38,79.38 31.87,130.64 96.01,228.1 180.25,296.01 118.51,101.43 239.51,171.43 355.54,304.28 -96.19,-149.39 -218.51,-245.15 -310.89,-383.66 -80.36,-120.49 -117,-179.03 -74.42,-334.04 316.38,225.08 457.85,443.62 835.1,425 -450.6,-97.84 -715.24,-402.67 -701.15,-691.24 84.31,153.29 230.44,182.96 424.99,115.75 -335.26,-18.61 -448.03,-227.78 -365.46,-649.89 113.19,375.09 392.75,503.7 744.15,525.87 -329.53,-118.67 -559.93,-285.51 -539.1,-926.06 3.42,-55.56 32.95,-81.76 89.3,-81.03l463.06 6.08c483.65,6.34 686.9,256.43 615.95,615.29 -89.69,453.6 -152.14,791.81 14.91,923.17 96.28,102.87 195.68,200.64 285.26,307.57 32.67,39.72 32.78,94.38 17.38,166.2 -77.2,359.92 -62.21,697.45 -19.83,1074.92 -10.38,291.71 -77.32,537.99 -145.53,760.68 -51.39,167.78 -86.67,236.62 -104.17,393.56 -23.34,209.22 82.68,659.27 94.26,1207.19 10.07,470.5 -164.36,410.63 -201.75,544.06 -48.56,173.27 59.67,296.25 190.17,410.11 101.78,88.8 132.39,178.15 191.83,388.61 36.54,129.36 101.44,202.58 191.82,201.75l360.5 -3.3c5.57,-106.36 -48.82,-152.22 -180.25,-175.29 -50.99,-8.95 -86.94,-54.96 -116.36,-140.27 55.34,-315.7 56.43,-630.75 11.8,-942.5 -1.37,-112.21 3.14,-231.49 13.01,-359.76 24.69,-320.67 94.02,-633.52 100.3,-969.82 5,-267.95 16.62,-397.35 145.52,-661.47 141.17,-250.94 208.3,-472.26 195.13,-661.47 224.24,-147 449.14,-292.1 627.77,-480.35 115.06,-121.25 176.09,-274.6 258.59,-386.17 526.65,-434.14 1166.75,-1200.76 1276.65,-1518.03 122.87,-227.44 -34.18,-471.99 -250.91,-517.51 -195.07,-28.23 -649.64,5.24 -1425.89,196.7 -97.66,24.08 -194.03,35.1 -291.04,26.46 -555.33,-1077.27 -928.58,-1700.96 -1375.84,-1637.11 -111.94,-72.85 -204.45,-178.49 -281.12,-310.89 2.21,-498.3 4.41,-996.61 6.62,-1494.91 92.29,-471.87 23.78,-906.79 -27.28,-1384.12 2.2,-89.3 -4.69,-176.94 -2.49,-266.24 98.69,-18.08 190.16,-48.07 284.42,-92.61l264.93 67.36c90.65,23.04 118.38,-72.13 42.93,-108.28l-183.82 -88.06 0 -42.99c356.91,9.09 462.37,-44.1 467.98,-44.65 90.57,-24.16 34.99,-69.84 -16.12,-71.93l-263.35 -10.75 261.28 -90.95c48.88,-25.25 49.22,-44.19 -3.31,-56.23l-265.41 0c-13.75,0 -22.55,-12.71 1.45,-20.87l146.34 -49.73c21.91,-7.45 42.97,-15.47 62.89,-28.63z"/>
  <path class="fil2" d="M12492.76 20767.34c49.06,-0.55 98.12,-1.1 147.18,-1.65 -39.65,76.28 -58.83,126.93 -76.89,196.79 -16.11,-58.94 -38.74,-140.6 -70.29,-195.14z"/>
  <path class="fil2" d="M2930.65 22584.27l112.45 510.99c-277.85,-28.48 -516.71,-23.27 -590.36,-86 -49.02,-50.72 -54.05,-114.64 -14.89,-191.82 86.16,-87.8 269.9,-163.03 492.8,-233.17z"/>
  <polygon class="fil2" points="20517.6,21012.34 20679.65,20805.63 20930.51,20749.41 20795.41,20557.58 20840.06,20299.61 20592.01,20385.6 20358.85,20274.81 20352.23,20522.86 20160.41,20713.03 20395.23,20787.44 "/>
  <path class="fil2" d="M9545.34 19634.44c104.42,-191.83 305.38,-258.7 382.9,-203.44l0.74 1.35 -113.05 275.99 -18.51 45.2 -42.25 103.14c-18.94,46.23 -1.64,100.14 43.52,100.14l213.66 0 0.12 0 0.11 0 0.12 0 0.11 0 0.12 0 0.11 0 0.12 -0.01 0.11 0 0.12 0 0.07 0 0.04 0 0.12 -0.01 0.12 0 0.11 0 0.11 -0.01 0.12 0 0.11 0 0.12 -0.01 0.11 0 0.12 -0.01 0.02 0 0.09 0 0.12 -0.01 0.11 -0.01 0.12 0 0.11 -0.01 0.12 0 0.11 -0.01 0.11 -0.01 0.12 -0.01 0.09 0 0.02 0 0.12 -0.01 0.11 -0.01 0.11 -0.01 0.12 -0.01 0.11 0 0.11 -0.01 0.12 -0.01 0.11 -0.01 0.11 -0.01 0.05 0 0.07 -0.01 0.11 -0.01 0.11 -0.01 0.12 -0.01 0.11 -0.02 0.11 -0.01 0.11 -0.01 0.12 -0.01 0.11 -0.01 0.11 -0.01 0.11 -0.02 0.12 -0.01 0.11 -0.01 0.11 -0.01 0.11 -0.02 0.11 -0.01 0.23 -0.03 0.11 -0.01 0.22 -0.03 0.11 -0.02 0.12 -0.01 0.11 -0.02 0.11 -0.01 0.11 -0.02c-17.34,138.43 -54.08,291.32 -84.74,481.79 181.18,-431.81 199.71,-706.7 433.27,-907.86 107.92,-92.95 225.17,-59 271.19,-13.23 83.47,83.02 56.25,207.52 248.05,347.27 84.12,22.5 150.69,3.97 195.13,-66.15 152.68,179.15 275.61,447.59 413.41,671.39l-2337.68 21.54c126.55,-287.74 232.85,-573.24 387.09,-856.6z"/>
  <polygon class="fil1" points="12369.42,4253.82 12731.57,4376.19 13075.53,4224.06 13082.15,4594.48 13355,4865.68 13007.73,4968.2 12839.06,5292.32 12600.93,4984.74 12213.98,4920.25 12433.91,4642.43 "/>
  <path class="fil3" d="M14962.34 18813.54c413.97,372.64 346.72,350.02 750.76,730.92l9.82 -0.7 0 -370.84 -9.82 -2.19c-252.14,-39.35 -469.39,-248.94 -750.76,-357.19zm1066.63 708.36l8.25 -0.59c59.12,-117.51 67.16,-214.27 -8.25,-277.1l0 277.69z"/>
  <polygon class="fil2" points="10985.34,3461.74 11008.49,3154.15 10798.48,2934.21 11109.37,2863.1 11279.7,2605.13 11443.41,2858.14 11759.26,2935.87 11554.2,3152.5 11575.7,3456.78 11283,3342.67 "/>
  <path class="fil2" d="M15399.05 17466.72c170.58,-83.6 342.63,-156.17 517.6,-206.71 86.23,-22.74 148.03,9.51 190.17,85.99 20.58,66.63 12.65,113.01 -28.11,135.6 -36.81,23.35 -89.5,-20.35 -176.94,-38.03 -160.72,-32.51 -328.81,-4.89 -502.72,23.15z"/>
  <polygon class="fil2" points="16796.1,17302.36 16859.76,17184.95 16990.4,17146.91 16891.18,17051.82 16885.39,16912.91 16774.6,16972.45 16637.34,16929.45 16653.05,17065.05 16577.81,17166.76 16715.89,17192.39 "/>
  <path class="fil2" d="M15083.98 16497.15c42,0 76.05,32.56 76.05,72.74 0,40.17 -34.05,72.73 -76.05,72.73 -42.01,0 -76.06,-32.56 -76.06,-72.73 0,-40.18 34.05,-72.74 76.06,-72.74z"/>
  <polygon class="fil2" points="15608.81,16206.77 15665.86,16093.49 15798.98,16056.28 15695.62,15958.71 15685.7,15822.28 15574.08,15882.64 15441.78,15834.69 15467.42,15964.5 15390.52,16069.51 15526.95,16099.28 "/>
  <path class="fil2" d="M13607.35 15210.58l85.99 1.65c60.58,25.34 107.53,62.33 137.25,114.11 16.81,39.91 20.12,76.41 1.66,107.48 -11.73,28.86 -24.81,51.82 -54.57,57.88l-127.34 -6.61c-54.37,-8.18 -94.44,-43.61 -125.68,-95.91 -23.93,-61.76 5.19,-121.23 82.69,-178.6z"/>
  <path class="fil2" d="M12547.52 16037.38c49.15,0 89.01,42.2 89.01,94.26 0,52.06 -39.86,94.26 -89.01,94.26 -49.16,0 -89.02,-42.2 -89.02,-94.26 0,-52.06 39.86,-94.26 89.02,-94.26z"/>
  <polygon class="fil2" points="12514.8,15075.27 12686.78,14761.07 13043.97,14648.62 12774.43,14375.77 12759.55,14008.66 12427.16,14162.45 12058.4,14043.39 12131.16,14400.58 11916.18,14699.89 12289.91,14774.3 "/>
  <polygon class="fil2" points="13447.45,14398.92 13506.16,14282.34 13631.83,14241.83 13538.4,14151.7 13532.61,14012.8 13416.86,14069.85 13282.91,14025.2 13310.2,14144.26 13229.17,14259.19 13356.5,14282.34 "/>
  <path class="fil2" d="M10635.6 14373.8l119.06 -6.61c91.13,52.53 109.14,86.86 142.22,105.83 62.65,35.93 57.21,119.07 36.38,178.6 -23.15,57.33 -59.53,55.12 -89.3,82.68 -83.98,23.48 -180.61,-3.63 -291.04,-85.99 -82.13,-68.66 -46.84,-161.77 82.68,-274.51z"/>
  <polygon class="fil2" points="10176.54,12359.96 10168.28,12614.63 9981.41,12799.84 10219.54,12875.91 10338.6,13092.54 10502.32,12885.83 10755.33,12836.22 10611.46,12639.44 10657.76,12388.08 10413.02,12474.07 "/>
  <polygon class="fil1" points="14611.77,9494.24 14727.52,9269.35 14965.65,9196.59 14785.4,9014.69 14777.13,8763.33 14552.23,8867.51 14297.57,8784.83 14343.87,9031.22 14196.7,9234.62 14444.75,9280.92 "/>
  <polygon class="fil1" points="12931.66,8379.67 12962.25,8515.27 12878.74,8619.45 13022.61,8640.12 13099.5,8754.23 13155.73,8635.16 13278.1,8605.4 13179.7,8507.01 13184.67,8362.31 13069.74,8435.06 "/>
  <path class="fil1" d="M13816.9 23326.26l890.48 -1989.68c9.42,-21.04 22.72,-44.04 43.08,-44.19l57.8 -0.42c28.19,-0.2 38.42,18.3 47.12,38l885.56 2006.29c21.76,49.28 -0.24,94.67 -47.54,94.67l-210.44 0c-13.1,0 -29.14,-6.56 -39.27,-29.35l-283.59 -637.49 -757.74 0 -279.24 625.89c-10.77,24.16 -23.71,34.72 -44.24,34.72l-226.56 0c-54.78,0 -49.81,-66.28 -35.42,-98.44zm738.73 -906.18l210.02 -476.26c8.02,-18.19 25.83,-18.48 33.9,0l207.16 474.6c10.96,25.1 4.87,36.38 -15.71,36.38l-425 0c-21.56,0 -20.49,-11.76 -10.37,-34.72z"/>
  <path class="fil1" d="M12096.63 23382.84l0 -2043.32c0,-24.27 19.43,-46.7 48.36,-46.7l204.02 0c23.56,0 47.13,22.45 47.13,45.89l0 1759.87c0,19.59 9.6,25.89 25.89,25.89l723.76 0c10.8,0 15.21,-6.63 15.21,-17.01l0 -1764.61c0,-35.08 23.76,-51.92 59.1,-51.92l194.92 0c28.65,0 52.79,18.37 52.79,44.51l0 1770.54c0,12.21 6.28,18.47 18.47,18.47l264.46 0c23.63,0 38.51,13.77 38.51,38.51l0 522.21c0,25.29 -16.47,44.24 -44.24,44.24l-186.65 0c-28.58,0 -54.17,-27.3 -54.17,-58.92l0 -231.92c0,-14.23 -7.99,-18.99 -19,-18.99l-1340.24 0c-29.75,0 -48.32,-8.1 -48.32,-36.74z"/>
  <path class="fil1" d="M10282.66 21345.16c-0.01,-37.92 25.46,-56.62 57.05,-56.62l194.31 0c33.01,0 52.91,23.89 52.91,55.8l0 771.64c0,10.6 4.66,16.56 16.56,16.56 277.99,0 555.99,-0.48 833.97,0 9.84,0.01 15.83,-4.48 15.83,-15.83l0 -775.72c0,-31.89 18.81,-48.76 48.76,-48.76l199.25 0c25.92,0 43.19,24.56 43.19,49.39l0 2038.32c0,29.84 -16.46,44.2 -44.2,44.2l-207.3 0c-30.74,0 -44.84,-12.84 -44.84,-44.83l0 -907.02c0,-15.2 -7.12,-19.83 -19.83,-19.83l-825.93 0c-12.31,0 -16.38,3.05 -16.38,14.74l0 913.88c0,23.48 -21.02,43.26 -45.94,43.26l-202.04 0c-28.77,0 -54.28,-22.6 -54.29,-54.91l-1.08 -2024.27z"/>
  <path class="fil1" d="M8170.92 23325.03l890.48 -1989.68c9.42,-21.04 22.72,-44.04 43.08,-44.19l57.8 -0.42c28.19,-0.2 38.42,18.3 47.12,38l885.56 2006.29c21.76,49.28 -0.24,94.67 -47.54,94.67l-210.44 0c-13.1,0 -29.14,-6.56 -39.27,-29.35l-283.59 -637.49 -754.22 0 -282.76 625.89c-10.89,24.11 -23.71,34.72 -44.24,34.72l-226.56 0c-54.78,0 -49.81,-66.28 -35.42,-98.44zm738.73 -906.18l210.02 -476.26c8.02,-18.19 25.83,-18.48 33.9,0l207.16 474.6c10.96,25.1 4.87,36.38 -15.71,36.38l-425 0c-21.56,0 -20.49,-11.76 -10.37,-34.72z"/>
  <path class="fil2" d="M7423 23377.9l0 -1754.96 -354.53 0c-39.92,0 -62.9,-15.76 -62.9,-69.92l0 -212.27c0,-39.8 29.81,-64.49 66.02,-64.49l1032.33 0c47.15,0 80.81,39.42 80.81,80.4l0 200.93c0,36.3 -41.11,64.29 -73.12,64.29l-351.82 0 0 1743.4c0,50.2 -29.68,79.37 -76.41,79.37l-191 0c-44.33,0 -69.38,-25.17 -69.38,-66.75z"/>
  <polygon class="fil2" points="3068.91,21318.3 3207.82,21119.86 3169.78,20856.92 3424.45,20939.61 3657.61,20835.43 3674.15,21091.75 3861.01,21283.57 3619.58,21366.26 3495.55,21594.47 3335.15,21381.14 "/>
  <polygon class="fil2" points="1820.22,19707.68 1861.56,19972.27 1712.73,20182.28 1978.97,20243.47 2150.96,20458.45 2273.33,20231.89 2526.34,20150.86 2334.51,19952.42 2321.28,19684.52 2081.5,19798.63 "/>
  <path class="fil2" d="M2915.84 21320.96c52.29,0 94.68,42.2 94.68,94.26 0,52.06 -42.39,94.26 -94.68,94.26 -52.29,0 -94.68,-42.2 -94.68,-94.26 0,-52.06 42.39,-94.26 94.68,-94.26z"/>
  <path class="fil2" d="M3752.65 21777.35l104.18 0c74.67,40.43 111.62,77.16 127.33,107.49 19.02,36.74 26.79,79.44 14.89,127.33 -9.82,39.53 -35.66,70.45 -71.11,69.45l-117.41 -3.31c-65.84,-1.86 -116.32,-48.49 -150.48,-120.71 -23.21,-46.55 9.96,-107.23 92.6,-180.25z"/>
  <path class="fil2" d="M3271.44 22485.11c212.31,-103.71 429.86,-195.6 659.81,-259.62l109.14 0c47.59,28.79 86.36,64.9 107.49,115.76 15.28,49.54 15.61,94.29 0,133.94 -12.5,16.78 -27.52,33.02 -47.96,36.38 -32.09,5.28 -67.58,14.19 -97.56,1.66 -44.9,-18.75 -82.01,-63.17 -129,-66.15 -98.46,-6.24 -194.85,-5.22 -295.99,3.31 -102.25,8.63 -203.95,23.15 -305.93,34.72z"/>
  <polygon class="fil2" points="5081.44,21478.69 5152.55,21356.32 5274.92,21314.98 5174.05,21209.15 5170.74,21070.24 5051.68,21129.77 4912.77,21083.47 4935.92,21224.03 4853.24,21328.21 4993.8,21361.28 "/>
  <polygon class="fil2" points="5150.08,22008.7 5172.4,22146.78 5095.51,22259.23 5236.07,22290.65 5328.68,22400.62 5389.86,22284.03 5521.33,22241.87 5423.76,22139.34 5417.98,21994.64 5295.6,22055 "/>
  <polygon class="fil2" points="5337.01,23022.38 5390.75,22947.96 5382.49,22842.13 5478.4,22874.37 5569.35,22833.86 5570.18,22933.08 5642.94,23005.01 5554.47,23031.47 5505.69,23118.29 5446.98,23041.4 "/>
  <path class="fil2" d="M5260.02 23082.89c44.75,0 81.03,37.21 81.03,83.1 0,45.89 -36.28,83.1 -81.03,83.1 -44.75,0 -81.03,-37.21 -81.03,-83.1 0,-45.89 36.28,-83.1 81.03,-83.1z"/>
  <path class="fil2" d="M2692.87 23393.85c51.54,14.33 76.41,25.01 131.46,44.66 52.47,18.73 125.29,24.23 168.67,9.1 29.42,-10.27 63.76,-57.22 47.13,-57.07l-347.26 3.31z"/>
  <path class="fil2" d="M2593.64 23395.5c-146.62,6.16 -230.4,37.93 -257.97,92.61 -14.63,86.15 -11.27,159.7 18.19,214.98 48.12,47.24 123.32,67.4 219.94,66.14 120.06,-97.89 124.69,-222.93 19.84,-373.73z"/>
  <path class="fil2" d="M2377.21 24095.55l-337.43 0.63 -0.11 0 9.91 -97.08c4.77,-46.74 53.72,-76.07 112.45,-76.07l162.06 0c42.68,0 58.19,88.97 53.12,172.52z"/>
  <path class="fil2" d="M6158.86 24088.42l-593.66 1.12c89.85,-13.11 178.93,-33.64 269.55,-39.33 85.42,-5.37 172.71,-10.16 256.73,6.2 26.83,5.22 52.99,23.26 67.38,32.01z"/>
  <path class="fil2" d="M8737.44 16919.48l-32.44 74.59 85.49 -0.06c-13.84,-25.85 -31.53,-50.91 -53.05,-74.53z"/>
  <path class="fil2" d="M7423 23377.9l0 -1754.96 -354.53 0c-39.92,0 -62.9,-15.76 -62.9,-69.92l0 -212.27c0,-39.8 29.81,-64.49 66.02,-64.49l1032.33 0c47.15,0 80.81,39.42 80.81,80.4l0 200.93c0,36.3 -41.11,64.29 -73.12,64.29l-351.82 0 0 1743.4c0,50.2 -29.68,79.37 -76.41,79.37l-191 0c-44.33,0 -69.38,-25.17 -69.38,-66.75z"/>
  <path class="fil2" d="M10509.34 19999.13c56.77,-14.18 113.01,-6.79 168.68,23.15 73.57,40.53 117.18,90.65 135.6,148.83 20.3,130.7 -8.6,188.6 -79.38,205.06 -148.79,34.6 -328.53,-13.23 -355.95,-126.3 -30.65,-126.35 34.57,-222.9 131.05,-250.74z"/>
  <path class="fil2" d="M9545.34 19634.44c104.42,-191.83 305.38,-258.7 382.9,-203.44l0.74 1.35 654.04 -1596.77c9.17,-17.78 19.71,-32.66 36.63,-35.73 19.35,-3.51 41.15,-3.73 61.18,0 18.76,3.5 40.12,20.41 51.1,47.37l811.35 1992.94c23.25,57.1 -12.52,117.66 -54.39,116.63l-216.52 0c-14.34,0 -28,-19.13 -33.14,-31.83l-585.79 -1445.09 -587.78 1435.83c-9.08,22.21 -25.64,37.62 -46.04,40.59 -17.34,138.43 -54.08,291.32 -84.74,481.79 181.18,-431.81 199.71,-706.7 433.27,-907.86 107.92,-92.95 225.17,-59 271.19,-13.23 83.47,83.02 56.25,207.52 248.05,347.27 84.12,22.5 150.69,3.97 195.13,-66.15 152.68,179.15 275.61,447.59 413.41,671.39l-2337.68 21.54c126.55,-287.74 232.85,-573.24 387.09,-856.6z"/>
  <path class="fil3" d="M12523.87 19601.65l-15.99 13.07c-83.24,91.74 -134.06,147.07 -188.52,162.05 -77.57,16.26 -110.96,-23.95 -109.14,-109.14 71.24,-127.85 127.04,-219.68 174.3,-291.58 37.92,81.26 84.83,156.94 139.35,225.6z"/>
  <path class="fil3" d="M13798.97 19886.09l2.07 9.75c-117.06,196.37 -248.97,235.78 -396.88,105.83l-3.28 -3.04c142.17,-9.65 276.7,-49.06 398.09,-112.54z"/>
  <path class="fil2" d="M13918.6 19381.28c-16.29,-20.62 -32.63,-41.04 -49.01,-61.31l-188.52 0c-37.58,-81.78 -49.77,-160.28 -118.24,-168.69l-16.22 -0.77 5.32 -8.83 375.38 -117.41 -284.43 -279.46 -15.72 -394.41 -356.35 169.51 -380.34 -135.6 59.53 390.26 -208.36 310.89 158 28.67c-40.52,39.03 -93.11,101.04 -121.42,130.14 114.65,63.09 224.11,136.67 343.96,189.26 11.39,-67.02 -2.03,-135.69 -3.04,-203.54 -0.12,-21 -8,-53.81 -19.98,-79.66l34.4 6.24 142.87 188.43 -5.47 16.3c-11.84,48.05 -19.53,56.49 -40.52,96.33 251.54,20.63 441.97,51.01 499.44,102.54l0.55 2.61c-115.08,77.97 -251.25,123.1 -397.2,123.1 -154.43,0 -297.91,-50.5 -417.06,-136.99l-133.89 -124.22c-83.31,-97.86 -144.46,-217.99 -174.97,-351.13 53.09,-109.07 48.92,-186.35 -16.75,-229.44l-4.27 -1.65c17.98,-428.09 345.51,-769.22 746.94,-769.22 412.99,0 747.78,361.01 747.78,806.32 0,189.67 -60.77,364.02 -162.41,501.73z"/>
  <path class="fil2" d="M14387.6 18951.26l2.87 51.2c76.22,180.35 162.66,337.08 257.97,472.95 141.78,240.98 282.91,422.83 449.8,808.63 23.33,69.57 30.7,145.39 36.38,201.74l-158.7 1.57c-124.56,-131.86 -258.57,-325.14 -405.19,-469.54 -96.69,8.58 -189.95,-8.58 -277.81,-66.15 -58.66,-114.36 -120.34,-216.68 -183.93,-311.34 159.8,-183.5 262.62,-423.73 278.61,-689.06z"/>
  <path class="fil3" d="M11659.88 15603.98l11.35 -204.37c64.13,-22.56 115.59,-8.28 155.44,39.69 60.95,-82.37 123.4,-148.6 198.44,-175.29 132.91,-47.28 213.57,9.97 207.53,117.4 -9.81,174.56 -112.82,269.67 -220.76,398.54 68.9,265.69 220.49,518.15 291.05,787.15l-181.74 -211.82c-67.61,-108.25 -146.32,-242.93 -297.82,-347.12l-133.39 152.95 -0.23 2.82c-1.57,-135.33 -12.3,-270.25 -31.53,-404.56 -0.61,-50.32 -0.05,-102.06 1.66,-155.39z"/>
  <path class="fil2" d="M680.68 21397.7l605.82 -1277.98c75.61,93.99 285.07,-73.5 104.21,-219.84l7469.44 -15756.84 -88.48 -229.86 -754.46 -319.55 666.25 -537.01 120.74 -808.64 701.08 417.6 838.41 -181.91 -233.17 788.81 294.36 529.18 1752.96 66.16 -1502.51 3496.24 1.68 -379.02c92.29,-471.87 23.78,-906.79 -27.28,-1384.12 2.2,-89.3 -4.69,-176.94 -2.49,-266.24 98.69,-18.08 190.16,-48.07 284.42,-92.61l264.93 67.36c90.65,23.04 118.38,-72.13 42.93,-108.28l-183.82 -88.06 0 -42.99c356.91,9.09 462.37,-44.1 467.98,-44.65 90.57,-24.16 34.99,-69.84 -16.12,-71.93l-263.35 -10.75 261.28 -90.95c48.88,-25.25 49.22,-44.19 -3.31,-56.23l-265.41 0c-13.75,0 -22.55,-12.71 1.45,-20.87l146.34 -49.73c21.91,-7.45 42.97,-15.47 62.89,-28.63 8.7,-5.75 15.57,-12.44 16.1,-25.89 -367.58,-3.93 -904.89,236.4 -1064.12,537.29 -34.73,23.7 16.52,345.08 -64.51,1192.3 -29.8,464.36 -14.63,937.76 -32.55,1011.9 -25.63,164.03 -119.04,340.62 -141.39,423.34 -96.36,259.12 -65.39,448.77 -110.49,697.97 -51.82,189.64 -65.6,132.01 -107.5,295.18l-510.14 -3.31c-102.03,-15.96 -176.06,-166.21 -364.64,-156.27 -7.72,-17.36 -114.65,191.83 -171.98,287.74 -54.3,-3.17 -90.82,-19.57 -148,-20.67 -23.15,78.55 11.78,140.85 22.33,191 15.43,73.29 14.02,113.47 -21.5,168.67 -41.1,63.88 -60.52,139.99 -54.57,233.16 -421.39,-7.43 -582.93,53.2 -709.42,203.4 143.12,-67.23 243.29,-70.02 289.39,8.27 -204.47,427.76 -328.64,379.21 -358.84,858.25 87.67,-292.59 206.67,-459.84 360.5,-487.83 -32.71,476.32 -21.3,772.19 42.99,851.63 -4.77,-296.38 47.07,-493.1 168.67,-568.86 32.38,-20.17 92.88,-4.26 89.3,38.86 -5.28,63.72 25.43,89.85 59.53,93.44l226.55 0c-689.74,911.4 -777.57,1077.2 -955.8,1375.83 -83.23,157.65 -196.23,235.92 -294.35,353.88 -70.62,81.87 -115.69,181.63 -142.22,294.35 -33.53,186.47 -144.5,283.62 -275.32,493.21 -12.04,19.29 -6.64,70.07 20.66,50.84 166.91,-148.61 228.1,-259.32 305.93,-243.09 4.69,163.44 -2.21,197.89 16.54,343.97 20.12,59.53 45.45,63.01 60.6,37.38l46.89 -297.01c49.16,-20.42 115.03,102.9 226.55,223.25 18.45,21.77 28.4,12.99 24.8,-44.65 -48.87,-127.66 -126.09,-203.93 -213.32,-324.12 -7.12,-57.84 -7.75,-109.18 4.96,-147.18 95.56,-65.4 67.34,-76.96 138.08,-111.62 -12.07,123.82 -15.76,213.58 0,329.9 6.33,46.72 74,-19.69 109.97,-120.71 11.03,-128.71 -11.02,-243.37 3.31,-378.7 91.5,-307.57 297.12,-388.59 458.07,-580.41 297.41,-298.46 456.57,-604.34 743.9,-850l-2615 6084.91 540.74 -1.65 2252.32 -5048.58 433.26 198.43 -2093.48 4841.09 487.84 0 1674.02 -3735.23 437.4 195.13 -1453.67 3343.01c85.96,47.6 156.24,79.52 204.74,89.67 316.86,35.21 315.61,-277.58 122.37,-587.05 296.67,226.5 620.02,261.93 636.67,44.67 56.03,-447.58 -233.35,-828.87 -155.44,-1283.25 22.5,-131.21 111,-137.6 198.44,-56.22 142.38,209.88 230.23,960.05 343.96,1207.18 74.9,-108.65 187.45,-121.76 343.96,-23.16 88.97,-82.65 132.62,-245.86 142.22,-469.64 60.58,569.18 200.71,801.16 446.48,585.4l7.6 -8.76c34.28,43.36 76.82,83.91 122.04,123.37 101.78,88.8 132.39,178.15 191.83,388.61 36.54,129.36 101.44,202.58 191.82,201.75l360.5 -3.3c5.57,-106.36 -48.82,-152.22 -180.25,-175.29 -50.99,-8.95 -86.94,-54.96 -116.36,-140.27 223.11,-219.21 436.92,-374.37 474.77,-346.59l138.89 161.87c-41.03,109.9 -173.11,217.64 -316.79,349.27 57.41,45.96 109.07,96.24 148.83,155.44l444.84 8.27c27.21,-143.87 -42.64,-189.62 -104.18,-320.81 131.6,89.58 251.9,166.81 434.91,132.29 148.68,-152.18 -6.41,-550.18 -59.52,-868.19 -22.82,-162.82 -16.87,-280.41 52.92,-297.66 75.09,-33.83 132.17,49.26 171.98,244.74 88.68,354.17 178.49,778.04 253.04,795.41 194.12,-3.98 321.21,-180.59 315.85,-463.03 22.94,280.33 79.03,481.45 203.41,519.21 81.56,33.66 278.39,-163.22 580.43,-570.51 123.78,-173.44 221.29,-268.07 300.96,-309.23 109.55,-25.72 162.23,19.11 143.87,152.13 -50.64,134.54 -132.36,253.53 -244.74,357.19l-353.88 439.87c-126.12,156.77 23.75,261.98 162.06,168.68 168.53,-113.69 180.18,-212.5 324.11,-264.59 115.31,-41.73 185.05,23.78 132.29,148.83 -61.37,145.44 -335.99,275.92 -342.28,413.42 14.09,96.07 63.64,166.83 170.33,196.78 177.89,10.35 349.08,8.95 509.32,-11.58 -65.2,68.66 -581.39,172.8 -530.82,337.35l315.03 158.75c428.18,3.7 724.04,22.32 750.87,65.74l0 151.15c-111.23,25.25 -387.81,22.42 -754.53,12.53l-325.78 38.04c-81.2,47.43 -88.09,167.37 3.31,305.92l-5.74 116.95c-131.65,-25.22 -219.41,-17.04 -262.99,24.85 -78.84,-537.23 -516.53,-948.35 -1044.7,-948.35 -529.96,0 -968.85,413.93 -1045.49,953.85l-43.5 0c61.96,-84.69 84.3,-164.18 62.64,-237.84 -20.12,-52.57 -111.23,-68.32 -249.43,-59.66l0 -550.49c0,-42.48 -25.09,-64.41 -63.59,-64.41l-182.61 0c-42.29,0 -58.74,33.07 -58.74,66.39l0 981.07 -14.48 20.66c-52.76,-7.81 -130.76,12.77 -146.35,99.23 -36.95,204.95 95.58,356.68 156.27,525.86l4.56 7.68 0 398c0,28.42 23.01,60.12 54.85,60.12l195.91 0c6.44,0 12.73,-1.69 18.6,-4.63l311.49 524.43 453.09 1.66 205.06 -380.34c-20.93,126.59 -48.48,215.15 -62.8,379.77 2470.98,8.11 4943.06,13.98 7367.76,101.51 -31.16,33.82 -61.32,57.87 -92.48,91.69 -2443.3,77.99 -4895.94,114.52 -7312.8,95.5 -17.48,153.32 -77.57,268.88 -185.21,333.21 -35.08,20.96 -70.67,13.76 -99.22,0.83 11.68,72.8 12.37,127.37 -13.23,138.91 -47.18,21.25 -99.61,12.01 -155.44,-18.19 -23.79,-12.87 -174.85,-171.61 -395.23,-459.72l-2201 1.64c-74.42,298.34 -109.02,615.85 -162.06,942.58 -19.22,118.39 -105.98,207.51 -182.91,273.05l-145.54 -329.74c125.9,-300.7 286.89,-609.16 452.47,-896.63l-752.89 -2.32 -5.69 -0.02 -1467.25 3336.09 -1286.08 2.42c27.69,-6.34 32.92,-53.1 16.52,-138.83 -16.21,-36.11 -44.42,-62.59 -82.68,-81.03 -41.89,-17.75 -83.79,-16.41 -125.68,-3.31l-534.13 224.54 -779.46 1.47c-122.6,-61.7 -130.53,-154.73 -66.4,-263.29 73.99,-125.27 269.89,-194.29 307.58,-327.42 41.44,-146.35 -26.87,-193.56 -145.52,-152.14 -63.14,22.03 -141.53,160.35 -312.55,239.78 -162.62,75.54 -250.99,21.5 -183.55,-117.41 277.33,-414.12 597.97,-671.13 625.08,-836.75 44.23,-175.73 -145.4,-212.62 -224.89,-119.06 -442.82,521.21 -692.81,870.53 -826.83,856.59 -114.55,-15.7 -175.41,-194.84 -188.54,-519.24l-36.38 -6.62c7.34,174.43 -15.05,280.89 -69.45,314.19 -114.11,-39.14 -229.86,-48.5 -337.35,-42.99 -86.93,-284.93 -87.53,-571.29 -233.05,-821.51 -43.05,-62.42 -85.39,-46.85 -108.62,-35.53 -60.75,28.7 -53.14,197.79 -58.51,261.73 -195.15,14 -349.06,25.28 -459.77,1.23 -346.2,-75.23 -284.68,-336.46 139.09,-632.87 172.94,-120.97 46.94,-334.55 -148.83,-256.08 -76.69,30.73 -144.02,110.27 -267.6,214.83 -168.67,142.72 -412.91,193 -269.94,-100.39 112.76,-231.42 534.65,-579.35 686.38,-927.97 109.59,-251.82 -168.12,-297.09 -301.67,-112.51 -252.68,349.24 -721.07,952.9 -878.13,941.34 -42.18,-3.1 -76.28,-3.17 -109.02,-52.05 -20.14,-30.05 -49.31,-87.45 -74.5,-143.59 -33.53,-74.71 -52.3,-139.83 -55.91,-288.87 -1,-41.4 8.76,-104.64 3.58,-124.49 -3.16,-12.14 -38.1,-5.87 -50.31,-4.18 12.5,212.62 -55.06,388.67 -148.22,470.64 -137.75,121.22 -240.76,141.25 -311.23,-108.68z"/>
  <path class="fil3" d="M3135.08 17797.33l374.54 0 204.31 0c375.38,16.4 636.49,174.33 679.31,535.49 6.22,52.52 3.52,106.37 -3.72,158.75 -45.34,327.58 -295.45,531.26 -632.07,531.26l-356.38 0 0 861.56c0,37.73 -31.13,72.76 -66.17,72.76l-194.71 0c-30.22,0 -72.49,-36.52 -72.49,-76.23 0,-670.97 0,-1341.94 0,-2012.91 -1.69,-35.84 27.07,-70.68 67.38,-70.68zm-1314.86 1910.35l261.28 90.95 239.78 -114.11 13.23 267.9 191.83 198.44 -253.01 81.03 -122.37 226.56 -171.99 -214.98 -266.24 -61.19 148.83 -210.01 -41.34 -264.59zm-533.72 412.04l-605.82 1277.98c70.47,249.93 173.48,229.9 311.23,108.68 93.16,-81.97 160.72,-258.02 148.22,-470.64 12.21,-1.69 47.15,-7.96 50.31,4.18 5.18,19.85 -4.58,83.09 -3.58,124.49 3.61,149.04 22.38,214.16 55.91,288.87 25.19,56.14 54.36,113.54 74.5,143.59 32.74,48.88 66.84,48.95 109.02,52.05 157.06,11.56 625.45,-592.1 878.13,-941.34 133.55,-184.58 411.26,-139.31 301.67,112.51 -151.73,348.62 -573.62,696.55 -686.38,927.97 -142.97,293.39 101.27,243.11 269.94,100.39 123.58,-104.56 190.91,-184.1 267.6,-214.83 195.77,-78.47 321.77,135.11 148.83,256.08 -423.77,296.41 -485.29,557.64 -139.09,632.87 110.71,24.05 264.62,12.77 459.77,-1.23 5.37,-63.94 -2.24,-233.03 58.51,-261.73 23.23,-11.32 65.57,-26.89 108.62,35.53 145.52,250.22 146.12,536.58 233.05,821.51 107.49,-5.51 223.24,3.85 337.35,42.99 54.4,-33.3 76.79,-139.76 69.45,-314.19l36.38 6.62c13.13,324.4 73.99,503.54 188.54,519.24 134.02,13.94 384.01,-335.38 826.83,-856.59 79.49,-93.56 269.12,-56.67 224.89,119.06 -27.11,165.62 -347.75,422.63 -625.08,836.75 -67.44,138.91 20.93,192.95 183.55,117.41 171.02,-79.43 249.41,-217.75 312.55,-239.78 118.65,-41.42 186.96,5.79 145.52,152.14 -37.69,133.13 -233.59,202.15 -307.58,327.42 -64.13,108.56 -56.2,201.59 66.4,263.29l779.46 -1.47 534.13 -224.54c41.89,-13.1 83.79,-14.44 125.68,3.31 38.26,18.44 66.47,44.92 82.68,81.03 16.4,85.73 11.17,132.49 -16.52,138.83l1286.08 -2.42 1467.25 -3336.09 5.69 0.02 752.89 2.32c-165.58,287.47 -326.57,595.93 -452.47,896.63l145.54 329.74c76.93,-65.54 163.69,-154.66 182.91,-273.05 53.04,-326.73 87.64,-644.24 162.06,-942.58l2201 -1.64c220.38,288.11 371.44,446.85 395.23,459.72 55.83,30.2 108.26,39.44 155.44,18.19 25.6,-11.54 24.91,-66.11 13.23,-138.91 28.55,12.93 64.14,20.13 99.22,-0.83 107.64,-64.33 167.73,-179.89 185.21,-333.21 2416.86,19.02 4869.5,-17.51 7312.8,-95.5 15.59,-16.92 30.93,-31.39 46.27,-45.87l46.21 -45.82c-1711.95,-61.8 -3447.52,-82.89 -5189.65,-92.81l-130.16 1.29c-0.63,-0.67 -1.27,-1.34 -1.9,-2.02 -681.42,-3.66 -1363.78,-5.73 -2046.05,-7.97 14.32,-164.62 41.87,-253.18 62.8,-379.77l-205.06 380.34 -453.09 -1.66 -311.49 -524.43c-5.87,2.95 -12.16,4.63 -18.6,4.63l-195.91 0c-31.84,0 -54.85,-31.7 -54.85,-60.12l0 -398 -4.56 -7.68c-60.69,-169.18 -193.22,-320.91 -156.27,-525.86 15.59,-86.46 93.59,-107.04 146.35,-99.23l14.48 -20.66 0 -981.07c0,-33.32 16.45,-66.39 58.74,-66.39l182.61 0c38.5,0 63.59,21.93 63.59,64.41l0 550.49c138.2,-8.66 229.31,7.09 249.43,59.66 21.66,73.66 -0.68,153.15 -62.64,237.84l43.5 0c76.64,-539.92 515.53,-953.85 1045.49,-953.85 528.17,0 965.89,411.11 1044.7,948.35 43.58,-41.89 142.72,-47.59 274.37,-22.37l0 -117.77c-91.4,-138.55 -90.15,-260.15 -8.95,-307.58l8.95 -1.05 0 -397.19c0,-9.54 2.28,-19 6.36,-27.51l-0.9 -0.46c-50.57,-164.55 465.62,-268.69 530.82,-337.35 -160.24,20.53 -331.43,21.93 -509.32,11.58 -106.69,-29.95 -156.24,-100.71 -170.33,-196.78 6.29,-137.5 280.91,-267.98 342.28,-413.42 52.76,-125.05 -16.98,-190.56 -132.29,-148.83 -143.93,52.09 -155.58,150.9 -324.11,264.59 -138.31,93.3 -288.18,-11.91 -162.06,-168.68l353.88 -439.87c112.38,-103.66 194.1,-222.65 244.74,-357.19 18.36,-133.02 -34.32,-177.85 -143.87,-152.13 -79.67,41.16 -177.18,135.79 -300.96,309.23 -302.04,407.29 -498.87,604.17 -580.43,570.51 -124.38,-37.76 -180.47,-238.88 -203.41,-519.21 5.36,282.44 -121.73,459.05 -315.85,463.03 -74.55,-17.37 -164.36,-441.24 -253.04,-795.41 -39.81,-195.48 -96.89,-278.57 -171.98,-244.74 -69.79,17.25 -75.74,134.84 -52.92,297.66 53.11,318.01 208.2,716.01 59.52,868.19 -183.01,34.52 -303.31,-42.71 -434.91,-132.29 61.54,131.19 131.39,176.94 104.18,320.81l-444.84 -8.27c-39.76,-59.2 -91.42,-109.48 -148.83,-155.44 143.68,-131.63 275.76,-239.37 316.79,-349.26l-138.89 -161.88c-37.85,-27.78 -251.66,127.38 -474.77,346.59 29.42,85.31 65.37,131.32 116.36,140.27 131.43,23.07 185.82,68.93 180.25,175.29l-360.5 3.3c-90.38,0.83 -155.28,-72.39 -191.82,-201.75 -59.44,-210.46 -90.05,-299.81 -191.83,-388.61 -45.22,-39.46 -87.77,-80.01 -122.04,-123.37l-7.6 8.76c-245.77,215.76 -385.9,-16.22 -446.48,-585.4 -9.6,223.78 -53.25,386.99 -142.22,469.64 -156.51,-98.6 -269.06,-85.49 -343.96,23.16 -113.73,-247.13 -201.58,-997.3 -343.96,-1207.18 -87.44,-81.38 -175.94,-74.99 -198.44,56.22 -77.91,454.38 211.47,835.67 155.44,1283.25 -16.65,217.26 -340,181.83 -636.67,-44.67 193.24,309.47 194.49,622.26 -122.37,587.05 -48.5,-10.15 -118.78,-42.07 -204.74,-89.67l1453.67 -3343.01 -437.4 -195.13 -1674.02 3735.23 -487.84 0 2093.48 -4841.09 -433.26 -198.43 -2252.32 5048.58 -540.74 1.65 2615 -6084.91c-287.33,245.66 -446.49,551.54 -743.9,850 -160.95,191.82 -366.57,272.84 -458.07,580.41 -14.33,135.33 7.72,249.99 -3.31,378.7 -35.97,101.02 -103.64,167.43 -109.97,120.71 -15.76,-116.32 -12.07,-206.08 0,-329.9 -70.74,34.66 -42.52,46.22 -138.08,111.62 -12.71,38 -12.08,89.34 -4.96,147.18 87.23,120.19 164.45,196.46 213.32,324.12 3.6,57.64 -6.35,66.42 -24.8,44.65 -111.52,-120.35 -177.39,-243.67 -226.55,-223.25l-46.89 297.01c-15.15,25.63 -40.48,22.15 -60.6,-37.38 -18.75,-146.08 -11.85,-180.53 -16.54,-343.97 -77.83,-16.23 -139.02,94.48 -305.93,243.09 -27.3,19.23 -32.7,-31.55 -20.66,-50.84 130.82,-209.59 241.79,-306.74 275.32,-493.21 26.53,-112.72 71.6,-212.48 142.22,-294.35 98.12,-117.96 211.12,-196.23 294.35,-353.88 178.23,-298.63 266.06,-464.43 955.8,-1375.83l-226.55 0c-34.1,-3.59 -64.81,-29.72 -59.53,-93.44 3.58,-43.12 -56.92,-59.03 -89.3,-38.86 -121.6,75.76 -173.44,272.48 -168.67,568.86 -64.29,-79.44 -75.7,-375.31 -42.99,-851.63 -153.83,27.99 -272.83,195.24 -360.5,487.83 30.2,-479.04 154.37,-430.49 358.84,-858.25 -46.1,-78.29 -146.27,-75.5 -289.39,-8.27 126.49,-150.2 288.03,-210.83 709.42,-203.4 -5.95,-93.17 13.47,-169.28 54.57,-233.16 35.52,-55.2 36.93,-95.38 21.5,-168.67 -10.55,-50.15 -45.48,-112.45 -22.33,-191 57.18,1.1 93.7,17.5 148,20.67 57.33,-95.91 164.26,-305.1 171.98,-287.74 188.58,-9.94 262.61,140.31 364.64,156.27l510.14 3.31c41.9,-163.17 55.68,-105.54 107.5,-295.18 45.1,-249.2 14.13,-438.85 110.49,-697.97 22.35,-82.72 115.76,-259.31 141.39,-423.34 17.92,-74.14 2.75,-547.54 32.55,-1011.9 81.03,-847.22 29.78,-1168.6 64.51,-1192.3 159.23,-300.89 696.54,-541.22 1064.12,-537.29 -0.53,13.45 -7.4,20.14 -16.1,25.89 -19.92,13.16 -40.98,21.18 -62.89,28.63l-146.34 49.73c-24,8.16 -15.2,20.87 -1.45,20.87l265.41 0c52.53,12.04 52.19,30.98 3.31,56.23l-261.28 90.95 263.35 10.75c51.11,2.09 106.69,47.77 16.12,71.93 -5.61,0.55 -111.07,53.74 -467.98,44.65l0 42.99 183.82 88.06c75.45,36.15 47.72,131.32 -42.93,108.28l-264.93 -67.36c-94.26,44.54 -185.73,74.53 -284.42,92.61 -2.2,89.3 4.69,176.94 2.49,266.24 51.06,477.33 119.57,912.25 27.28,1384.12l-1.68 379.02 1502.51 -3496.24 -1752.96 -66.16 -294.36 -529.18 233.17 -788.81 -838.41 181.91 -701.08 -417.6 -120.74 808.64 -666.25 537.01 754.46 319.55 88.48 229.86 -7469.44 15756.84c180.86,146.34 -28.6,313.83 -104.21,219.84zm1883.28 737.2l254.67 82.69 233.16 -104.18 16.54 256.32 186.86 191.82 -241.43 82.69 -124.03 228.21 -160.4 -213.33 -266.24 -62.84 138.91 -198.44 -38.04 -262.94zm1538.3 -3059.93l1081 0c53.9,0 83.51,22.99 83.51,74l0 206.54c0,35.74 -30.29,67.4 -68.22,67.4l-841.4 0 0 479.36 827.16 0c37.97,0 69.47,26.63 69.47,66.16l0 220.93c0,36.24 -34.28,63.03 -67.17,63.03l-826.22 0 0 638.8 827.85 0c34.97,0 64.49,25.49 64.49,61.6l0 230.06c0,27.13 -24.3,51.65 -54.13,51.65l-1105.7 0c-35.6,0 -65.79,-29.68 -65.79,-77.41l0 -2006.14c0,-39.05 23.72,-76.58 75.15,-75.98zm1356.64 2103.52l0 -2040.93c0,-33.26 26.81,-62.12 61.71,-62.12 165.21,0 292.41,0.65 457.6,0.11 310.5,-1.01 560.79,176.63 602.9,524.16 4.14,34.2 3.75,67.64 0,99.88 -19.09,164.11 -84.73,274.54 -177.22,352.58 174.11,83.88 292.42,232.34 330.76,462.35 7.73,46.39 6.85,93.52 0,138.93 -50.72,336.22 -299.51,581.12 -638.99,581.12l-580.82 0c-29.08,0 -55.94,-26.26 -55.94,-56.08zm-2133.47 2324.98l109.14 0c47.59,28.79 86.36,64.9 107.49,115.76 15.28,49.54 15.61,94.29 0,133.94 -12.5,16.78 -27.52,33.02 -47.96,36.38 -32.09,5.28 -67.58,14.19 -97.56,1.66 -44.9,-18.75 -82.01,-63.17 -129,-66.15 -98.46,-6.24 -194.85,-5.22 -295.99,3.31 -102.25,8.63 -203.95,23.15 -305.93,34.72 212.31,-103.71 429.86,-195.6 659.81,-259.62zm3491.75 1152.41l0 -1754.96 -354.53 0c-39.92,0 -62.9,-15.76 -62.9,-69.92l0 -212.27c0,-39.8 29.81,-64.49 66.02,-64.49l1032.33 0c47.15,0 80.81,39.42 80.81,80.4l0 200.93c0,36.3 -41.11,64.29 -73.12,64.29l-351.82 0 0 1743.4c0,50.2 -29.68,79.37 -76.41,79.37l-191 0c-44.33,0 -69.38,-25.17 -69.38,-66.75zm1282 -6383.83l32.44 -74.59c21.52,23.62 39.21,48.68 53.05,74.53l-85.49 0.06zm-1206.06 1883.33c1.21,-628.24 470.25,-1124.09 1067.6,-1126.48 597.35,-2.39 1073.11,497.33 1067.6,1126.48 -5.51,629.15 -451.37,1120.82 -1067.6,1126.48 -616.23,5.66 -1068.81,-498.24 -1067.6,-1126.48zm2046.4 757.04c104.42,-191.83 305.38,-258.7 382.9,-203.44l0.74 1.35 31.88 -77.83 622.16 -1518.94c9.17,-17.78 19.71,-32.66 36.63,-35.73 19.35,-3.51 41.15,-3.73 61.18,0 18.76,3.5 40.12,20.41 51.1,47.37l811.35 1992.94c23.25,57.1 -12.52,117.66 -54.39,116.63l-216.52 0c-14.34,0 -28,-19.13 -33.14,-31.83l-585.79 -1445.09 -587.78 1435.83c-9.08,22.21 -25.64,37.62 -46.04,40.59 -17.34,138.43 -54.08,291.32 -84.74,481.79 181.18,-431.81 199.71,-706.7 433.27,-907.86 107.92,-92.95 225.17,-59 271.19,-13.23 83.47,83.02 56.25,207.52 248.05,347.27 84.12,22.5 150.69,3.97 195.13,-66.15 152.68,179.15 275.61,447.59 413.41,671.39l-2337.68 21.54c126.55,-287.74 232.85,-573.24 387.09,-856.6zm-5792.69 2142.91l104.18 0c74.67,40.43 111.62,77.16 127.33,107.49 19.02,36.74 26.79,79.44 14.89,127.33 -9.82,39.53 -35.66,70.45 -71.11,69.45l-117.41 -3.31c-65.84,-1.86 -116.32,-48.49 -150.48,-120.71 -23.21,-46.55 9.96,-107.23 92.6,-180.25zm1299.03 -647.58l119.06 -59.53 3.31 138.91 100.87 105.83 -122.37 41.34 -71.11 122.37 -87.64 -117.41 -140.56 -33.07 82.68 -104.18 -23.15 -140.56 138.91 46.3zm98.4 878.93l145.52 46.3 122.38 -60.36 5.78 144.7 97.57 102.53 -131.47 42.16 -61.18 116.59 -92.61 -109.97 -140.56 -31.42 76.89 -112.45 -22.32 -138.08zm109.94 1074.19c44.75,0 81.03,37.21 81.03,83.1 0,45.89 -36.28,83.1 -81.03,83.1 -44.75,0 -81.03,-37.21 -81.03,-83.1 0,-45.89 36.28,-83.1 81.03,-83.1zm76.99 -60.51l53.74 -74.42 -8.26 -105.83 95.91 32.24 90.95 -40.51 0.83 99.22 72.76 71.93 -88.47 26.46 -48.78 86.82 -58.71 -76.89 -109.97 -19.02zm-2421.17 -1701.42c52.29,0 94.68,42.2 94.68,94.26 0,52.06 -42.39,94.26 -94.68,94.26 -52.29,0 -94.68,-42.2 -94.68,-94.26 0,-52.06 42.39,-94.26 94.68,-94.26zm9576.92 -553.62c49.06,-0.55 98.12,-1.1 147.18,-1.65 -39.65,76.28 -58.83,126.93 -76.89,196.79 -16.11,-58.94 -38.74,-140.6 -70.29,-195.14z"/>
  <path class="fil3" d="M10509.34 19999.13c-96.48,27.84 -161.7,124.39 -131.05,250.74 27.42,113.07 207.16,160.9 355.95,126.3 70.78,-16.46 99.68,-74.36 79.38,-205.06 -18.42,-58.18 -62.03,-108.3 -135.6,-148.83 -55.67,-29.94 -111.91,-37.33 -168.68,-23.15z"/>
  <path class="fil3" d="M12890.47 18384.31l380.34 135.6 356.35 -169.51 15.72 394.41 284.43 279.46 -375.38 117.41 -5.32 8.83 16.22 0.77c68.47,8.41 80.66,86.91 118.24,168.69l188.52 0c16.38,20.27 32.72,40.69 49.01,61.31 101.64,-137.71 162.41,-312.06 162.41,-501.73 0,-445.31 -334.79,-806.32 -747.78,-806.32 -401.43,0 -728.96,341.13 -746.94,769.22l4.27 1.65c65.67,43.09 69.84,120.37 16.75,229.44 30.51,133.14 91.66,253.27 174.97,351.13l133.89 124.22c119.15,86.49 262.63,136.99 417.06,136.99 145.95,0 282.12,-45.13 397.2,-123.1l-0.55 -2.61c-57.47,-51.53 -247.9,-81.91 -499.44,-102.54 20.99,-39.84 28.68,-48.28 40.52,-96.33l5.47 -16.3 -142.87 -188.43 -34.4 -6.24c11.98,25.85 19.86,58.66 19.98,79.66 1.01,67.85 14.43,136.52 3.04,203.54 -119.85,-52.59 -229.31,-126.17 -343.96,-189.26 28.31,-29.1 80.9,-91.11 121.42,-130.14l-158 -28.67 208.36 -310.89 -59.53 -390.26z"/>
  <path class="fil3" d="M14108.99 19640.32c63.59,94.66 125.27,196.98 183.93,311.34 87.86,57.57 181.12,74.73 277.81,66.15 145.87,143.67 279.27,335.71 403.29,467.52 43.97,0.24 87.95,0.48 131.91,0.73l0.15 0c0.05,0 0.1,0 0.15,0l28.39 -0.28c-5.68,-56.35 -13.05,-132.17 -36.38,-201.74 -55.33,-127.9 -107.83,-233.39 -158.46,-326.05l-233.53 0c-32.44,0 -54.69,-24.02 -54.69,-56.83l0 -420.46c-1.04,-1.76 -2.08,-3.52 -3.12,-5.29 -95.31,-135.87 -181.75,-292.6 -257.97,-472.95l-2.83 -50.46c-16.13,265.04 -118.92,505.04 -278.65,688.32z"/>
  <path class="fil3" d="M14962.34 18813.54c413.97,372.64 346.72,350.02 750.76,730.92l9.82 -0.7 0 -370.84 -9.82 -2.19c-252.14,-39.35 -469.39,-248.94 -750.76,-357.19z"/>
  <path class="fil3" d="M14968.39 18218.6c366.72,9.89 643.3,12.72 754.53,-12.53l0 -151.15c-26.83,-43.42 -322.69,-62.04 -750.87,-65.74l-11.41 -5.75 0 236.07 7.75 -0.9z"/>
  <path class="fil3" d="M15399.05 17466.72c173.91,-28.04 342,-55.66 502.72,-23.15 87.44,17.68 140.13,61.38 176.94,38.03 40.76,-22.59 48.69,-68.97 28.11,-135.6 -42.14,-76.48 -103.94,-108.73 -190.17,-85.99 -174.97,50.54 -347.02,123.11 -517.6,206.71z"/>
  <path class="fil4" d="M15083.98 16642.62c42,0 76.05,-32.56 76.05,-72.73 0,-40.18 -34.05,-72.74 -76.05,-72.74 -42.01,0 -76.06,32.56 -76.06,72.74 0,40.17 34.05,72.73 76.06,72.73z"/>
  <path class="fil4" d="M13777.68 15491.7c29.76,-6.06 42.84,-29.02 54.57,-57.88 18.46,-31.07 15.15,-67.57 -1.66,-107.48 -29.72,-51.78 -76.67,-88.77 -137.25,-114.11l-85.99 -1.65c-77.5,57.37 -106.62,116.84 -82.69,178.6 31.24,52.3 71.31,87.73 125.68,95.91l127.34 6.61z"/>
  <path class="fil4" d="M12636.53 16131.64c0,-52.06 -39.86,-94.26 -89.01,-94.26 -49.16,0 -89.02,42.2 -89.02,94.26 0,52.06 39.86,94.26 89.02,94.26 49.15,0 89.01,-42.2 89.01,-94.26z"/>
  <path class="fil4" d="M10843.96 14734.3c29.77,-27.56 66.15,-25.35 89.3,-82.68 20.83,-59.53 26.27,-142.67 -36.38,-178.6 -33.08,-18.97 -51.09,-53.3 -142.22,-105.83l-119.06 6.61c-129.52,112.74 -164.81,205.85 -82.68,274.51 110.43,82.36 207.06,109.47 291.04,85.99z"/>
  <polygon class="fil4" points="10338.6,13092.54 10502.32,12885.83 10755.33,12836.22 10611.46,12639.44 10657.76,12388.08 10413.02,12474.07 10176.54,12359.96 10168.28,12614.63 9981.41,12799.84 10219.54,12875.91 "/>
  <polygon class="fil4" points="12058.4,14043.39 12131.16,14400.58 11916.18,14699.89 12289.91,14774.3 12514.8,15075.27 12686.78,14761.07 13043.97,14648.62 12774.43,14375.77 12759.55,14008.66 12427.16,14162.45 "/>
  <polygon class="fil4" points="13310.2,14144.26 13229.17,14259.19 13356.5,14282.34 13447.45,14398.92 13506.16,14282.34 13631.83,14241.83 13538.4,14151.7 13532.61,14012.8 13416.86,14069.85 13282.91,14025.2 "/>
  <path class="fil3" d="M20358.85 20274.81l-6.62 248.05 -56.5 56.01c-15.55,16.87 -30.84,31.32 -46.21,45.82l-46.25 45.85 -42.86 42.49 234.82 74.41 122.37 224.9 162.05 -206.71 250.86 -56.22 -135.1 -191.83 44.65 -257.97 -248.05 85.99 -233.16 -110.79z"/>
  <polygon class="fil3" points="16796.1,17302.36 16859.76,17184.95 16990.4,17146.91 16891.18,17051.82 16885.39,16912.91 16774.6,16972.45 16637.34,16929.45 16653.05,17065.05 16577.81,17166.76 16715.89,17192.39 "/>
  <polygon class="fil4" points="15665.86,16093.49 15798.98,16056.28 15695.62,15958.71 15685.7,15822.28 15574.08,15882.64 15441.78,15834.69 15467.42,15964.5 15390.52,16069.51 15526.95,16099.28 15608.81,16206.77 "/>
  <path class="fil3" d="M2573.8 23769.23c120.06,-97.89 124.69,-222.93 19.84,-373.73 -146.62,6.16 -230.4,37.93 -257.97,92.61 -14.63,86.15 -11.27,159.7 18.19,214.98 48.12,47.24 123.32,67.4 219.94,66.14z"/>
  <path class="fil3" d="M2824.33 23438.51c52.47,18.73 125.29,24.23 168.67,9.1 29.42,-10.27 63.76,-57.22 47.13,-57.07l-347.26 3.31c51.54,14.33 76.41,25.01 131.46,44.66z"/>
  <path class="fil3" d="M2452.74 23009.26c73.65,62.73 312.51,57.52 590.36,86l-112.45 -510.99c-222.9,70.14 -406.64,145.37 -492.8,233.17 -39.16,77.18 -34.13,141.1 14.89,191.82z"/>
  <path class="fil3" d="M2324.09 23923.03l-162.06 0c-58.73,0 -107.68,29.33 -112.45,76.07l-9.8 97.08 337.43 -0.63c5.07,-83.55 -10.44,-172.52 -53.12,-172.52z"/>
  <path class="fil3" d="M5834.75 24050.21c-90.62,5.69 -179.7,26.22 -269.55,39.33l593.66 -1.12c-14.39,-8.75 -40.55,-26.79 -67.38,-32.01 -84.02,-16.36 -171.31,-11.57 -256.73,-6.2z"/>
  <polygon class="fil3" points="10985.34,3461.74 11283,3342.67 11575.7,3456.78 11554.2,3152.5 11759.26,2935.87 11443.41,2858.14 11279.7,2605.13 11109.37,2863.1 10798.48,2934.21 11008.49,3154.15 "/>
  <path class="fil3" d="M15083.98 16497.15c-42.01,0 -76.06,32.56 -76.06,72.74 0,40.17 34.05,72.73 76.06,72.73 42,0 76.05,-32.56 76.05,-72.73 0,-40.18 -34.05,-72.74 -76.05,-72.74z"/>
  <polygon class="fil3" points="15390.52,16069.51 15526.95,16099.28 15608.81,16206.77 15665.86,16093.49 15798.98,16056.28 15695.62,15958.71 15685.7,15822.28 15574.08,15882.64 15441.78,15834.69 15467.42,15964.5 "/>
  <path class="fil3" d="M13832.25 15433.82c18.46,-31.07 15.15,-67.57 -1.66,-107.48 -29.72,-51.78 -76.67,-88.77 -137.25,-114.11l-85.99 -1.65c-77.5,57.37 -106.62,116.84 -82.69,178.6 31.24,52.3 71.31,87.73 125.68,95.91l127.34 6.61c29.76,-6.06 42.84,-29.02 54.57,-57.88z"/>
  <path class="fil3" d="M12636.53 16131.64c0,-52.06 -39.86,-94.26 -89.01,-94.26 -49.16,0 -89.02,42.2 -89.02,94.26 0,52.06 39.86,94.26 89.02,94.26 49.15,0 89.01,-42.2 89.01,-94.26z"/>
  <polygon class="fil3" points="12514.8,15075.27 12686.78,14761.07 13043.97,14648.62 12774.43,14375.77 12759.55,14008.66 12427.16,14162.45 12058.4,14043.39 12131.16,14400.58 11916.18,14699.89 12289.91,14774.3 "/>
  <polygon class="fil3" points="13356.5,14282.34 13447.45,14398.92 13506.16,14282.34 13631.83,14241.83 13538.4,14151.7 13532.61,14012.8 13416.86,14069.85 13282.91,14025.2 13310.2,14144.26 13229.17,14259.19 "/>
  <path class="fil3" d="M10933.26 14651.62c20.83,-59.53 26.27,-142.67 -36.38,-178.6 -33.08,-18.97 -51.09,-53.3 -142.22,-105.83l-119.06 6.61c-129.52,112.74 -164.81,205.85 -82.68,274.51 110.43,82.36 207.06,109.47 291.04,85.99 29.77,-27.56 66.15,-25.35 89.3,-82.68z"/>
  <polygon class="fil3" points="10338.6,13092.54 10502.32,12885.83 10755.33,12836.22 10611.46,12639.44 10657.76,12388.08 10413.02,12474.07 10176.54,12359.96 10168.28,12614.63 9981.41,12799.84 10219.54,12875.91 "/>
  <path class="fil1" d="M14651.56 19901.16l0 -2042.76c0,-30.97 24,-61.02 55.85,-61.02l186.81 0.04c40.22,0 66.42,22.03 66.42,68.67l0 1756.58c0,8.43 9.51,17.98 17.98,17.98l732.31 0c6.7,0 11.99,-7.52 11.99,-14.22l0 -1766.71c0,-31.67 23.44,-62.16 57.16,-62.16l175.86 0c46.39,0 73.03,16.99 73.03,69.32l0 1750.07c0,20.71 10.16,22.93 23.76,22.93l242.66 0c46.55,0 56.45,13.9 56.45,57.29l0 498.61c0,32.67 -12.52,51.26 -47.53,51.26l-196.41 0c-23.99,0 -47.33,-22.67 -47.33,-48.98l0 -240 -12.52 -0.07 -1341.8 0c-32.44,0 -54.69,-24.02 -54.69,-56.83z"/>
  <path class="fil1" d="M10065.66 19915.7l587.78 -1435.83 585.79 1445.09c5.14,12.7 18.8,31.83 33.14,31.83l216.52 0c41.87,1.03 77.64,-59.53 54.39,-116.63l-811.35 -1992.94c-10.98,-26.96 -32.34,-43.87 -51.1,-47.37 -20.03,-3.73 -41.83,-3.51 -61.18,0 -16.92,3.07 -27.46,17.95 -36.63,35.73l-622.16 1518.94 -31.88 77.83 -173.81 424.33c-18.94,46.23 -1.64,100.14 43.52,100.14l218.01 -0.19 2.92 -0.34c20.4,-2.97 36.96,-18.38 46.04,-40.59z"/>
 </g>
</svg>
