<svg width="36" height="36" viewBox="0 0 36 36" fill="none" xmlns="http://www.w3.org/2000/svg">
<path d="M36 0.935059H0V35.9127H36V0.935059ZM18 12.0113C21.6456 12.0113 24.6 14.883 24.6 18.4239C24.6 21.9636 21.6456 24.8365 18 24.8365C14.3556 24.8365 11.4 21.9636 11.4 18.4239C11.4 14.883 14.3556 12.0113 18 12.0113ZM31.2 31.2491H4.8V15.5091H7.6308C7.356 16.4348 7.2 17.4119 7.2 18.4239C7.2 24.2185 12.0372 28.9172 18 28.9172C23.9664 28.9172 28.8 24.2185 28.8 18.4239C28.8 17.4119 28.644 16.4348 28.3692 15.5091H31.2V31.2491ZM31.2 6.774V10.2904V11.4284C31.2 11.4284 30.6636 11.4155 30.0192 11.426V11.4284H26.4C25.746 11.4284 25.2 11.4284 25.2 11.4284V5.59875H30L30.0192 5.60225C30.0192 5.60225 31.2 5.60808 31.2 5.59875C31.2 5.59875 31.1976 6.7705 31.1976 6.774H31.2Z" fill="white"/>
</svg>
