<svg width="16" height="16" viewBox="0 0 16 16" fill="none" xmlns="http://www.w3.org/2000/svg">
<path d="M4.44444 7.11111C3.95352 7.11111 3.55556 7.50908 3.55556 8C3.55556 8.49092 3.95352 8.88889 4.44444 8.88889H11.5195C12.0105 8.88889 12.4084 8.49092 12.4084 8C12.4084 7.50908 12.0105 7.11111 11.5195 7.11111H4.44444Z" fill="white"/>
<path d="M4.48047 10.7258C3.98955 10.7258 3.59158 11.1238 3.59158 11.6147C3.59158 12.1056 3.98955 12.5036 4.48047 12.5036H11.5556C12.0465 12.5036 12.4444 12.1056 12.4444 11.6147C12.4444 11.1238 12.0465 10.7258 11.5556 10.7258H4.48047Z" fill="white"/>
<path fill-rule="evenodd" clip-rule="evenodd" d="M1.77778 0C0.795938 0 0 0.795938 0 1.77778V14.2222C0 15.2041 0.795938 16 1.77778 16H14.2222C15.2041 16 16 15.2041 16 14.2222V1.77778C16 0.795938 15.2041 0 14.2222 0H1.77778ZM3.55556 1.77778H1.77778L1.77778 14.2222H14.2222V1.77778H12.4444V2.66667C12.4444 4.13943 11.2505 5.33333 9.77778 5.33333H6.22222C4.74946 5.33333 3.55556 4.13943 3.55556 2.66667V1.77778ZM5.33333 1.77778V2.66667C5.33333 3.15759 5.7313 3.55556 6.22222 3.55556H9.77778C10.2687 3.55556 10.6667 3.15759 10.6667 2.66667V1.77778H5.33333Z" fill="white"/>
</svg>
